<svg xmlns="http://www.w3.org/2000/svg" xmlns:xlink="http://www.w3.org/1999/xlink" width="111.333" height="106.732" viewBox="0 0 111.333 106.732">
  <defs>
    <linearGradient id="linear-gradient" x1="0.5" x2="0.5" y2="1" gradientUnits="objectBoundingBox">
      <stop offset="0" stop-color="#a504fe"/>
      <stop offset="0.544" stop-color="#5650ec"/>
      <stop offset="1" stop-color="#01a2d7"/>
    </linearGradient>
  </defs>
  <g id="noun-budget-4475773" transform="translate(-1.682)">
    <path id="Path_4764" data-name="Path 4764" d="M89.822,94.417a1.3,1.3,0,0,0,.715,1.151,1.253,1.253,0,0,0,.558.14,1.2,1.2,0,0,0,.767-.262l21.179-16.228h36.624A20.346,20.346,0,1,0,180.151,60.3a1.277,1.277,0,0,0-1.273,2.213A19.146,19.146,0,0,1,181.6,64.5L169.954,76.148,158.292,64.5a17.669,17.669,0,0,1,11.661-4.375,17.2,17.2,0,0,1,4.532.593,1.256,1.256,0,0,0,1.551-.907,1.27,1.27,0,0,0-.907-1.551,19.955,19.955,0,0,0-3.94-.593l0-36.117a1.28,1.28,0,0,0-1.273-1.273h-16.8a1.273,1.273,0,0,0,0,2.546h15.532V57.6a20.339,20.339,0,0,0-19.035,19.035h-36.99a1.2,1.2,0,0,0-.767.262L92.385,91.838V77.927a1.28,1.28,0,0,0-1.273-1.273H81.543V22.827h63.8a1.273,1.273,0,0,0,0-2.546H80.271A1.28,1.28,0,0,0,79,21.554V77.928A1.28,1.28,0,0,0,80.271,79.2h9.552Zm93.624-28.152a17.787,17.787,0,0,1-12.185,29.407V78.433Zm-26.915.018L168.7,78.449V95.689a17.856,17.856,0,0,1-16.542-17.763A17.651,17.651,0,0,1,156.531,66.283Z" transform="translate(-77.317 -20.281)" fill="url(#linear-gradient)"/>
    <path id="Path_4765" data-name="Path 4765" d="M415.806,22.495a1.25,1.25,0,0,0,.907.366,1.329,1.329,0,0,0,.907-.366,1.2,1.2,0,0,0,.279-.4,1.193,1.193,0,0,0,0-.976.929.929,0,0,0-.279-.4,1.323,1.323,0,0,0-1.395-.279,1.06,1.06,0,0,0-.419.262,1.516,1.516,0,0,0-.279.4,1.228,1.228,0,0,0-.1.488,1.113,1.113,0,0,0,.1.488A.992.992,0,0,0,415.806,22.495Z" transform="translate(-344.625 -20.334)" fill="url(#linear-gradient)"/>
    <path id="Path_4766" data-name="Path 4766" d="M378.167,429.415h5.77a1.273,1.273,0,0,0,0-2.546h-5.77a1.273,1.273,0,1,0,0,2.546Z" transform="translate(-314.013 -343.339)" fill="url(#linear-gradient)"/>
    <path id="Path_4767" data-name="Path 4767" d="M199.473,434.883V433.21a6.5,6.5,0,0,0-6.5-6.5H168.5a1.273,1.273,0,1,0,0,2.546h14.067v3.5H115.506v-3.5h36.345a1.273,1.273,0,0,0,0-2.546H114.442a1.329,1.329,0,0,0-.732.07l-13.927,6.1a1.272,1.272,0,0,0,0,2.335l13.927,6.1a1.248,1.248,0,0,0,.506.1,1.774,1.774,0,0,0,.3-.034h68.034v5.526H164.661a1.273,1.273,0,0,0,0,2.546h19.174a1.28,1.28,0,0,0,1.273-1.273v-6.8h7.861a6.514,6.514,0,0,0,6.5-6.5Zm-2.562-1.673v1.673a3.966,3.966,0,0,1-3.957,3.957h-7.861v-9.57h7.861a3.94,3.94,0,0,1,3.957,3.94Zm-14.346,2.109v3.5H115.506v-3.5Zm-69.62-5.4v8.28l-9.466-4.149Z" transform="translate(-93.221 -343.194)" fill="url(#linear-gradient)"/>
    <path id="Path_4768" data-name="Path 4768" d="M203.717,227.307a1.273,1.273,0,0,0,0,2.546h38.976a1.273,1.273,0,1,0,0-2.546Z" transform="translate(-175.402 -184.775)" fill="url(#linear-gradient)"/>
    <path id="Path_4769" data-name="Path 4769" d="M251.754,158.407a1.28,1.28,0,0,0-1.273-1.273H203.712a1.273,1.273,0,0,0,0,2.546h46.769A1.281,1.281,0,0,0,251.754,158.407Z" transform="translate(-175.398 -129.019)" fill="url(#linear-gradient)"/>
    <path id="Path_4770" data-name="Path 4770" d="M259.644,88.155a1.28,1.28,0,0,0-1.273-1.273H203.812a1.273,1.273,0,0,0,0,2.546h54.559A1.269,1.269,0,0,0,259.644,88.155Z" transform="translate(-175.477 -73.2)" fill="url(#linear-gradient)"/>
    <path id="Path_4771" data-name="Path 4771" d="M138.017,71.186a1.28,1.28,0,0,0-1.273-1.273h-7.007a1.28,1.28,0,0,0-1.273,1.273v6.99a1.28,1.28,0,0,0,1.273,1.273h6.99A1.28,1.28,0,0,0,138,78.176v-6.99ZM135.472,76.9h-4.463V72.459h4.445V76.9Z" transform="translate(-116.62 -59.717)" fill="url(#linear-gradient)"/>
    <path id="Path_4772" data-name="Path 4772" d="M138.017,141.357a1.28,1.28,0,0,0-1.273-1.273h-7.007a1.28,1.28,0,0,0-1.273,1.273v6.99a1.28,1.28,0,0,0,1.273,1.273h6.99A1.28,1.28,0,0,0,138,148.348v-6.991Zm-2.545,5.718h-4.463V142.63h4.445v4.445Z" transform="translate(-116.62 -115.472)" fill="url(#linear-gradient)"/>
    <path id="Path_4773" data-name="Path 4773" d="M136.739,210.25h-7.007a1.28,1.28,0,0,0-1.273,1.273v6.99a1.28,1.28,0,0,0,1.273,1.273h6.99a1.28,1.28,0,0,0,1.273-1.273v-6.99A1.255,1.255,0,0,0,136.739,210.25Zm-1.272,7.007H131v-4.445h4.445v4.445Z" transform="translate(-116.617 -171.222)" fill="url(#linear-gradient)"/>
    <path id="Path_4774" data-name="Path 4774" d="M582.578,49.392h2.632a.854.854,0,0,0,0-1.708h-2.632a.854.854,0,0,0,0,1.709Z" transform="translate(-476.761 -42.054)" fill="url(#linear-gradient)"/>
    <path id="Path_4775" data-name="Path 4775" d="M546.938,49.4h2.632a.854.854,0,1,0,0-1.708h-2.632a.854.854,0,1,0,0,1.708Z" transform="translate(-448.443 -42.057)" fill="url(#linear-gradient)"/>
    <path id="Path_4776" data-name="Path 4776" d="M571.128,63.465a.856.856,0,0,0,.854-.854V60a.854.854,0,1,0-1.708,0v2.632A.851.851,0,0,0,571.128,63.465Z" transform="translate(-467.664 -51.158)" fill="url(#linear-gradient)"/>
    <path id="Path_4777" data-name="Path 4777" d="M571.128,27.844a.856.856,0,0,0,.854-.854V24.358a.854.854,0,1,0-1.708,0v2.632A.866.866,0,0,0,571.128,27.844Z" transform="translate(-467.664 -22.842)" fill="url(#linear-gradient)"/>
    <path id="Path_4778" data-name="Path 4778" d="M125.161,512.66h-2.039a.854.854,0,1,0,0,1.708h2.057a.856.856,0,0,0,.854-.854.871.871,0,0,0-.872-.854Z" transform="translate(-111.697 -411.505)" fill="url(#linear-gradient)"/>
    <path id="Path_4779" data-name="Path 4779" d="M97.353,512.66H95.3a.854.854,0,1,0,0,1.708h2.057a.856.856,0,0,0,.854-.854A.844.844,0,0,0,97.353,512.66Z" transform="translate(-89.587 -411.505)" fill="url(#linear-gradient)"/>
    <path id="Path_4780" data-name="Path 4780" d="M114.218,521.48a.856.856,0,0,0-.854.854v2.057a.854.854,0,0,0,1.708,0v-2.057A.855.855,0,0,0,114.218,521.48Z" transform="translate(-104.622 -418.513)" fill="url(#linear-gradient)"/>
    <path id="Path_4781" data-name="Path 4781" d="M114.218,493.73a.856.856,0,0,0-.854.854v2.057a.854.854,0,0,0,1.708,0v-2.057A.856.856,0,0,0,114.218,493.73Z" transform="translate(-104.622 -396.464)" fill="url(#linear-gradient)"/>
    <path id="Path_4782" data-name="Path 4782" d="M363.97,355.351a3.338,3.338,0,1,0-3.346,3.294A3.329,3.329,0,0,0,363.97,355.351Zm-3.346,1.6a1.6,1.6,0,1,1,1.639-1.6A1.6,1.6,0,0,1,360.624,356.955Z" transform="translate(-298.439 -283.882)" fill="url(#linear-gradient)"/>
    <path id="Path_4783" data-name="Path 4783" d="M578.922,505.44a3.347,3.347,0,1,0,3.382,3.346A3.382,3.382,0,0,0,578.922,505.44Zm0,4.986a1.639,1.639,0,1,1,1.673-1.639A1.649,1.649,0,0,1,578.922,510.426Z" transform="translate(-471.834 -405.768)" fill="url(#linear-gradient)"/>
    <path id="Path_4784" data-name="Path 4784" d="M224.008,376.98a.854.854,0,1,0,0,1.708H226.4a.854.854,0,0,0,0-1.708Z" transform="translate(-191.857 -303.699)" fill="url(#linear-gradient)"/>
    <path id="Path_4785" data-name="Path 4785" d="M191.6,376.98a.854.854,0,1,0,0,1.708h2.388a.854.854,0,1,0,0-1.708Z" transform="translate(-166.105 -303.699)" fill="url(#linear-gradient)"/>
    <path id="Path_4786" data-name="Path 4786" d="M213.658,391.429a.856.856,0,0,0,.854-.854v-2.388a.854.854,0,0,0-1.708,0v2.388A.856.856,0,0,0,213.658,391.429Z" transform="translate(-183.633 -311.925)" fill="url(#linear-gradient)"/>
    <path id="Path_4787" data-name="Path 4787" d="M213.568,359.109a.856.856,0,0,0,.854-.854v-2.388a.854.854,0,0,0-1.708,0v2.388A.879.879,0,0,0,213.568,359.109Z" transform="translate(-183.561 -286.245)" fill="url(#linear-gradient)"/>
  </g>
</svg>
