<svg id="noun-adaptation-4284593" xmlns="http://www.w3.org/2000/svg" xmlns:xlink="http://www.w3.org/1999/xlink" width="114.305" height="107.048" viewBox="0 0 114.305 107.048">
  <defs>
    <linearGradient id="linear-gradient" x1="0.5" x2="0.5" y2="1" gradientUnits="objectBoundingBox">
      <stop offset="0" stop-color="#a504fe"/>
      <stop offset="0.544" stop-color="#5650ec"/>
      <stop offset="1" stop-color="#01a2d7"/>
    </linearGradient>
  </defs>
  <path id="Path_4719" data-name="Path 4719" d="M164.417,43.547h-17.4a45.548,45.548,0,0,0-15.19-30.354A8.156,8.156,0,1,0,117.977,4.8,45.306,45.306,0,0,0,56.931,40.826h-5a.907.907,0,0,0-.907.907V53.526a.907.907,0,0,0,.907.907h5.14a45.191,45.191,0,0,0,24.2,33.156l-4.231,4.262a.906.906,0,0,0,.415,1.517l14.166,3.673a.848.848,0,0,0,.228.03.906.906,0,0,0,.872-1.153l-1.3-4.619a45.436,45.436,0,0,0,10.407,1.236v13.608a.907.907,0,0,0,.907.907h61.688a.907.907,0,0,0,.907-.907V44.455a.908.908,0,0,0-.907-.907ZM125.408,1.818a6.35,6.35,0,1,1-6.35,6.35A6.357,6.357,0,0,1,125.408,1.818ZM52.834,42.641h9.979V52.62H52.834Zm26.6,49.37,8.023-8.081,3.085,10.962ZM90.853,89.3l-2.072-7.363a.906.906,0,0,0-1.516-.394l-4.659,4.693a43.4,43.4,0,0,1-23.7-31.806h4.813a.907.907,0,0,0,.907-.907V41.735a.907.907,0,0,0-.907-.907H58.762a43.5,43.5,0,0,1,58.647-34.3,8.159,8.159,0,0,0,13.152,7.964A43.733,43.733,0,0,1,145.2,43.551H132.3c-.043-.288-.079-.577-.131-.866a30.621,30.621,0,0,0-1.546-5.467.908.908,0,0,0-1.01-.566l-4.48.823a2.311,2.311,0,0,1-2.385-1.059,2.356,2.356,0,0,1,.394-2.984l2.98-2.74a.908.908,0,0,0,.1-1.228,30.151,30.151,0,0,0-7.361-6.717.906.906,0,0,0-1.255.27,37.019,37.019,0,0,1-2.591,3.564,2.686,2.686,0,0,1-3,.777,2.73,2.73,0,0,1-1.758-2.746l.833-4.6a.907.907,0,0,0-.655-1.037A29.5,29.5,0,0,0,100.859,18a.906.906,0,0,0-.85.953l.214,4.122a2.06,2.06,0,0,1-4.044.737l-1.263-3.924a.906.906,0,0,0-1.134-.588,29.574,29.574,0,0,0-8.611,4.314.909.909,0,0,0-.244,1.2L87.3,28.754a2.743,2.743,0,0,1-.63,3.259,2.69,2.69,0,0,1-3.078.34,37.561,37.561,0,0,1-3.689-2.411.921.921,0,0,0-.675-.167.91.91,0,0,0-.594.36,30.17,30.17,0,0,0-4.492,8.895.907.907,0,0,0,.529,1.112l3.76,1.5a2.353,2.353,0,0,1,1.428,2.648,2.31,2.31,0,0,1-1.853,1.837l-4.48.823a.906.906,0,0,0-.743.888,30.265,30.265,0,0,0,2.043,11.122.909.909,0,0,0,1.01.566l4.48-.823A2.313,2.313,0,0,1,82.7,59.763a2.355,2.355,0,0,1-.394,2.983l-2.98,2.74a.908.908,0,0,0-.1,1.228,30.151,30.151,0,0,0,7.361,6.717.906.906,0,0,0,1.254-.27A37.516,37.516,0,0,1,90.435,69.6a2.682,2.682,0,0,1,3-.776,2.73,2.73,0,0,1,1.758,2.746l-.833,4.6a.907.907,0,0,0,.655,1.037,29.39,29.39,0,0,0,6.806.983V90.724a43.612,43.612,0,0,1-10.965-1.418ZM102.729,43.55a.907.907,0,0,0-.907.907V59.833a10.882,10.882,0,1,1,10.329-16.284Zm11.466,0a12.694,12.694,0,1,0-12.373,18.1V76.371a27.649,27.649,0,0,1-5.526-.718l.693-3.84a4.561,4.561,0,0,0-2.911-4.69,4.5,4.5,0,0,0-5.026,1.3,37.181,37.181,0,0,0-2.221,2.983,28.311,28.311,0,0,1-5.645-5.163l2.353-2.164a4.17,4.17,0,0,0,.7-5.282,4.109,4.109,0,0,0-4.25-1.879l-3.731.685A28.369,28.369,0,0,1,74.608,48.6l3.731-.685a4.115,4.115,0,0,0,3.3-3.268,4.17,4.17,0,0,0-2.534-4.687l-2.968-1.187a28.36,28.36,0,0,1,3.442-6.832,37.15,37.15,0,0,0,3.137,2,4.5,4.5,0,0,0,5.16-.57A4.578,4.578,0,0,0,88.9,27.883l-1.976-3.276a27.7,27.7,0,0,1,6.55-3.29l.982,3.049a3.873,3.873,0,0,0,7.585-1.387l-.167-3.2a27.6,27.6,0,0,1,7.293.748l-.693,3.84a4.561,4.561,0,0,0,2.911,4.69,4.506,4.506,0,0,0,5.026-1.3,37.115,37.115,0,0,0,2.221-2.984,28.31,28.31,0,0,1,5.645,5.163L121.921,32.1a4.171,4.171,0,0,0-.7,5.282,4.113,4.113,0,0,0,4.25,1.879l3.731-.685a28.786,28.786,0,0,1,1.194,4.44c.033.18.052.358.081.538H114.195Zm49.314,61.688H103.635V45.364h59.874Z" transform="translate(-51.02 -0.002)" fill="url(#linear-gradient)"/>
  <path id="Path_4720" data-name="Path 4720" d="M367.449,281.812A1.816,1.816,0,0,0,365.635,280H363.82a1.816,1.816,0,0,0-1.814,1.815v3.629h-6.35a.907.907,0,0,0,0,1.815h6.35v3.629a1.816,1.816,0,0,0,1.814,1.815h1.814a1.816,1.816,0,0,0,1.814-1.815v-3.629H402.83a.907.907,0,0,0,0-1.815H367.449Zm-3.629,9.072v-9.072h1.815v4.532s0,0,0,0a.015.015,0,0,1,0,0v4.533Z" transform="translate(-296.689 -226.475)" fill="url(#linear-gradient)"/>
  <path id="Path_4721" data-name="Path 4721" d="M402.825,366.117h-5.443v-3.629a1.816,1.816,0,0,0-1.814-1.815h-1.814a1.816,1.816,0,0,0-1.814,1.815v3.629H355.652a.907.907,0,0,0,0,1.815h36.287v3.629a1.816,1.816,0,0,0,1.814,1.814h1.814a1.816,1.816,0,0,0,1.814-1.814v-3.629h5.443a.907.907,0,1,0,0-1.815Zm-9.072,5.444v-9.072h1.814v4.533a.015.015,0,0,0,0,0s0,0,0,0v4.533Z" transform="translate(-296.686 -291.729)" fill="url(#linear-gradient)"/>
  <path id="Path_4722" data-name="Path 4722" d="M402.827,446.8H381.963v-3.629a1.816,1.816,0,0,0-1.814-1.815h-1.814a1.816,1.816,0,0,0-1.814,1.815V446.8H355.655a.907.907,0,0,0,0,1.815h20.865v3.629a1.816,1.816,0,0,0,1.814,1.814h1.814a1.816,1.816,0,0,0,1.814-1.814v-3.629h20.865a.907.907,0,1,0,0-1.815Zm-24.493,5.443v-9.072h1.814V447.7s0,0,0,0a.016.016,0,0,1,0,0v4.532Z" transform="translate(-296.688 -356.987)" fill="url(#linear-gradient)"/>
</svg>
