<svg xmlns="http://www.w3.org/2000/svg" xmlns:xlink="http://www.w3.org/1999/xlink" width="107.26" height="107.262" viewBox="0 0 107.26 107.262">
  <defs>
    <linearGradient id="linear-gradient" x1="0.5" x2="0.5" y2="1" gradientUnits="objectBoundingBox">
      <stop offset="0" stop-color="#a504fe"/>
      <stop offset="0.544" stop-color="#5650ec"/>
      <stop offset="1" stop-color="#01a2d7"/>
    </linearGradient>
  </defs>
  <g id="noun-sales-4781762" transform="translate(-4.947)">
    <path id="Path_4898" data-name="Path 4898" d="M149.293,361.913l22.192,22.192a1.849,1.849,0,0,0,2.616-2.615L151.908,359.3a1.849,1.849,0,0,0-2.615,2.615Z" transform="translate(-132.709 -288.481)" fill-rule="evenodd" fill="url(#linear-gradient)"/>
    <path id="Path_4899" data-name="Path 4899" d="M280.179,37.346l-2.971,2.972a27.742,27.742,0,0,1-19.615,8.124h-15.8a5.548,5.548,0,0,0,0,11.1h15.8a38.832,38.832,0,0,0,27.461-11.375l2.972-2.971v1.4a5.548,5.548,0,1,0,11.1,0V31.8a5.547,5.547,0,0,0-5.548-5.548H278.78a5.548,5.548,0,0,0,0,11.1Zm5.773-.542a1.85,1.85,0,0,0-1.308-3.157h-5.866a1.849,1.849,0,0,1,0-3.7h14.795a1.851,1.851,0,0,1,1.849,1.849V46.593a1.849,1.849,0,1,1-3.7,0V40.727a1.85,1.85,0,0,0-3.157-1.308l-6.128,6.128a35.135,35.135,0,0,1-24.845,10.292h-15.8a1.849,1.849,0,0,1,0-3.7h15.8a31.438,31.438,0,0,0,22.23-9.208l6.128-6.128Z" transform="translate(-201.709 -26.25)" fill-rule="evenodd" fill="url(#linear-gradient)"/>
    <path id="Path_4900" data-name="Path 4900" d="M170.224,190.291V171.8a5.55,5.55,0,0,1,5.548-5.548h7.4a5.55,5.55,0,0,1,5.548,5.548v11.094a9.248,9.248,0,0,1,12.087,13.939l-22.192,22.192a9.255,9.255,0,0,1-6.539,2.707H145.549a5.542,5.542,0,0,0-3.922,1.626l-1.309,1.308,2.391,2.391a5.545,5.545,0,0,1,0,7.845l-7.4,7.4a5.545,5.545,0,0,1-7.845,0L97.876,212.707a5.545,5.545,0,0,1,0-7.845l7.4-7.4a5.545,5.545,0,0,1,7.845,0l1.266,1.266,11.455-9.818V179.2a5.547,5.547,0,0,1,5.548-5.548h7.4a5.547,5.547,0,0,1,5.548,5.548v6.43a16.737,16.737,0,0,1,2.1.875l1.6.8v-8.1a5.547,5.547,0,0,1,5.548-5.548h7.4a5.547,5.547,0,0,1,5.548,5.548v9.433a9.245,9.245,0,0,1,3.7,1.663ZM100.49,207.477l7.4-7.4a1.848,1.848,0,0,1,2.615,0l29.589,29.589a1.848,1.848,0,0,1,0,2.615l-7.4,7.4a1.848,1.848,0,0,1-2.615,0L100.49,210.092A1.848,1.848,0,0,1,100.49,207.477ZM137.7,222.048l-20.692-20.694,11.427-9.794a12.939,12.939,0,0,1,8.423-3.117h2.133a12.97,12.97,0,0,1,5.788,1.365l2.713,1.356a9.236,9.236,0,0,0,4.134.977h13.049a5.548,5.548,0,0,1,0,11.1H142.484a1.849,1.849,0,1,0,0,3.7h26.525a1.845,1.845,0,0,0,1.308-.542l20.027-20.025a5.547,5.547,0,1,1,7.845,7.845L176,216.405a5.542,5.542,0,0,1-3.922,1.626H145.548a9.253,9.253,0,0,0-6.539,2.707Zm47.318-35.588-11.1,11.1V171.8a1.849,1.849,0,0,1,1.849-1.849h7.4a1.849,1.849,0,0,1,1.849,1.849Zm-22.192,1.981h-11.1v-9.247a1.851,1.851,0,0,1,1.849-1.849h7.4a1.851,1.851,0,0,1,1.849,1.849Zm-22.192-3.615v-5.632a1.851,1.851,0,0,0-1.849-1.849h-7.4a1.851,1.851,0,0,0-1.849,1.849v7.248a16.632,16.632,0,0,1,7.321-1.7h2.133c.549,0,1.1.028,1.642.082Z" transform="translate(-91.304 -136.66)" fill-rule="evenodd" fill="url(#linear-gradient)"/>
  </g>
</svg>
