<svg xmlns="http://www.w3.org/2000/svg" xmlns:xlink="http://www.w3.org/1999/xlink" width="111.452" height="111.45" viewBox="0 0 111.452 111.45">
  <defs>
    <linearGradient id="linear-gradient" x1="0.5" x2="0.5" y2="1" gradientUnits="objectBoundingBox">
      <stop offset="0" stop-color="#a504fe"/>
      <stop offset="0.544" stop-color="#5650ec"/>
      <stop offset="1" stop-color="#01a2d7"/>
    </linearGradient>
  </defs>
  <g id="noun-impact-4327865" transform="translate(-1.35)">
    <path id="Path_4873" data-name="Path 4873" d="M273.524,48.3a19.8,19.8,0,1,0-13.976-5.8,19.774,19.774,0,0,0,13.976,5.8ZM279.9,43.39a16.132,16.132,0,0,1-12.745,0V34.815a2.7,2.7,0,0,1,2.7-2.7H277.2a2.7,2.7,0,0,1,2.7,2.7Zm-9.518-19.81A3.148,3.148,0,1,1,271.3,25.8a3.146,3.146,0,0,1-.922-2.224Zm3.146-11.235a16.161,16.161,0,0,1,9.968,28.9V34.815a6.278,6.278,0,0,0-5.516-6.212,6.741,6.741,0,1,0-8.9,0,6.278,6.278,0,0,0-5.516,6.212V41.24a16.161,16.161,0,0,1,9.968-28.9Z" transform="translate(-216.446 -8.75)" fill="url(#linear-gradient)"/>
    <path id="Path_4874" data-name="Path 4874" d="M313.44,227.5v30.559h-5.393a1.8,1.8,0,0,0-1.5,2.8l7.19,10.786a1.8,1.8,0,0,0,2.992,0l7.19-10.786a1.8,1.8,0,0,0-1.5-2.8h-5.393V227.5Zm5.628,34.155-3.83,5.752-3.83-5.752Z" transform="translate(-258.16 -182.56)" fill="url(#linear-gradient)"/>
    <path id="Path_4875" data-name="Path 4875" d="M193.428,364.349l-.9-3.48C181.555,363.693,175,368.908,175,374.815c0,9.072,15.792,16.179,35.952,16.179s35.952-7.106,35.952-16.179c0-5.907-6.553-11.122-17.527-13.946l-.9,3.48c9.01,2.318,14.83,6.426,14.83,10.465,0,7.415-17.052,12.583-32.357,12.583S178.6,382.23,178.6,374.815c0-4.039,5.821-8.147,14.83-10.465Z" transform="translate(-153.877 -288.529)" fill="url(#linear-gradient)"/>
    <path id="Path_4876" data-name="Path 4876" d="M158.208,317.62l-.737,3.52c17.7,3.694,29.13,11.274,29.13,19.31,0,11.693-23.872,21.571-52.131,21.571s-52.131-9.878-52.131-21.571c0-8.035,11.432-15.616,29.121-19.308l-.719-3.521c-19.739,4.12-32,12.867-32,22.829,0,14.113,24.478,25.167,55.726,25.167S190.2,354.561,190.2,340.449c0-9.962-12.258-18.71-31.989-22.829Z" transform="translate(-77.394 -254.165)" fill="url(#linear-gradient)"/>
  </g>
</svg>
