<svg id="noun-centralized-1653609" xmlns="http://www.w3.org/2000/svg" xmlns:xlink="http://www.w3.org/1999/xlink" width="115.047" height="115.047" viewBox="0 0 115.047 115.047">
  <defs>
    <linearGradient id="linear-gradient" x1="0.5" x2="0.5" y2="1" gradientUnits="objectBoundingBox">
      <stop offset="0" stop-color="#a504fe"/>
      <stop offset="0.544" stop-color="#5650ec"/>
      <stop offset="1" stop-color="#01a2d7"/>
    </linearGradient>
  </defs>
  <path id="Path_4816" data-name="Path 4816" d="M311.334,227.857a13.482,13.482,0,1,0-13.482,13.482A13.5,13.5,0,0,0,311.334,227.857Zm-13.482,9.887a9.887,9.887,0,1,1,9.887-9.887A9.9,9.9,0,0,1,297.852,237.744Z" transform="translate(-240.329 -170.333)" fill="url(#linear-gradient)"/>
  <path id="Path_4817" data-name="Path 4817" d="M319.722,89.024l4.491,6.284a1.8,1.8,0,0,0,2.925,0l4.491-6.284a1.8,1.8,0,1,0-2.925-2.091l-1.231,1.721V71.793a1.8,1.8,0,1,0-3.6,0V88.656l-1.23-1.722a1.8,1.8,0,0,0-2.925,2.091Z" transform="translate(-268.152 -55.615)" fill="url(#linear-gradient)"/>
  <path id="Path_4818" data-name="Path 4818" d="M329.143,10.786a5.393,5.393,0,1,0-5.393-5.393A5.393,5.393,0,0,0,329.143,10.786Zm0-7.19a1.8,1.8,0,1,1-1.8,1.8A1.8,1.8,0,0,1,329.143,3.6Z" transform="translate(-271.619)" fill="url(#linear-gradient)"/>
  <path id="Path_4819" data-name="Path 4819" d="M331.635,370.159l-4.491-6.284a1.8,1.8,0,0,0-2.925,0l-4.491,6.284a1.8,1.8,0,0,0,2.925,2.091l1.231-1.721v16.863a1.8,1.8,0,0,0,3.6,0V370.529l1.23,1.722a1.8,1.8,0,0,0,2.925-2.091Z" transform="translate(-268.157 -288.523)" fill="url(#linear-gradient)"/>
  <path id="Path_4820" data-name="Path 4820" d="M329.143,507.5a5.393,5.393,0,1,0,5.393,5.393A5.393,5.393,0,0,0,329.143,507.5Zm0,7.19a1.8,1.8,0,1,1,1.8-1.8A1.8,1.8,0,0,1,329.143,514.69Z" transform="translate(-271.619 -403.238)" fill="url(#linear-gradient)"/>
  <path id="Path_4821" data-name="Path 4821" d="M457.393,253.885H440.53l1.722-1.23a1.8,1.8,0,1,0-2.091-2.924l-6.284,4.49a1.8,1.8,0,0,0,0,2.924l6.284,4.49a1.8,1.8,0,1,0,2.091-2.924l-1.722-1.23h16.863a1.8,1.8,0,0,0,0-3.6Z" transform="translate(-358.524 -198.159)" fill="url(#linear-gradient)"/>
  <path id="Path_4822" data-name="Path 4822" d="M582.893,253.75a5.393,5.393,0,1,0,5.393,5.393A5.393,5.393,0,0,0,582.893,253.75Zm0,7.19a1.8,1.8,0,1,1,1.8-1.8A1.8,1.8,0,0,1,582.893,260.94Z" transform="translate(-473.238 -201.619)" fill="url(#linear-gradient)"/>
  <path id="Path_4823" data-name="Path 4823" d="M158.659,257.481l-1.722,1.23a1.8,1.8,0,1,0,2.091,2.924l6.284-4.49a1.8,1.8,0,0,0,0-2.924l-6.284-4.49a1.8,1.8,0,1,0-2.091,2.924l1.721,1.23H141.8a1.8,1.8,0,0,0,0,3.6Z" transform="translate(-125.618 -198.16)" fill="url(#linear-gradient)"/>
  <path id="Path_4824" data-name="Path 4824" d="M75.393,253.75a5.393,5.393,0,1,0,5.393,5.393A5.393,5.393,0,0,0,75.393,253.75Zm0,7.19a1.8,1.8,0,1,1,1.8-1.8A1.8,1.8,0,0,1,75.393,260.94Z" transform="translate(-70 -201.619)" fill="url(#linear-gradient)"/>
  <path id="Path_4825" data-name="Path 4825" d="M417.4,339.574a1.8,1.8,0,0,0-1.478-2.068l-7.619-1.267a1.8,1.8,0,0,0-2.068,2.067l1.268,7.618a1.8,1.8,0,0,0,1.771,1.5,1.8,1.8,0,0,0,1.775-2.093l-.348-2.088,11.924,11.925a1.8,1.8,0,0,0,2.542-2.542l-11.924-11.924,2.089.348a1.8,1.8,0,0,0,2.067-1.478Z" transform="translate(-337.141 -267.142)" fill="url(#linear-gradient)"/>
  <path id="Path_4826" data-name="Path 4826" d="M508.573,433.18a5.393,5.393,0,1,0,3.813,1.579A5.372,5.372,0,0,0,508.573,433.18Zm1.271,6.663a1.8,1.8,0,1,1,.526-1.271A1.79,1.79,0,0,1,509.844,439.843Z" transform="translate(-414.187 -344.187)" fill="url(#linear-gradient)"/>
  <path id="Path_4827" data-name="Path 4827" d="M207.239,145.068a1.8,1.8,0,0,0,1.478,2.068l7.619,1.267a1.736,1.736,0,0,0,.295.025,1.8,1.8,0,0,0,1.774-2.092l-1.268-7.618a1.8,1.8,0,0,0-3.546.59l.347,2.088L202.013,129.47a1.8,1.8,0,1,0-2.542,2.542L211.4,143.937l-2.088-.347a1.794,1.794,0,0,0-2.068,1.478Z" transform="translate(-172.454 -102.453)" fill="url(#linear-gradient)"/>
  <path id="Path_4828" data-name="Path 4828" d="M145.9,75.9a5.394,5.394,0,1,0,3.813-1.579A5.394,5.394,0,0,0,145.9,75.9Zm5.61,3.814a1.8,1.8,0,1,1-.526-1.272A1.79,1.79,0,0,1,151.512,79.714Z" transform="translate(-129.054 -59.052)" fill="url(#linear-gradient)"/>
  <path id="Path_4829" data-name="Path 4829" d="M215.068,347.406a1.78,1.78,0,0,0,.3.025,1.8,1.8,0,0,0,1.771-1.5l1.267-7.619a1.8,1.8,0,0,0-2.067-2.067l-7.618,1.267a1.8,1.8,0,0,0,.59,3.546l2.088-.347-11.925,11.923a1.8,1.8,0,0,0,2.542,2.542l11.925-11.925-.347,2.089a1.8,1.8,0,0,0,1.477,2.068Z" transform="translate(-172.454 -267.144)" fill="url(#linear-gradient)"/>
  <path id="Path_4830" data-name="Path 4830" d="M153.525,434.762a5.393,5.393,0,1,0,0,7.627A5.376,5.376,0,0,0,153.525,434.762Zm-2.542,5.085a1.8,1.8,0,1,1,.526-1.272A1.79,1.79,0,0,1,150.982,439.846Z" transform="translate(-129.05 -344.189)" fill="url(#linear-gradient)"/>
  <path id="Path_4831" data-name="Path 4831" d="M409.58,137.239a1.8,1.8,0,0,0-2.067,1.478l-1.267,7.619a1.8,1.8,0,0,0,1.773,2.092,1.736,1.736,0,0,0,.295-.025l7.618-1.267a1.8,1.8,0,1,0-.59-3.546l-2.089.347,11.925-11.925a1.8,1.8,0,0,0-2.542-2.542L410.711,141.4l.348-2.088a1.8,1.8,0,0,0-1.479-2.068Z" transform="translate(-337.147 -102.454)" fill="url(#linear-gradient)"/>
  <path id="Path_4832" data-name="Path 4832" d="M512.385,83.524a5.394,5.394,0,1,0-3.813,1.579A5.394,5.394,0,0,0,512.385,83.524Zm-5.61-3.813a1.8,1.8,0,1,1,.526,1.271A1.791,1.791,0,0,1,506.774,79.711Z" transform="translate(-414.186 -59.05)" fill="url(#linear-gradient)"/>
</svg>
