<svg id="MicrosoftTeams-image-01" xmlns="http://www.w3.org/2000/svg" width="175.407" height="104.681" viewBox="0 0 175.407 104.681">
  <g id="Group_316" data-name="Group 316" transform="translate(0 0)">
    <path id="Path_788" data-name="Path 788" d="M311.989,349c1.077.209,2.12.417,3.2.626,5.908,1.077,11.087,3.858,16.126,7.02a1.873,1.873,0,0,1,.417.313c4.414,5.352,10.6,6.881,17.065,7.855,5.457.8,10.7,2.224,14.806,6.186a50.445,50.445,0,0,1,5.526,6.881,27.214,27.214,0,0,0,8.341,7.959c.452.243.9.487,1.39.7,4.622,2.016,7.437.174,7.646-4.831a22.728,22.728,0,0,0-1.494-9.87c-1.46-3.441-3.753-5.63-7.785-5.874-4.8-.278-7.368-3.336-8.1-9.036a11.642,11.642,0,0,0-.591-3.058c1.738,1.425,3.51,2.815,5.178,4.31,1.355,1.216,2.676,2.537,3.927,3.858a51.871,51.871,0,0,0,4,4.275c5.7,4.657,6.777,10.913,6.221,17.655-.243,2.919-2.607,4.553-5.6,4.622-5.387.139-9.94-1.39-13.276-6.013a20.076,20.076,0,0,0-13.068-8.445c-.243-.035-.452-.07-.7-.1a6.213,6.213,0,0,0-.7.208c1.008.382,1.738.7,2.468.973,6.221,2.329,10.67,6.43,12.651,12.825a23.583,23.583,0,0,1,.591,5.665,4.621,4.621,0,0,0,1.877,3.893,14,14,0,0,1,5.178,7.4A23.2,23.2,0,0,0,383.305,415c-.07.209-.174.417-.243.591-3.545-.7-7.194-1.008-10.6-2.155-2.537-.869-4.622-3.024-7.125-4.205a18.645,18.645,0,0,0-7.194-2.12c-9.592-.243-13.9-9.488-10.5-17.829a18.157,18.157,0,0,0,.973-2.468c-4.136,4.8-5.213,10.009-1.668,15.952-5.283-2.815-5.387-10.392-1.46-16.057-2.607.973-3.858,4.275-4.483,11.678-2.12-.556-2.363-.973-2.294-3.024a12.936,12.936,0,0,1,3.163-7.82c-2.711,1.147-4.344,4.066-5.074,8.2h-11.99c1.494-5.561,1.634-10.6-.73-15.084,0,2.224.174,4.761-.07,7.264a51.208,51.208,0,0,1-1.39,6.395c-.348,1.39-1.147,1.912-2.537,1.286-.626-.278-1.251-.521-2.155-.869,3.336-6.464,3.754-12.824-.417-19.046.139.556.243,1.077.417,1.633,2.433,7.82.834,14.493-5.561,19.81-1.251,1.043-2.363,2.224-3.545,3.336-.417.382-.834.938-1.355,1.077-3.093.765-4.518,3.371-6.464,5.491-.973,1.077-.66,2.016-.035,2.989,1.077,1.633,2.259,3.2,3.614,5.074-2.641.382-4.97.765-7.264.973-.487.035-1.251-.626-1.564-1.147-2.12-3.371-2.572-6.916-.626-10.5,1.216-2.224,2.294-4.449,1.981-7.055a7.51,7.51,0,0,0-1.251-3.128c1.425,3.823-.556,6.847-1.981,10.044a44.806,44.806,0,0,0-1.7,5.735c-.869-.9-.834-2.294-.382-3.719.452-1.494,1.043-2.919,1.634-4.379a11.211,11.211,0,0,0-1.738-11.747,6.531,6.531,0,0,1-1.633-4.032,13.394,13.394,0,0,0-1.112-4.066c-.73,2.016,1.564,5.039-2.468,6.117.417-2.954,1.147-5.63-.487-8.167.834,3.58-1.147,6.673-1.494,10.044a21.467,21.467,0,0,0,.452,5.144c.348,2.572-.487,4.1-2.885,5.039a10.724,10.724,0,0,1-1.494.487c-4.275.973-3.962.313-5.213-2.537a30.887,30.887,0,0,0-3.754-5.6,19.784,19.784,0,0,0-3.024-3.128,8.561,8.561,0,0,1-3.093-6.881,2.041,2.041,0,0,0-1.946-2.363,49.718,49.718,0,0,0-5.978-.938,18.021,18.021,0,0,1-13.763-6.6v-.7a7.483,7.483,0,0,1,1.773.139,13.138,13.138,0,0,1,1.772,1.043c5.248,3.058,10.6,4.136,16.23.834a6.772,6.772,0,0,1,3.615-1.008c2.815.174,5.456.139,8.063-1.182.765-.382,1.946-.069,2.885.07,1.077.174,2.12.521,3.2.765,5.422,1.112,10.461.7,14.736-3.336a7.352,7.352,0,0,1,1.216-.8c.174.1.313.209.487.313-.556,1.494-1.147,2.989-1.7,4.449,2.746-1.842,3.475-4.657,1.7-6.986-.591.521-1.251.973-1.807,1.529a11.71,11.71,0,0,1-10.6,3.476c-2.4-.382-4.8-.73-7.16-1.286-2.294-.521-4.449-.556-6.395,1.043a9.49,9.49,0,0,1-1.668.869c-.139-.174-.243-.382-.382-.556,1.008-.9,1.877-2.259,3.024-2.572,4.9-1.425,8.028-4.622,10.843-8.758,3.441-5.039,8.967-7.507,14.771-9.071,3.058-.834,6.186-1.251,9.314-1.877C309.208,349,310.6,349,311.989,349Z" transform="translate(-243.8 -349)" fill="#10044a"/>
    <path id="Path_790" data-name="Path 790" d="M605,608.031q.052-1.564.1-3.128c.035-.765-.243-1.633.973-1.911.208-.035.382-.765.417-1.182.035-3.371.035-6.708-.035-10.079,0-.417-.487-.834-.765-1.251-.209-.313-.521-.591-.556-.9-.069-1.182-.035-2.4-.035-3.858,2.676,0,5.178-.035,7.716.035.278,0,.834.487.8.66-.278,1.425,1.077,3.093-.9,4.344-.521.313-.243,1.877-.348,3.058a19.24,19.24,0,0,0,2.885-.035c.626-.1,1.738-.452,1.772-.73.035-.869.487-1.773-.626-2.746-.765-.7-.486-2.607-.486-3.962,0-.243,1.077-.591,1.668-.626,2.19-.07,4.344-.035,6.743-.035v3.858c0,.243,0,.626-.1.66-2.19.765-1.112,2.572-1.217,3.927a53.669,53.669,0,0,0-.035,6.256c.035,1.112-.556,2.5,1.147,3.024.174.035.174.73.174,1.112.07,1.147.07,2.294.1,3.475H615.7c0-1.216,0-2.433.07-3.649a1.746,1.746,0,0,1,.486-1.147c1.564-.869.7-2.294.7-3.406,0-.243-1.286-.487-1.981-.73a1.186,1.186,0,0,0-.7,0c-.625.209-1.807.452-1.807.7a14.173,14.173,0,0,0,.521,3.371c.1.487.591.938.626,1.39.07,1.147,0,2.294,0,3.475C610.8,608.031,607.885,608.031,605,608.031Z" transform="translate(-479.466 -503.419)" fill="#10044a"/>
    <path id="Path_791" data-name="Path 791" d="M438.837,608.1c-.035-1.147-.035-2.328-.069-3.475,0-.243-.07-.556.069-.66,2.224-2.155.8-4.866,1.112-7.3a25.544,25.544,0,0,0,.035-4,3.613,3.613,0,0,0-.765-2.363c-.7-.869-.382-2.641-.209-3.962.035-.278,1.355-.521,2.12-.521,3.2-.069,6.36-.035,9.558-.035a5.506,5.506,0,0,1,5.317,5.318c-.035,1.842.626,3.892-1.564,5.352,1.842,1.043,1.529,2.676,1.564,4.24.035,1.008-.348,2.155,1.043,2.815.382.174.243,1.494.278,2.294.035.765-.035,1.495-.035,2.259h-7.3c.035-2.537.07-5.04.1-7.577a1.393,1.393,0,0,0-1.564-1.6h-2.572c.139,1.564-.174,3.58.487,4,1.251.8.9,1.668,1.008,2.607.07.869.1,1.7.139,2.572C444.641,608.1,441.722,608.1,438.837,608.1Zm7.264-13.763a19.624,19.624,0,0,0,3.684-.938c.313-.139.313-1.877.069-2.016a20.929,20.929,0,0,0-3.753-1.043Z" transform="translate(-370.996 -503.485)" fill="#10044a"/>
    <path id="Path_792" data-name="Path 792" d="M309,608.178c.035-.8.07-1.634.1-2.433.035-1.077-.348-2.329,1.251-2.746.243-.069.382-.66.556-1.043,1.321-3.267,2.641-6.534,3.927-9.8a1.7,1.7,0,0,0-.139-1.7c-.591-1.077-.243-2.676-.174-4.031,0-.174.73-.487,1.147-.487,3.024-.035,6.013,0,9.036-.035,1.077,0,1.529.487,1.39,1.46-.174,1.216.7,2.676-.8,3.615-.1.069.139.73.278,1.112,1.321,3.336,2.641,6.673,3.962,9.974.07.174.1.382.243.452,2.329,1.39,1.286,3.684,1.529,5.665h-8.341c.174-1.738.417-3.476.487-5.213a1.387,1.387,0,0,0-.834-.973,34.714,34.714,0,0,0-4.657,0,1.468,1.468,0,0,0-.869,1.077c0,1.7.174,3.406.313,5.074C314.561,608.178,311.78,608.178,309,608.178Zm11.4-13.693h-.452c-.382,1.077-.8,2.12-1.251,3.3h2.989C321.234,596.57,320.817,595.527,320.4,594.485Z" transform="translate(-286.34 -503.566)" fill="#10044a"/>
    <path id="Path_793" data-name="Path 793" d="M381.971,608.173c-.07-.1-.07-.243-.174-.313-3.093-2.051-3.58-5.039-3.267-8.445a59.76,59.76,0,0,0,.035-6.6c-.035-.869.278-1.668-1.008-2.4-.626-.348-.348-2.572-.243-3.893.035-.278,1.216-.556,1.842-.591,1.668-.07,3.371,0,5.039-.035,1.077-.035,1.738.278,1.494,1.46-.243,1.251.8,2.919-1.147,3.719-.174.069-.174.765-.174,1.147,0,3.024-.035,6.013,0,9.036.035,1.807.521,2.085,2.746,2.12,1.633.035,2.329-.591,2.259-2.259-.07-2.607,0-5.213-.035-7.82-.035-1.043.209-2.016-.938-2.989-.66-.591-.313-2.537-.1-3.788.035-.313,1.355-.521,2.085-.556,1.668-.07,3.371,0,5.039-.035.938-.035,1.39.347,1.321,1.321-.07.8,0,1.633-.035,2.433,0,.278-.07.765-.174.8-1.877.487-1.112,2.016-1.147,3.093-.1,2.885-.1,5.8,0,8.689a4.251,4.251,0,0,1-1.6,3.927,14.675,14.675,0,0,0-1.807,2.05C388.679,608.173,385.343,608.173,381.971,608.173Z" transform="translate(-330.813 -503.561)" fill="#10044a"/>
    <path id="Path_794" data-name="Path 794" d="M500.516,608.027c-.139-.243-.243-.556-.452-.7-2.78-1.807-3.163-4.449-2.954-7.507s.035-6.117.035-9.175c0-2.12,2.746-4.866,4.9-4.9,1.807,0,3.615.139,5.387-.035a5.729,5.729,0,0,1,5.422,2.224,3.935,3.935,0,0,1,1.182,2.885c-.069,3.754-.1,7.507,0,11.261a4.6,4.6,0,0,1-1.668,4.066,13.063,13.063,0,0,0-1.738,1.912C507.224,608.027,503.887,608.027,500.516,608.027Zm2.641-11.191c0,1.39.069,2.78-.035,4.171-.1,1.738.73,2.224,2.294,2.189,2.224-.035,2.711-.313,2.711-2.155.035-2.433,0-4.866,0-7.3,0-3.2-.174-3.336-3.336-3.232-1.286.035-1.738.591-1.7,1.807C503.192,593.847,503.157,595.342,503.157,596.836Z" transform="translate(-409.042 -503.415)" fill="#10044a"/>
    <path id="Path_795" data-name="Path 795" d="M669.225,608.162a13.226,13.226,0,0,0-1.807-1.877c-1.772-1.216-1.807-2.954-1.6-4.761a1.472,1.472,0,0,1,1.043-.973c1.494-.1,2.989-.035,4.414-.035.7,2.78.8,2.815,3.163,2.85,1.494,0,2.259-.487,2.224-2.12s-.938-1.911-2.259-1.842a11.7,11.7,0,0,0-1.911.035c-2.815.626-4.588-.973-6.152-2.885a3.381,3.381,0,0,1-.556-1.564c-.1-.8.1-1.633-.035-2.433-.626-2.85,1.043-4.553,2.954-6.117a3.293,3.293,0,0,1,1.738-.521c2.329-.07,4.622-.035,6.951-.035a5.794,5.794,0,0,1,5.248,5.283v2.224H676.8a5.718,5.718,0,0,1-.139-1.077c0-1.077-.487-1.6-1.564-1.6h-1.738c-1.286-.035-1.7.66-1.738,1.842-.035,1.216.348,2.051,1.668,2.12a18.565,18.565,0,0,0,2.78,0,5.538,5.538,0,0,1,5.283,2.155,5.345,5.345,0,0,1,1.39,3.336c.243,2.954-.243,5.457-2.85,7.229-.243.174-.348.556-.556.834C675.932,608.162,672.6,608.162,669.225,608.162Z" transform="translate(-519.015 -503.55)" fill="#10044a"/>
    <path id="Path_796" data-name="Path 796" d="M554.519,608.129c-.139-.243-.243-.556-.452-.7-2.746-1.842-3.163-4.483-2.954-7.542.208-3.128.035-6.256.035-9.384,0-1.772,2.85-4.657,4.588-4.657q3.91-.052,7.82,0c1.6.035,4.379,2.85,4.414,4.414.035,1.216,0,2.4,0,3.719h-5.63a4.943,4.943,0,0,1-.174-1.251c.07-1.529-.591-2.19-2.19-2.155-2.85.069-2.85,0-2.885,2.919,0,2.537.07,5.109-.035,7.646-.035,1.633.73,2.12,2.224,2.12,2.294,0,2.676-.243,2.85-2.051.035-.382.1-.8.139-1.286h5.491c.278,2.4.73,4.8-1.738,6.5a8.661,8.661,0,0,0-1.495,1.668C561.227,608.129,557.891,608.129,554.519,608.129Z" transform="translate(-444.278 -503.517)" fill="#10044a"/>
    <path id="Path_800" data-name="Path 800" d="M283,553.461c5.352-1.807,10.6-3.823,16.022-5.387a184.114,184.114,0,0,1,30.063-5.665,292.253,292.253,0,0,1,40.524-1.946c20.331.487,40.489,2.294,60.126,7.924,5.074,1.46,10.044,3.406,15.049,5.144-.035.174-.1.313-.139.487-3.475-.8-6.881-1.807-10.392-2.4-8.862-1.495-17.76-2.989-26.657-4.1a330.958,330.958,0,0,0-46.954-2.259c-11.747.209-23.494.73-35.172,1.668a220.62,220.62,0,0,0-42.262,7.159A6.548,6.548,0,0,0,283,553.461Z" transform="translate(-269.376 -473.872)" fill="#10044a"/>
    <path id="Path_801" data-name="Path 801" d="M564.689,521.982a60.161,60.161,0,0,1-6.221-.487c-.556-.1-1.147-1.182-1.321-1.912a2.454,2.454,0,0,0-1.738-1.877,20.356,20.356,0,0,1-4.31-2.607,19.039,19.039,0,0,0,9.071,2.224C564.1,517.533,565.419,519.2,564.689,521.982Z" transform="translate(-444.299 -457.372)" fill="#10044a"/>
  </g>
</svg>
