<svg xmlns="http://www.w3.org/2000/svg" width="315" height="66" viewBox="0 0 315 66">
  <g id="CaptivateIQ-01" transform="translate(-0.433 -0.461)">
    <g id="logo-001" transform="translate(8.902 6.808)">
      <path id="Shape" d="M32.5,99.982a19.557,19.557,0,0,1,2.147-9.25,16.386,16.386,0,0,1,6.112-6.442,17.875,17.875,0,0,1,18.666.661,15.573,15.573,0,0,1,5.947,8.424H57.443a7.469,7.469,0,0,0-3.3-3.8,9.955,9.955,0,0,0-4.79-1.321,9.558,9.558,0,0,0-8.755,5.451,16.29,16.29,0,0,0-1.321,6.112,13.174,13.174,0,0,0,1.321,6.112,9.745,9.745,0,0,0,3.634,4.13,10.247,10.247,0,0,0,5.286,1.487,8.422,8.422,0,0,0,4.79-1.321,9.081,9.081,0,0,0,3.3-3.8h7.764a15.573,15.573,0,0,1-5.947,8.424,16.639,16.639,0,0,1-9.911,2.973,17.768,17.768,0,0,1-8.755-2.313,16.386,16.386,0,0,1-6.112-6.442A21.008,21.008,0,0,1,32.5,99.982Zm37,3.634a17.518,17.518,0,0,1,1.652-7.6A14.279,14.279,0,0,1,75.448,90.9a11.632,11.632,0,0,1,6.277-1.817,10.724,10.724,0,0,1,8.755,4.46V89.575h6.773v28.081H90.48v-4.13a11.617,11.617,0,0,1-3.634,3.3,11.919,11.919,0,0,1-5.286,1.321,11.5,11.5,0,0,1-6.112-1.817,13.409,13.409,0,0,1-4.46-5.121A20.084,20.084,0,0,1,69.5,103.616Zm21.144,0a10.9,10.9,0,0,0-.991-4.46,6.8,6.8,0,0,0-6.112-3.8,6.5,6.5,0,0,0-3.469.991,7.208,7.208,0,0,0-2.643,2.808,9.637,9.637,0,0,0-.991,4.295,10.347,10.347,0,0,0,.991,4.46,9.052,9.052,0,0,0,2.643,2.973,6.5,6.5,0,0,0,3.469.991,6.107,6.107,0,0,0,3.469-.991,7.208,7.208,0,0,0,2.643-2.808A9.835,9.835,0,0,0,90.645,103.616ZM110.8,93.705a9.481,9.481,0,0,1,3.634-3.139,11.919,11.919,0,0,1,5.286-1.321,11.5,11.5,0,0,1,6.112,1.817,11.254,11.254,0,0,1,4.46,5.121,18.3,18.3,0,0,1,0,15.2,12.159,12.159,0,0,1-4.46,5.121,11.5,11.5,0,0,1-6.112,1.817A10.067,10.067,0,0,1,114.432,117a11.126,11.126,0,0,1-3.634-3.139V131.2h-6.773V89.575H110.8ZM125,103.616a9.638,9.638,0,0,0-.991-4.295,7.208,7.208,0,0,0-2.643-2.808,6.566,6.566,0,0,0-6.938,0,6.814,6.814,0,0,0-2.478,2.808,10.162,10.162,0,0,0,0,8.755,9.052,9.052,0,0,0,2.643,2.973,6.566,6.566,0,0,0,6.938,0,6.664,6.664,0,0,0,2.643-2.973,14.163,14.163,0,0,0,.826-4.46Zm19.657-8.094v13.545a2.884,2.884,0,0,0,.661,1.982,3.633,3.633,0,0,0,2.147.661h3.139v5.947h-4.295c-5.781,0-8.59-2.973-8.59-8.755V95.357h-3.139V89.575h3.139V82.638H144.5v6.938h5.947v5.782Zm14.206-9.25a3.817,3.817,0,0,1-4.13-3.8v-.33a3.981,3.981,0,0,1,1.156-2.973,3.446,3.446,0,0,1,2.973-1.156,4.09,4.09,0,0,1,4.13,4.13h0a3.961,3.961,0,0,1-4.13,4.13Zm3.3,3.3v28.081H155.4V89.575Zm17.84,21.474,6.773-21.474h7.268l-9.911,28.081h-8.259L165.97,89.575h7.268Zm16.023-7.6a17.518,17.518,0,0,1,1.652-7.6,13.229,13.229,0,0,1,4.46-5.121,11.632,11.632,0,0,1,6.277-1.817,10.067,10.067,0,0,1,5.286,1.321,11.126,11.126,0,0,1,3.634,3.139v-3.8h6.773v28.081h-6.773v-4.13a11.617,11.617,0,0,1-3.634,3.3,11.919,11.919,0,0,1-5.286,1.321,11.5,11.5,0,0,1-6.112-1.817,13.409,13.409,0,0,1-4.46-5.121,17.868,17.868,0,0,1-1.817-7.764Zm21.144.165a10.9,10.9,0,0,0-.991-4.46,7.207,7.207,0,0,0-2.643-2.808,6.566,6.566,0,0,0-6.938,0,7.208,7.208,0,0,0-2.643,2.808,9.638,9.638,0,0,0-.991,4.295,10.347,10.347,0,0,0,.991,4.46,9.051,9.051,0,0,0,2.643,2.973,6.5,6.5,0,0,0,3.469.991,6.107,6.107,0,0,0,3.469-.991,7.208,7.208,0,0,0,2.643-2.808,10.347,10.347,0,0,0,.991-4.46Zm21.309-8.259V108.9a2.884,2.884,0,0,0,.661,1.982,3.792,3.792,0,0,0,2.313.661H244.6v6.112H240.3c-5.616,0-8.59-2.973-8.59-8.755V95.357h-3.139V89.575h3.139V82.638h6.773v6.938h5.947v5.782Zm35.68,7.6a16.026,16.026,0,0,1-.165,2.808H254.509a7.358,7.358,0,0,0,1.982,4.79,6.236,6.236,0,0,0,4.46,1.652,5.362,5.362,0,0,0,5.286-3.469h7.268a13.148,13.148,0,0,1-4.46,6.607,13.911,13.911,0,0,1-15.032.826,13.039,13.039,0,0,1-4.79-5.121,18.3,18.3,0,0,1,0-15.2,11.9,11.9,0,0,1,4.79-5.121,14.99,14.99,0,0,1,6.938-1.817,13.706,13.706,0,0,1,6.773,1.652,11.2,11.2,0,0,1,4.625,4.956,12.176,12.176,0,0,1,1.817,7.433Zm-6.938-2.147a5.369,5.369,0,0,0-1.817-4.13,6.236,6.236,0,0,0-4.46-1.652,5.85,5.85,0,0,0-4.295,1.652,7.58,7.58,0,0,0-2.147,4.46Z" transform="translate(-32.5 -77.981)" fill="#10044a"/>
      <path id="Shape-2" d="M190.916,80.652v35.68H181.5V80.652Zm28.742,41.627-3.8-5.947a22.385,22.385,0,0,1-3.3.33,17.768,17.768,0,0,1-8.755-2.313,19.439,19.439,0,0,1-6.442-25.439A17.585,17.585,0,0,1,221.31,82.3h0a16.109,16.109,0,0,1,6.277,6.607,18.514,18.514,0,0,1,2.313,9.416,19.2,19.2,0,0,1-1.652,8.094,16.692,16.692,0,0,1-4.625,6.112l7.268,9.581ZM204.791,98.327a10.42,10.42,0,0,0,1.982,6.607,7.748,7.748,0,0,0,5.782,2.478,6.668,6.668,0,0,0,5.616-2.478,11.418,11.418,0,0,0,0-13.215,6.871,6.871,0,0,0-5.616-2.478,7.193,7.193,0,0,0-5.782,2.478,10.727,10.727,0,0,0-1.982,6.607Z" transform="translate(64.626 -76.656)" fill="#10044a"/>
    </g>
    <rect id="Rectangle_197" data-name="Rectangle 197" width="315" height="66" transform="translate(0.433 0.461)" fill="none"/>
  </g>
</svg>
