<svg id="_62823a6b49a6075fb58e766e_627cf7e76400cbcd9c7d9259_627baf3f696b0c41494392e5_Everstage-logo-white-01" data-name="62823a6b49a6075fb58e766e_627cf7e76400cbcd9c7d9259_627baf3f696b0c41494392e5_Everstage-logo-white-01" xmlns="http://www.w3.org/2000/svg" width="277.403" height="49.089" viewBox="0 0 277.403 49.089">
  <path id="Path_776" data-name="Path 776" d="M24.531,0a24.374,24.374,0,0,0-13.6,4.149,23.973,23.973,0,0,0-9.055,11.01A24.509,24.509,0,0,0,19.744,48.627a24.746,24.746,0,0,0,14.2-1.4A24.567,24.567,0,0,0,41.923,7.18,24.673,24.673,0,0,0,24.531,0ZM36.777,32.671a14.779,14.779,0,0,1-5.266,4.787,14.466,14.466,0,0,1-6.941,1.755h-.04a14.709,14.709,0,0,1-14.68-14.68v-.04a14.856,14.856,0,0,1,1.715-6.9,15.388,15.388,0,0,1,4.787-5.226c.08-.04.12-.08.2-.08h.239A22.943,22.943,0,0,1,20.741,13.6a.36.36,0,0,1,.239.239,1.165,1.165,0,0,1,.08.359.453.453,0,0,1-.12.319.716.716,0,0,1-.279.2,10.529,10.529,0,0,0-6.7,9.813v.04A10.555,10.555,0,0,0,24.531,35.1h.04a10.529,10.529,0,0,0,9.813-6.7.716.716,0,0,1,.2-.279A.453.453,0,0,1,34.9,28a1.165,1.165,0,0,1,.359.08.466.466,0,0,1,.239.239c.279.678.558,1.4.8,2.114.2.6.359,1.2.519,1.835v.239C36.857,32.551,36.817,32.631,36.777,32.671Zm2.433-8.138v.439a.453.453,0,0,1-.12.319.492.492,0,0,1-.319.16.593.593,0,0,1-.359-.08.422.422,0,0,1-.239-.279,31.029,31.029,0,0,0-2.992-4.907c-.04,0-.08-.12-.08-.239V18.629c0-1.2,0-1.955-.04-2.513a3.1,3.1,0,0,0-.08-.638,2.151,2.151,0,0,0-1.356-1.356,3.491,3.491,0,0,0-.638-.08C32.429,14,31.671,14,30.474,14H29.118a.453.453,0,0,1-.319-.12l-.239-.16a31.347,31.347,0,0,0-4.707-2.832.536.536,0,0,1-.279-.239,1.165,1.165,0,0,1-.08-.359.492.492,0,0,1,.16-.319.453.453,0,0,1,.319-.12h6.462a15.252,15.252,0,0,1,4.468.319,6.215,6.215,0,0,1,3.989,3.989,15.252,15.252,0,0,1,.319,4.468Z" transform="translate(0.004)" fill="#10044a"/>
  <path id="Path_777" data-name="Path 777" d="M656.579,10.1a.453.453,0,0,0-.319.12.492.492,0,0,0-.16.319.43.43,0,0,0,.08.319.422.422,0,0,0,.279.239,30.723,30.723,0,0,1,4.667,2.792l.239.16a.453.453,0,0,0,.319.12h1.356c1.2,0,1.955,0,2.513.04a3.1,3.1,0,0,1,.638.08,2.151,2.151,0,0,1,1.356,1.356,3.489,3.489,0,0,1,.08.638c.04.558.04,1.316.04,2.513v1.316a.644.644,0,0,0,.12.359,35.344,35.344,0,0,1,2.992,4.867.536.536,0,0,0,.239.279.472.472,0,0,0,.319.04.492.492,0,0,0,.319-.16.453.453,0,0,0,.12-.319V18.8a14.791,14.791,0,0,0-.319-4.428,6.335,6.335,0,0,0-3.949-3.949,15.088,15.088,0,0,0-4.428-.319h-6.5Z" transform="translate(-394.374 -6.071)" fill="#10044a" fill-rule="evenodd"/>
  <path id="Path_778" data-name="Path 778" d="M229.994,32.94h2.633a.24.24,0,0,1,.16.04l.12.12c.04.04.04.08.04.16v.16l-7.978,21.94a.55.55,0,0,1-.12.16.3.3,0,0,1-.2.04h-3.191c-.08,0-.12-.04-.2-.08a.551.551,0,0,1-.12-.16L213.2,33.379v-.16a.3.3,0,0,1,.08-.16l.12-.12a.147.147,0,0,1,.12-.04h2.713a.36.36,0,0,1,.2.04c.04.04.12.08.12.16l6.582,18.868,6.5-18.868a.55.55,0,0,1,.12-.16c.08.04.16,0,.239,0Z" transform="translate(-128.151 -19.776)" fill="#10044a"/>
  <path id="Path_779" data-name="Path 779" d="M350.309,31a6.7,6.7,0,0,1,1.995.279.552.552,0,0,1,.16.12.305.305,0,0,1,.08.2v2.274a.24.24,0,0,1-.04.16l-.12.12c-.04.04-.08.04-.16.04h-.16a5.487,5.487,0,0,0-1.8-.319,7.088,7.088,0,0,0-3.869,1.157,8.559,8.559,0,0,0-2.912,3.391,11.646,11.646,0,0,0-1.077,5.186V54.1a.567.567,0,0,1-.08.239.293.293,0,0,1-.239.08h-2.633a.567.567,0,0,1-.239-.08c-.08-.08-.08-.16-.12-.239V32.157a.345.345,0,0,1,.12-.239c.04-.04.08-.04.12-.08.04,0,.08-.04.12-.04h2.633a.147.147,0,0,1,.12.04c.04,0,.08.04.12.08s.04.08.08.12c0,.04.04.08.04.12v4.189a10.475,10.475,0,0,1,3.311-3.909A7.7,7.7,0,0,1,350.309,31Z" transform="translate(-203.828 -18.634)" fill="#10044a"/>
  <path id="Path_780" data-name="Path 780" d="M388.554,55.174a11.85,11.85,0,0,1-5.824-1.4,8.843,8.843,0,0,1-3.59-3.67.146.146,0,0,1-.04-.12v-.12c0-.04.04-.08.08-.12s.08-.08.12-.08l2.354-1.157c.04,0,.08-.04.12-.04a.147.147,0,0,1,.12.04c.04,0,.08.04.12.08s.04.08.08.12c1.237,2.354,3.51,3.51,6.861,3.51A8.769,8.769,0,0,0,393.1,51.3a2.98,2.98,0,0,0,1.237-1.2,3.067,3.067,0,0,0,.4-1.675,3.351,3.351,0,0,0-1.356-2.952,9.768,9.768,0,0,0-4.627-1.277c-3.111-.279-5.345-.957-6.662-2.074a5.916,5.916,0,0,1-1.516-2.034,5.373,5.373,0,0,1-.479-2.473,5.862,5.862,0,0,1,2.274-4.907c1.516-1.2,3.59-1.715,6.263-1.715,4.348,0,7.38,1.675,9.015,5.026,0,.04.04.08.04.12v.12c0,.04-.04.08-.08.12s-.08.08-.12.08l-2.314,1.157c-.04,0-.08.04-.12.04a.567.567,0,0,1-.239-.08c-.04-.04-.04-.08-.08-.12a5.654,5.654,0,0,0-2.274-2.553,7.494,7.494,0,0,0-4.029-.917,7.019,7.019,0,0,0-3.869.917,2.978,2.978,0,0,0-1,1.117,3.139,3.139,0,0,0,1.077,4.069,11.186,11.186,0,0,0,4.946,1.277c2.872.279,4.986.957,6.383,2.114a5.212,5.212,0,0,1,1.6,1.995,5.472,5.472,0,0,1,.519,2.513,6.021,6.021,0,0,1-1.316,3.909,7.877,7.877,0,0,1-3.471,2.433,13.676,13.676,0,0,1-4.747.838Z" transform="translate(-227.872 -18.634)" fill="#10044a"/>
  <path id="Path_781" data-name="Path 781" d="M438.609,43.9V24.631h-3.55a.567.567,0,0,1-.239-.08c-.04-.04-.04-.08-.08-.12,0-.04-.04-.08-.04-.12V22a.147.147,0,0,1,.04-.12c0-.04.04-.08.08-.12s.08-.04.12-.08c.04,0,.08-.04.12-.04h3.55v-7.18a.567.567,0,0,1,.08-.239c.08-.08.16-.08.239-.12h2.633a.147.147,0,0,1,.12.04c.04.04.08.04.12.08s.04.08.08.12c0,.04.04.08.04.12v7.18h4.867a.567.567,0,0,1,.239.08.293.293,0,0,1,.08.239v2.314a.147.147,0,0,1-.04.12c0,.04-.04.08-.08.12s-.08.04-.12.08c-.04,0-.08.04-.12.04h-4.907V43.9a.147.147,0,0,1-.04.12c0,.04-.04.08-.08.12a.293.293,0,0,1-.239.08h-2.633a.567.567,0,0,1-.239-.08c.04-.04,0-.12,0-.239Z" transform="translate(-261.293 -8.475)" fill="#10044a"/>
  <path id="Path_782" data-name="Path 782" d="M492.944,32.174v3.072a9.435,9.435,0,0,0-3.471-3.032,9.32,9.32,0,0,0-4.508-1.117,11.1,11.1,0,0,0-5.824,1.556,10.554,10.554,0,0,0-3.949,4.308,13.253,13.253,0,0,0-1.4,6.183,13.286,13.286,0,0,0,1.436,6.3,10.746,10.746,0,0,0,4.029,4.308,10.957,10.957,0,0,0,5.784,1.556,9.711,9.711,0,0,0,4.468-1.077,10.884,10.884,0,0,0,3.431-3.032v2.992a.147.147,0,0,0,.04.12c0,.04.04.08.08.12s.08.04.12.08c.04,0,.08.04.12.04h2.633a.147.147,0,0,0,.12-.04c.04,0,.08-.04.12-.08s.04-.08.08-.12c0-.04.04-.08.04-.12V32.254a.147.147,0,0,0-.04-.12c0-.04-.04-.08-.08-.12s-.08-.04-.12-.08c-.04,0-.08-.04-.12-.04H493.3a.146.146,0,0,0-.12.04c-.04,0-.08.04-.12.08s-.04.08-.08.12c-.04-.04-.04,0-.04.04Zm-1.037,15.677a7.921,7.921,0,0,1-2.832,3.231,7.22,7.22,0,0,1-4.109,1.157,7.411,7.411,0,0,1-4.069-1.157,7.826,7.826,0,0,1-2.792-3.231,10.306,10.306,0,0,1-1.037-4.747,10.292,10.292,0,0,1,1-4.627,7.826,7.826,0,0,1,2.792-3.231,7.01,7.01,0,0,1,4.069-1.157,7.135,7.135,0,0,1,4.109,1.157,7.643,7.643,0,0,1,2.832,3.231,10.63,10.63,0,0,1,1,4.707,10.015,10.015,0,0,1-.957,4.667Z" transform="translate(-284.792 -18.691)" fill="#10044a"/>
  <path id="Path_783" data-name="Path 783" d="M563.344,32.114v3.032a9.435,9.435,0,0,0-3.47-3.032A9.32,9.32,0,0,0,555.366,31a10.86,10.86,0,0,0-5.784,1.556,10.65,10.65,0,0,0-3.989,4.308,13.255,13.255,0,0,0-1.4,6.183,13.777,13.777,0,0,0,1.436,6.3,10.712,10.712,0,0,0,9.813,5.864,9.711,9.711,0,0,0,4.468-1.077,10.883,10.883,0,0,0,3.431-3.032v2.473A8.008,8.008,0,0,1,561.469,59a6.079,6.079,0,0,1-2.154,1.6,5.976,5.976,0,0,1-2.633.519h-9.055a.147.147,0,0,0-.12.04c-.04,0-.08.04-.12.08s-.04.08-.08.12c0,.04-.04.08-.04.12v2.314a.147.147,0,0,0,.04.12c0,.04.04.08.08.12a.293.293,0,0,0,.239.08h9.055a9.8,9.8,0,0,0,5.186-1.356,8.84,8.84,0,0,0,3.51-3.75,11.206,11.206,0,0,0,1.277-5.425V32.114a.345.345,0,0,0-.12-.239.293.293,0,0,0-.239-.08h-2.633a.567.567,0,0,0-.239.08.428.428,0,0,0-.08.239Zm-1,15.677a7.5,7.5,0,0,1-2.872,3.231,7.759,7.759,0,0,1-4.069,1.157,7.656,7.656,0,0,1-4.069-1.157,7.826,7.826,0,0,1-2.792-3.231,10.8,10.8,0,0,1-1-4.747,10.292,10.292,0,0,1,1-4.627,7.826,7.826,0,0,1,2.792-3.231,7.01,7.01,0,0,1,4.069-1.157,7.22,7.22,0,0,1,4.109,1.157,8.018,8.018,0,0,1,2.872,3.231,10.631,10.631,0,0,1,1,4.707,12.607,12.607,0,0,1-1.037,4.667Z" transform="translate(-327.109 -18.631)" fill="#10044a"/>
  <path id="Path_784" data-name="Path 784" d="M172.444,41.234a10.494,10.494,0,0,0-1.277-3.909,12.54,12.54,0,0,0-1.316-1.915c-.08-.12-.2-.2-.279-.319a1.844,1.844,0,0,0-.279-.279l-.359-.319a8.749,8.749,0,0,0-1.556-1.157,9.488,9.488,0,0,0-4.228-1.4,10.084,10.084,0,0,0-1.117-.04,14.59,14.59,0,0,0-2.274.2,12.058,12.058,0,0,0-5.625,3.191,14.293,14.293,0,0,0-1.037,1.157l-.04.08-.12.12c-.2.279-.4.558-.6.878a11.809,11.809,0,0,0,3.75,16.236,11.835,11.835,0,0,0,5.5,1.8,12.207,12.207,0,0,0,5.7-1.037,8.533,8.533,0,0,0,.878-.4,10.959,10.959,0,0,0,3.71-3.311h0l.12-.16c.04-.08.08-.12.08-.2V50.21c-.2-.838-.439-1.636-.718-2.473a.716.716,0,0,0-.2-.279.431.431,0,0,0-.279-.12.48.48,0,0,0-.319.08.677.677,0,0,0-.239.239,8.808,8.808,0,0,1-4.228,4.109,9.878,9.878,0,0,1-3.869.8h-.359a.778.778,0,0,1-.319-.04l-.239-.04h-.12c-.4-.04-.8-.16-1.2-.239h-.08l-.239-.08-.319-.12-.08-.04-.319-.12a8.017,8.017,0,0,1-2.154-1.316l-.04-.04-.279-.239a.039.039,0,0,1-.04-.04l-.239-.239-.12-.16-.04-.04a7,7,0,0,1-.957-1.2,8.937,8.937,0,0,1-1.436-3.949c.12-.16.439-.439,1.436-.359h16.794a.751.751,0,0,0,.319-.08.677.677,0,0,0,.239-.239.43.43,0,0,0,.08-.319v-.8a11.51,11.51,0,0,0-.08-1.636Zm-3.471-.4a1.392,1.392,0,0,1-.479.6,1.157,1.157,0,0,1-.718.2l-13.523-.04a.219.219,0,0,1-.2-.12c-.16-.16-.12-.439,0-.718A7.1,7.1,0,0,1,154.892,39a9.69,9.69,0,0,1,.957-1.277l.08-.08.04-.04c.04-.04.08-.12.12-.16a2.182,2.182,0,0,1,.439-.4l.04-.04.12-.12.2-.16.04-.04.2-.16.08-.08.12-.08a9.832,9.832,0,0,1,1.8-1h0a8.6,8.6,0,0,1,2.992-.678,9.272,9.272,0,0,1,2.354.279,6.2,6.2,0,0,1,.918.319,6.052,6.052,0,0,1,1.715,1.117,7.12,7.12,0,0,1,1.915,3.311c0,.08.04.12.04.2a1.41,1.41,0,0,1-.08.917Z" transform="translate(-90.506 -19.175)" fill="#10044a" fill-rule="evenodd"/>
  <path id="Path_785" data-name="Path 785" d="M291.778,41.234a11.2,11.2,0,0,0-1.237-3.909,12.542,12.542,0,0,0-1.316-1.915c-.08-.12-.2-.2-.279-.319a1.843,1.843,0,0,0-.279-.279l-.359-.319a10.075,10.075,0,0,0-5.784-2.553,10.452,10.452,0,0,0-1.117-.04,14.59,14.59,0,0,0-2.274.2,12.411,12.411,0,0,0-5.625,3.191,13.828,13.828,0,0,0-1,1.157l-.04.08-.12.12c-.2.279-.4.558-.6.878a11.813,11.813,0,0,0,9.255,17.991,12.207,12.207,0,0,0,5.7-1.037c.319-.12.6-.279.878-.4a10.96,10.96,0,0,0,3.71-3.311c.04-.04.08-.12.12-.16.04-.08.08-.12.08-.2v-.2c-.2-.838-.439-1.636-.718-2.473a.716.716,0,0,0-.2-.279.453.453,0,0,0-.319-.12.48.48,0,0,0-.319.08.677.677,0,0,0-.239.239,8.808,8.808,0,0,1-4.228,4.109,9.879,9.879,0,0,1-3.869.8h-.359a.777.777,0,0,1-.319-.04l-.239-.04h-.16a6.36,6.36,0,0,1-1.2-.239l-.08-.04-.239-.08-.319-.12-.08-.04-.239-.08a7.444,7.444,0,0,1-2.154-1.316l-.04-.04-.279-.239-.04-.04-.239-.239-.12-.16-.04-.04a7,7,0,0,1-.957-1.2,8.467,8.467,0,0,1-1.436-3.989c.12-.16.479-.439,1.436-.359h16.834a.751.751,0,0,0,.319-.08.465.465,0,0,0,.239-.239.43.43,0,0,0,.08-.319V42.87a12.173,12.173,0,0,0-.2-1.636Zm-3.471-.4a1.392,1.392,0,0,1-.479.6,1.157,1.157,0,0,1-.718.2l-13.523-.04a.219.219,0,0,1-.2-.12c-.16-.16-.12-.439,0-.718A7.1,7.1,0,0,1,274.226,39a7.3,7.3,0,0,1,.957-1.237l.04-.08.04-.04c.04-.04.08-.12.12-.16a4.8,4.8,0,0,1,.439-.4l.04-.04.12-.12.2-.16.08-.04.2-.16.12-.08c.04-.04.08-.04.12-.08a9.832,9.832,0,0,1,1.8-1h0a8.383,8.383,0,0,1,2.952-.678,8.236,8.236,0,0,1,2.393.319,6.2,6.2,0,0,1,.917.319,6.052,6.052,0,0,1,1.715,1.117,7.12,7.12,0,0,1,1.915,3.311c0,.08.04.12.04.2a1.946,1.946,0,0,1-.12.838Z" transform="translate(-162.29 -19.175)" fill="#10044a" fill-rule="evenodd"/>
  <path id="Path_786" data-name="Path 786" d="M636.406,41.234a10.493,10.493,0,0,0-1.277-3.909,12.531,12.531,0,0,0-1.316-1.915c-.08-.12-.2-.2-.279-.319a1.843,1.843,0,0,0-.279-.279c-.08-.08-.239-.2-.359-.319a8.752,8.752,0,0,0-1.556-1.157,9.485,9.485,0,0,0-4.268-1.4,10.45,10.45,0,0,0-1.117-.04,14.589,14.589,0,0,0-2.274.2,12.058,12.058,0,0,0-5.625,3.191,13.84,13.84,0,0,0-1,1.157l-.04.08-.08.12c-.2.279-.4.558-.6.878a11.851,11.851,0,0,0,1.2,14.042,11.629,11.629,0,0,0,6.422,3.75,12.037,12.037,0,0,0,7.38-.8c.279-.12.6-.279.878-.4a10.671,10.671,0,0,0,3.71-3.351h0c.04-.04.08-.12.12-.16.04-.08.08-.12.08-.2V50.17c-.2-.838-.439-1.636-.718-2.473a.461.461,0,0,0-.2-.279.453.453,0,0,0-.319-.12.479.479,0,0,0-.319.08.677.677,0,0,0-.239.239,8.977,8.977,0,0,1-4.268,4.149,9.879,9.879,0,0,1-3.869.8h-.6l-.239-.04h-.12a6.36,6.36,0,0,1-1.2-.239l-.08-.04-.239-.08-.319-.12-.08-.04-.319-.12a7.442,7.442,0,0,1-2.154-1.316l-.04-.04-.279-.239-.04-.04-.239-.239-.12-.16-.04-.04a9.909,9.909,0,0,1-1-1.2,8.976,8.976,0,0,1-1.476-3.989c.12-.16.479-.439,1.476-.359h16.834a.506.506,0,0,0,.239-.04.71.71,0,0,0,.319-.279.43.43,0,0,0,.08-.319V42.87c-.08-.519-.08-1.077-.16-1.636Zm-3.47-.4a1.393,1.393,0,0,1-.479.6,1.157,1.157,0,0,1-.718.2l-13.523-.04c-.08,0-.12-.04-.2-.12-.16-.16-.12-.439-.04-.718A7.1,7.1,0,0,1,618.814,39a9.687,9.687,0,0,1,.957-1.277l.08-.08.04-.04.12-.16.439-.439.04-.04.12-.12.2-.16.08-.04.2-.16.08-.08.12-.08a9.832,9.832,0,0,1,1.8-1h0a8.188,8.188,0,0,1,2.952-.678,7.8,7.8,0,0,1,2.354.319,6.2,6.2,0,0,1,.917.319,6.053,6.053,0,0,1,1.715,1.117,7.119,7.119,0,0,1,1.915,3.311c0,.08.04.12.04.2a1.42,1.42,0,0,1-.04.917Z" transform="translate(-369.414 -19.175)" fill="#10044a" fill-rule="evenodd"/>
</svg>
