<svg id="Group_318" data-name="Group 318" xmlns="http://www.w3.org/2000/svg" width="272.129" height="62.647" viewBox="0 0 272.129 62.647">
  <g id="varicent_logo-1-01" transform="translate(0 0)">
    <path id="Path_806" data-name="Path 806" d="M952.529,497.057h-4.3v15.962h-7v-15.85c-.865-.028-1.591-.084-2.428-.112v-5.581h2.344V484.5h7v6.92H952.5C952.529,493.29,952.529,495.16,952.529,497.057Z" transform="translate(-680.4 -457.907)" fill="#10044a"/>
    <path id="Path_807" data-name="Path 807" d="M349.8,470.923c2.6,0,5.023.028,7.451-.028.753,0,.837.474,1.032.949,2.4,6.083,4.828,12.167,7.227,18.278.139.391.307.753.558,1.339,1.144-2.874,2.2-5.525,3.265-8.2,1.507-3.823,3.042-7.618,4.521-11.441.251-.642.53-.949,1.284-.921,2.344.056,4.688.028,7.144.028-.139.391-.223.7-.335,1-4.325,10.157-8.623,20.287-12.92,30.472-.307.726-.67,1-1.423.893a9.423,9.423,0,0,0-1.256,0c-2.846,0-2.846,0-3.935-2.567q-6.069-14.357-12.194-28.686A8.439,8.439,0,0,0,349.8,470.923Z" transform="translate(-255.76 -448.097)" fill="#10044a"/>
    <path id="Path_808" data-name="Path 808" d="M475.341,509.494V507.4h7.032v21.543h-6.948c-.028-.7-.056-1.367-.112-2.149-3.488,3.8-7.534,3.656-11.636,1.73-3.99-1.842-6.279-6.446-5.888-11.218.419-5.274,3.349-9.181,7.869-10.3C469.174,506.118,472.466,506.508,475.341,509.494Zm.474,8.65a5.218,5.218,0,0,0-5.414-5.414,5.272,5.272,0,0,0-5.386,5.469,5.338,5.338,0,0,0,5.525,5.469A5.417,5.417,0,0,0,475.815,518.145Z" transform="translate(-333.584 -473.832)" fill="#10044a"/>
    <path id="Path_809" data-name="Path 809" d="M773.112,519.494H757.095a4.438,4.438,0,0,0,1.953,4.325,5.343,5.343,0,0,0,6.7-1.228c.167-.2.474-.474.67-.447,2.065.167,4.1.391,6.279.614-1.339,3.823-3.879,6.111-7.674,6.753a20.41,20.41,0,0,1-5.972.112,10.56,10.56,0,0,1-9.32-10.185,12.221,12.221,0,0,1,3.07-9.4c2.9-3.125,6.669-3.711,10.632-3.181,5.5.7,8.93,4.381,9.432,9.906C773,517.6,773.028,518.461,773.112,519.494Zm-6.7-4.269a4.49,4.49,0,0,0-4.995-3.6,4.2,4.2,0,0,0-4.1,3.6Z" transform="translate(-544.068 -473.897)" fill="#10044a"/>
    <path id="Path_810" data-name="Path 810" d="M848.4,529.2V507.687h6.976c.028.67.084,1.367.112,2.177l.447-.335c2.958-2.9,6.446-3.07,10.1-1.758a6.329,6.329,0,0,1,4.325,5.832c.223,2.846.167,5.721.2,8.595.028,2.288,0,4.6,0,7h-7.032c-.028-.363-.056-.753-.056-1.144V517.984a15.192,15.192,0,0,0-.084-1.591,3.406,3.406,0,0,0-3.042-3.4,3.88,3.88,0,0,0-4.409,2.372,9.016,9.016,0,0,0-.5,2.874c-.056,3.544-.028,7.088-.028,10.632a2.491,2.491,0,0,1-.056.307C853.06,529.2,850.772,529.2,848.4,529.2Z" transform="translate(-615.226 -474.117)" fill="#10044a"/>
    <path id="Path_811" data-name="Path 811" d="M12.8,439.108a9.183,9.183,0,0,1,9.292-9.209,9.25,9.25,0,1,1,.028,18.5A9.19,9.19,0,0,1,12.8,439.108Z" transform="translate(-12.8 -418.542)" fill="#10044a"/>
    <path id="Path_812" data-name="Path 812" d="M692.311,522.374c0,1.925.028,3.8-.028,5.665a1.219,1.219,0,0,1-.586.809c-6.92,2.958-16.157-.726-16.659-9.767-.53-9.069,7.758-14.594,16.436-11.553a1.092,1.092,0,0,1,.865,1.228c-.056,1.758-.028,3.516-.028,5.469-1.981-1.284-3.99-2.065-6.167-1.284a6.781,6.781,0,0,0-2.818,1.953,5.7,5.7,0,0,0,.084,6.92C685.335,524.16,687.762,524.327,692.311,522.374Z" transform="translate(-490.223 -473.903)" fill="#10044a"/>
    <path id="Path_813" data-name="Path 813" d="M92.232,485.739a8.567,8.567,0,1,1-8.539-8.539A8.486,8.486,0,0,1,92.232,485.739Z" transform="translate(-57.714 -452.644)" fill="#10044a"/>
    <path id="Path_814" data-name="Path 814" d="M87.22,405.524a8.163,8.163,0,1,1,.223-16.324,8.163,8.163,0,1,1-.223,16.324Z" transform="translate(-60.599 -389.2)" fill="#10044a"/>
    <path id="Path_815" data-name="Path 815" d="M572.72,510.9c3.014-3.432,5.693-4.381,8.734-3.181,0,.279.028.586,0,.865-.112,1.842-.223,3.656-.363,5.525a20.871,20.871,0,0,0-2.26-.586c-2.93-.5-5.358,1.4-5.86,4.6a19.731,19.731,0,0,0-.2,3.153c-.028,2.707,0,5.414,0,8.176H565.8V507.887h6.92Z" transform="translate(-411.486 -474.29)" fill="#10044a"/>
    <path id="Path_816" data-name="Path 816" d="M133.5,529.4a7.827,7.827,0,1,1,7.869,7.785A7.813,7.813,0,0,1,133.5,529.4Z" transform="translate(-99.819 -484.581)" fill="#10044a"/>
    <path id="Path_817" data-name="Path 817" d="M148.085,442.851a7.437,7.437,0,0,1-7.451,7.478,7.465,7.465,0,1,1,0-14.929A7.362,7.362,0,0,1,148.085,442.851Z" transform="translate(-99.53 -422.508)" fill="#10044a"/>
    <path id="Path_818" data-name="Path 818" d="M187.4,569.716a7.051,7.051,0,0,1,7.088-7.116,7.13,7.13,0,1,1-.056,14.259A7.028,7.028,0,0,1,187.4,569.716Z" transform="translate(-138.678 -514.213)" fill="#10044a"/>
    <path id="Path_819" data-name="Path 819" d="M634.4,509.3h6.865v21.571H634.4Z" transform="translate(-460.943 -475.786)" fill="#10044a"/>
    <path id="Path_820" data-name="Path 820" d="M196.389,484.78a6.69,6.69,0,0,1-6.809,6.781A6.781,6.781,0,0,1,189.552,478,6.7,6.7,0,0,1,196.389,484.78Z" transform="translate(-135.361 -453.22)" fill="#10044a"/>
    <path id="Path_821" data-name="Path 821" d="M225.6,526.583a6.042,6.042,0,1,1,6.083,6.083A6.027,6.027,0,0,1,225.6,526.583Z" transform="translate(-166.218 -483.86)" fill="#10044a"/>
    <path id="Path_822" data-name="Path 822" d="M263.692,484.8a4.928,4.928,0,0,1,5.079,4.939,5.037,5.037,0,1,1-5.079-4.939Z" transform="translate(-190.079 -458.122)" fill="#10044a"/>
    <path id="Path_823" data-name="Path 823" d="M238.218,452.494a5.009,5.009,0,1,1-4.995-5A4.927,4.927,0,0,1,238.218,452.494Z" transform="translate(-168.093 -431.231)" fill="#10044a"/>
    <path id="Path_824" data-name="Path 824" d="M266.51,427.994a4.214,4.214,0,0,1-4.214-4.381,4.362,4.362,0,0,1,4.325-4.214,4.408,4.408,0,0,1,4.3,4.381A4.289,4.289,0,0,1,266.51,427.994Z" transform="translate(-192.674 -410.972)" fill="#10044a"/>
    <path id="Path_825" data-name="Path 825" d="M290.925,454a4.213,4.213,0,0,1,4.3,4.3,4.329,4.329,0,0,1-4.353,4.3,4.381,4.381,0,0,1-4.269-4.27A4.311,4.311,0,0,1,290.925,454Z" transform="translate(-210.196 -435.918)" fill="#10044a"/>
    <path id="Path_826" data-name="Path 826" d="M640.175,465.954a4.09,4.09,0,1,1-8.176-.2,4.089,4.089,0,0,1,8.176.2Z" transform="translate(-459.212 -441.538)" fill="#10044a"/>
  </g>
</svg>
