<svg id="xactly-logo-vector-01" xmlns="http://www.w3.org/2000/svg" xmlns:xlink="http://www.w3.org/1999/xlink" width="189.957" height="62.892" viewBox="0 0 189.957 62.892">
  <defs>
    <clipPath id="clip-path">
      <path id="Path_833" data-name="Path 833" d="M154.522,247.7,146,259.5l6.281,8.722L167.124,247.7Z" transform="translate(-146 -247.7)" fill="#10044a"/>
    </clipPath>
    <clipPath id="clip-path-2">
      <path id="Path_836" data-name="Path 836" d="M146.2,307.562l10.2,14.123h12.362L152.4,299Z" transform="translate(-146.2 -299)" fill="#10044a"/>
    </clipPath>
  </defs>
  <path id="Path_829" data-name="Path 829" d="M173.6,375.92h1.48v8.522H173.6Zm8.722,8.522v-4.361a1.8,1.8,0,0,0-2-2,2.918,2.918,0,0,0-2.16,1v-.8H176.8v6.161h1.36v-4.321a2.108,2.108,0,0,1,1.6-.84c.76,0,1.24.32,1.24,1.28v3.881Zm1.12-.8a3.7,3.7,0,0,0,2.641.96c1.68,0,2.56-.84,2.56-1.92,0-2.44-3.721-1.64-3.721-2.72,0-.44.44-.76,1.16-.76a2.522,2.522,0,0,1,1.84.76l.56-.96a3.629,3.629,0,0,0-2.4-.88c-1.56,0-2.44.88-2.44,1.88,0,2.36,3.721,1.48,3.721,2.721,0,.48-.4.84-1.2.84a3.124,3.124,0,0,1-2.08-.88l-.64.96m7.8-.04a2.339,2.339,0,0,0,1.96,1c1.6,0,2.721-1.2,2.721-3.241s-1.12-3.241-2.721-3.241a2.443,2.443,0,0,0-1.96,1v-.84h-1.36V386.8h1.36v-3.2m3.321-2.24a1.8,1.8,0,0,1-1.72,2.04,2.122,2.122,0,0,1-1.6-.84v-2.44a1.947,1.947,0,0,1,1.6-.84,1.861,1.861,0,0,1,1.72,2.08m2.48-4.681a.873.873,0,0,0,.84.84.845.845,0,0,0,.84-.84.82.82,0,0,0-.84-.84.872.872,0,0,0-.84.84m.16,7.762h1.36v-6.161H197.2Zm4.281,0v-4.2a2.153,2.153,0,0,1,1.6-.8,1.5,1.5,0,0,1,.44.04v-1.32a2.556,2.556,0,0,0-2,1.04v-.92h-1.36v6.161Zm2.521-3.081a3.109,3.109,0,0,0,3.241,3.241,3.784,3.784,0,0,0,2.52-.88l-.6-.88a2.623,2.623,0,0,1-1.76.68,1.847,1.847,0,0,1-1.96-1.72h4.761v-.32a3.055,3.055,0,0,0-3.041-3.361,3.136,3.136,0,0,0-3.161,3.241m3.121-2.12a1.635,1.635,0,0,1,1.72,1.64h-3.481a1.786,1.786,0,0,1,1.76-1.64m9.482,5.2v-3.2h2.24a2.683,2.683,0,1,0,0-5.361h-3.761V384.4h1.52Zm3.481-5.841a1.346,1.346,0,0,1-1.44,1.36h-2.04V377.24h2.04a1.346,1.346,0,0,1,1.44,1.36m2.12,2.761a3.109,3.109,0,0,0,3.241,3.241,3.784,3.784,0,0,0,2.521-.88l-.6-.88a2.624,2.624,0,0,1-1.76.68,1.847,1.847,0,0,1-1.96-1.72h4.761v-.32a3.055,3.055,0,0,0-3.041-3.361,3.112,3.112,0,0,0-3.161,3.241m3.121-2.12a1.635,1.635,0,0,1,1.72,1.64H223.57a1.728,1.728,0,0,1,1.76-1.64m5.6,5.2v-4.2a2.153,2.153,0,0,1,1.6-.8,1.5,1.5,0,0,1,.44.04v-1.32a2.556,2.556,0,0,0-2,1.04v-.92h-1.36v6.161Zm5,0v-5h1.24v-1.16h-1.24v-.36c0-.68.32-1.04.84-1.04a1.067,1.067,0,0,1,.72.28l.52-.84a1.987,1.987,0,0,0-1.48-.52,1.916,1.916,0,0,0-1.96,2.12v.36h-1.04v1.16h1.04v5Zm1.76-3.081a3.181,3.181,0,1,0,3.161-3.241,3.088,3.088,0,0,0-3.161,3.241m4.961,0a1.8,1.8,0,1,1-1.8-2.04,1.854,1.854,0,0,1,1.8,2.04m3.961,3.081v-4.2a2.153,2.153,0,0,1,1.6-.8,1.5,1.5,0,0,1,.44.04v-1.32a2.556,2.556,0,0,0-2,1.04v-.92h-1.36v6.161Zm11.882,0v-4.481a1.639,1.639,0,0,0-1.76-1.88,2.584,2.584,0,0,0-2.08,1.12,1.582,1.582,0,0,0-1.68-1.12,2.6,2.6,0,0,0-2,1v-.8h-1.36v6.161h1.36v-4.321a1.916,1.916,0,0,1,1.4-.84c.72,0,1.04.44,1.04,1.12v4.041h1.36v-4.321a1.884,1.884,0,0,1,1.44-.8c.72,0,1,.44,1,1.12v4.041h1.28Zm6.721,0v-4.081c0-1.68-1.2-2.24-2.561-2.24a3.657,3.657,0,0,0-2.6,1l.56.92a2.54,2.54,0,0,1,1.84-.76c.84,0,1.44.44,1.44,1.16v.92a2.56,2.56,0,0,0-2-.8,2.009,2.009,0,0,0-2.16,2,2.045,2.045,0,0,0,2.16,2.04,2.681,2.681,0,0,0,2-.8v.68l1.32-.04Zm-1.32-1.4a1.778,1.778,0,0,1-1.48.64c-.76,0-1.32-.44-1.32-1.08a1.176,1.176,0,0,1,1.32-1.12,1.778,1.778,0,0,1,1.48.64v.92m8.442,1.4v-4.361a1.8,1.8,0,0,0-2-2,2.917,2.917,0,0,0-2.16,1v-.8h-1.36v6.161h1.36v-4.321a2.108,2.108,0,0,1,1.6-.84c.76,0,1.24.32,1.24,1.28v3.881Zm1.24-3.081a3.1,3.1,0,0,0,3.2,3.241,2.749,2.749,0,0,0,2.36-1.12l-.88-.8a1.64,1.64,0,0,1-1.4.72,2.047,2.047,0,0,1,0-4.081,1.593,1.593,0,0,1,1.4.72l.88-.8a2.749,2.749,0,0,0-2.36-1.12,3.1,3.1,0,0,0-3.2,3.241m6.081,0A3.109,3.109,0,0,0,282.9,384.6a3.784,3.784,0,0,0,2.52-.88l-.6-.88a2.624,2.624,0,0,1-1.76.68,1.847,1.847,0,0,1-1.96-1.72h4.761v-.32a3.055,3.055,0,0,0-3.041-3.361,3.112,3.112,0,0,0-3.161,3.241m3.121-2.12a1.635,1.635,0,0,1,1.72,1.64h-3.481a1.728,1.728,0,0,1,1.76-1.64m4.2-1.68v-1.12h.4v-.2h-1.04v.2h.4v1.12Zm1.96,0v-1.32h-.32l-.36.88-.36-.88h-.32v1.32h.24v-.96l.4.96h.08l.4-.96v.96Z" transform="translate(-139.753 -323.91)" fill="#10044a"/>
  <path id="Path_830" data-name="Path 830" d="M132.929,247.7h-12.6L111.8,259.5l-8.522-11.8H90.92L105.6,268.064,89,290.948h12.6l10.282-14.163,10.242,14.163h12.362l-16.4-22.724Z" transform="translate(-89 -247.06)" fill="#10044a"/>
  <g id="Group_312" data-name="Group 312" transform="translate(22.804 0.64)">
    <g id="Group_311" data-name="Group 311">
      <path id="Path_831" data-name="Path 831" d="M154.522,247.7,146,259.5l6.281,8.722L167.124,247.7Z" transform="translate(-146 -247.7)" fill="#10044a"/>
      <g id="Group_310" data-name="Group 310" clip-path="url(#clip-path)">
        <path id="Path_832" data-name="Path 832" d="M148.525,224.9,123.8,239.143l14.163,24.525,24.725-14.243Z" transform="translate(-132.682 -234.022)" fill="#10044a"/>
      </g>
    </g>
  </g>
  <g id="Group_315" data-name="Group 315" transform="translate(22.884 21.164)">
    <g id="Group_314" data-name="Group 314">
      <path id="Path_834" data-name="Path 834" d="M146.2,307.562l10.2,14.123h12.362L152.4,299Z" transform="translate(-146.2 -299)" fill="#10044a"/>
      <g id="Group_313" data-name="Group 313" clip-path="url(#clip-path-2)">
        <path id="Path_835" data-name="Path 835" d="M163.908,290.043,137.143,274.6,121.7,301.365l26.725,15.443Z" transform="translate(-131.502 -284.362)" fill="#10044a"/>
      </g>
    </g>
  </g>
  <path id="Path_837" data-name="Path 837" d="M222.325,258.3v3.481a14.074,14.074,0,0,0-4.6-3.2,13.181,13.181,0,0,0-5.321-1.08,13.82,13.82,0,0,0-10.482,4.641,16.9,16.9,0,0,0-4.321,11.962,16.547,16.547,0,0,0,4.441,11.762,13.97,13.97,0,0,0,10.562,4.721,13.152,13.152,0,0,0,5.041-.96,15.958,15.958,0,0,0,4.641-3.161v3.361h7.922V258.3Zm-2.08,22.484a8.156,8.156,0,0,1-6.161,2.6A8,8,0,0,1,208,280.747a9.484,9.484,0,0,1-2.48-6.721,9.2,9.2,0,0,1,2.44-6.641,7.983,7.983,0,0,1,6.081-2.6,8.209,8.209,0,0,1,6.2,2.56,9.131,9.131,0,0,1,2.44,6.641,9.289,9.289,0,0,1-2.44,6.8M266.773,264.7l-6.561,3.641a11.3,11.3,0,0,0-3.681-2.681,11.462,11.462,0,0,0-4.241-.76,9.824,9.824,0,0,0-7.161,2.641,8.9,8.9,0,0,0-2.721,6.761,8.591,8.591,0,0,0,2.641,6.521,9.565,9.565,0,0,0,6.921,2.521,10.063,10.063,0,0,0,8.242-3.6l6.241,4.281c-3.361,4.4-8.162,6.6-14.283,6.6-5.561,0-9.882-1.64-13-4.921a16.223,16.223,0,0,1-4.721-11.522,16.4,16.4,0,0,1,2.28-8.442,16.081,16.081,0,0,1,6.4-6.041,18.914,18.914,0,0,1,9.162-2.2,18.708,18.708,0,0,1,8.442,1.88,16.788,16.788,0,0,1,6.041,5.321m6.961-18h7.922v11.6h4.681v6.8h-4.681v24.765h-7.922V265.1h-4.081v-6.8h4.081Zm18.284-.6h7.922v43.728h-7.922Zm11.6,12.2h8.122l8.122,19.684,9-19.684h8.162l-21.644,48.009h-8.162l8.362-18.884Z" transform="translate(-154.152 -246.1)" fill="#10044a"/>
  <path id="Path_838" data-name="Path 838" d="M556.361,280.18a2.723,2.723,0,0,1-.32,1.24,2.538,2.538,0,0,1-.92.92,2.3,2.3,0,0,1-1.24.32,2.6,2.6,0,0,1-1.24-.32,2.537,2.537,0,0,1-.92-.92,2.3,2.3,0,0,1-.32-1.24,2.724,2.724,0,0,1,.32-1.24,2.537,2.537,0,0,1,.92-.92,2.3,2.3,0,0,1,1.24-.32,2.6,2.6,0,0,1,1.24.32,2.537,2.537,0,0,1,.92.92,2.6,2.6,0,0,1,.32,1.24m-.52,0a1.914,1.914,0,0,0-1.96-1.96,2,2,0,0,0-1.4.56,1.877,1.877,0,0,0-.6,1.4,1.806,1.806,0,0,0,.28,1,1.57,1.57,0,0,0,.72.72,2.211,2.211,0,0,0,1,.28,1.806,1.806,0,0,0,1-.28,1.57,1.57,0,0,0,.72-.72,2.294,2.294,0,0,0,.24-1m-3-1.36h1.2a1.857,1.857,0,0,1,.56.08.631.631,0,0,1,.28.28.859.859,0,0,1,.04.8.749.749,0,0,1-.24.28.483.483,0,0,1,.2.2,2.552,2.552,0,0,1,.08.36c0,.32.04.52.04.6a.214.214,0,0,0,.12.16h-.68a.361.361,0,0,1-.04-.2v-.24a3.185,3.185,0,0,0-.04-.44c-.04-.04-.04-.08-.12-.12-.04-.04-.16-.04-.28-.04h-.48v1.04h-.64Zm.6.52v.64h.52a.861.861,0,0,0,.4-.08c.08-.04.08-.12.08-.24a.338.338,0,0,0-.08-.24.861.861,0,0,0-.4-.08Z" transform="translate(-366.404 -265.058)" fill="#10044a"/>
</svg>
