<svg xmlns="http://www.w3.org/2000/svg" xmlns:xlink="http://www.w3.org/1999/xlink" width="343.684" height="72.23" viewBox="0 0 343.684 72.23">
  <defs>
    <linearGradient id="linear-gradient" y1="0.5" x2="1" y2="0.5" gradientUnits="objectBoundingBox">
      <stop offset="0.01" stop-color="#7bc2a6"/>
      <stop offset="0.99" stop-color="#b3fa07"/>
    </linearGradient>
    <linearGradient id="linear-gradient-2" x1="-0.058" y1="0.5" x2="0.806" y2="0.5" gradientUnits="objectBoundingBox">
      <stop offset="0.01" stop-color="#b3fa07"/>
      <stop offset="0.99" stop-color="#7bc2a6"/>
    </linearGradient>
  </defs>
  <g id="LogoDesigns-12" transform="translate(-56.095 -35.57)">
    <g id="Group_687" data-name="Group 687" transform="translate(56.095 51.643)">
      <g id="Group_686" data-name="Group 686" transform="translate(37.814)">
        <path id="Path_4240" data-name="Path 4240" d="M225.327,136.18a16.175,16.175,0,0,1-3.824-.536,6.91,6.91,0,0,1-1.551-.629,20.864,20.864,0,0,1-4.673-3.539,33.981,33.981,0,0,1-5.2-6.662q-5.524-9.037-11.043-18.079c-.077-.125-.151-.25-.239-.366a1.294,1.294,0,0,1-.2-1.277,2.937,2.937,0,0,1,.284-.589q1.458-2.318,2.931-4.631a8.005,8.005,0,0,1,3.362-3.051,7.734,7.734,0,0,1,5.456-.4,11.189,11.189,0,0,1,6.9,5.382c2.228,3.816,4.413,7.658,6.641,11.473,1.394,2.387,2.825,4.75,4.259,7.111.765,1.259,1.593,2.48,2.347,3.744a13.394,13.394,0,0,1,1.622,3.932,6.77,6.77,0,0,1-.21,3.988,5.962,5.962,0,0,1-4.432,3.855,10.632,10.632,0,0,1-1.259.21C226.108,136.164,225.718,136.164,225.327,136.18Z" transform="translate(-198.509 -96.103)" fill="url(#linear-gradient)"/>
      </g>
      <path id="Path_4241" data-name="Path 4241" d="M117.291,138.823s-7.764-2.122-14.718-13.273-14.131-23.384-14.131-23.384-2.618-4.424-6.319-5.507-5.677.271-5.677.271-2.507,1.152-5.587,5.52-13.7,23.645-13.7,23.645-3.431,7.222,2.031,11.152a12.112,12.112,0,0,0,7.177,2.122l51.32,0a.194.194,0,0,0,.2-.258S117.883,138.974,117.291,138.823Z" transform="translate(-56.095 -96.202)" fill="url(#linear-gradient-2)"/>
    </g>
    <g id="Group_688" data-name="Group 688" transform="translate(145.332 35.57)">
      <path id="Path_4242" data-name="Path 4242" d="M449.6,122.836v16.985a20.443,20.443,0,0,0,.2,3.234,7.434,7.434,0,0,0,.526,1.9,2.049,2.049,0,0,0,.648.889,1.061,1.061,0,0,0,.486.2v.728h-9.381v-.728a1.084,1.084,0,0,0,.486-.2,1.857,1.857,0,0,0,.605-.889,10.681,10.681,0,0,0,.526-1.9,17.183,17.183,0,0,0,.242-3.234V122.836q0-1.458-.162-3.518a22.742,22.742,0,0,0-.688-4.044,13.111,13.111,0,0,0-1.537-3.6,5,5,0,0,0-2.708-2.183,4.839,4.839,0,0,0-3.316.04,9.141,9.141,0,0,0-2.953,1.819,15.655,15.655,0,0,0-2.387,2.751,21.258,21.258,0,0,0-1.7,2.913,41.1,41.1,0,0,0-2.83,9.5,73.338,73.338,0,0,0-1.051,13.305,20.439,20.439,0,0,0,.2,3.234,7.433,7.433,0,0,0,.526,1.9,2.048,2.048,0,0,0,.648.889,1.062,1.062,0,0,0,.486.2v.728h-9.381v-.728a1.084,1.084,0,0,0,.486-.2,1.858,1.858,0,0,0,.605-.889,10.683,10.683,0,0,0,.526-1.9,17.186,17.186,0,0,0,.242-3.234V122.836q0-1.458-.162-3.518a22.506,22.506,0,0,0-.685-4.044,13.178,13.178,0,0,0-1.529-3.6,4.987,4.987,0,0,0-2.7-2.183,4.8,4.8,0,0,0-3.3.04,9.084,9.084,0,0,0-2.939,1.819,15.6,15.6,0,0,0-2.376,2.751,21.153,21.153,0,0,0-1.691,2.913,41.251,41.251,0,0,0-2.82,9.5,73.622,73.622,0,0,0-1.046,13.305,20.439,20.439,0,0,0,.2,3.234,7.433,7.433,0,0,0,.526,1.9,2.048,2.048,0,0,0,.648.889,1.062,1.062,0,0,0,.486.2v.728H392.18v-.728a1.084,1.084,0,0,0,.486-.2,1.858,1.858,0,0,0,.605-.889,10.682,10.682,0,0,0,.526-1.9,17.186,17.186,0,0,0,.242-3.234V114.748a17.306,17.306,0,0,0-.242-3.194,9.56,9.56,0,0,0-.526-1.9,2.247,2.247,0,0,0-.605-.889.971.971,0,0,0-.486-.242v-.728H399.7l-.08,20.947A60.994,60.994,0,0,1,401,122.029a35.824,35.824,0,0,1,1.861-5.337,28.676,28.676,0,0,1,1.861-3.316,16.165,16.165,0,0,1,2.467-2.953,12.372,12.372,0,0,1,3.072-2.143,8.28,8.28,0,0,1,3.68-.81,9.15,9.15,0,0,1,8.7,4.933,14.993,14.993,0,0,1,1.577,4.933,37.969,37.969,0,0,1,.4,5.5v5.905a51.325,51.325,0,0,1,1.293-6.712,30.582,30.582,0,0,1,1.941-5.337,20.236,20.236,0,0,1,1.819-3.316,18.631,18.631,0,0,1,2.467-2.953,11.469,11.469,0,0,1,3.072-2.143,8.536,8.536,0,0,1,3.72-.81,9.543,9.543,0,0,1,5.379,1.375,9.772,9.772,0,0,1,3.234,3.558,15.674,15.674,0,0,1,1.617,4.933A34.286,34.286,0,0,1,449.6,122.836Z" transform="translate(-392.18 -88.379)" fill="#fbfbfb"/>
      <path id="Path_4243" data-name="Path 4243" d="M662.076,114.2a18.464,18.464,0,0,0-4.609-3.882,15.288,15.288,0,0,0-5.581-1.941,13.314,13.314,0,0,0-6.187.605,10.319,10.319,0,0,0-5.459,3.356A15.93,15.93,0,0,0,637.207,118a21.846,21.846,0,0,0-.929,6.673,28.846,28.846,0,0,0,.767,6.471l.242.728a21.482,21.482,0,0,0,4,7.846,16.467,16.467,0,0,0,5.621,4.408,14.934,14.934,0,0,0,6.309,1.415,15.685,15.685,0,0,0,6.067-1.174,13.638,13.638,0,0,0,4.854-3.356,10.854,10.854,0,0,0,2.668-5.1h.566A11.817,11.817,0,0,1,664.1,142.1a16.459,16.459,0,0,1-6.107,3.842,21.567,21.567,0,0,1-7.642,1.253,19.848,19.848,0,0,1-7.8-1.657,20.444,20.444,0,0,1-6.712-4.771,18.175,18.175,0,0,1-4.286-8.17,19.4,19.4,0,0,1-.486-7.846,19.594,19.594,0,0,1,7.482-12.862,19.538,19.538,0,0,1,7.076-3.478,21.636,21.636,0,0,1,7.238-.688,32.243,32.243,0,0,1,6.431,1.131,29.71,29.71,0,0,1,4.933,1.861q2.019,1.012,2.669,1.415h.324l-1.131,7.44-.728-.162A20.23,20.23,0,0,0,662.076,114.2Z" transform="translate(-567.489 -88.518)" fill="#fbfbfb"/>
      <path id="Path_4244" data-name="Path 4244" d="M820.87,146.981h-7.522V123.687q0-2.183-.2-4.854a20.018,20.018,0,0,0-1.012-5.016,9.657,9.657,0,0,0-2.467-3.922,6.359,6.359,0,0,0-4.57-1.577,13.7,13.7,0,0,0-5.056.85,11.8,11.8,0,0,0-3.438,1.981,5.7,5.7,0,0,0-1.7,2.265,1.686,1.686,0,0,0,.162,1.779,1.983,1.983,0,0,0,1.091.605q.769.2,1.739.364c.648.109,1.336.215,2.063.324a8.763,8.763,0,0,1,2.063.566,9.024,9.024,0,0,1,4.246,3.356,14.92,14.92,0,0,1,2.225,5.135,21.051,21.051,0,0,1,.486,5.823,15.451,15.451,0,0,1-1.131,5.257,19.234,19.234,0,0,1-5.5,7.764,11.34,11.34,0,0,1-7.926,2.913,10.678,10.678,0,0,1-6.55-2.225,10.45,10.45,0,0,1-3.438-5.1,13.017,13.017,0,0,1-.2-6.55,15.635,15.635,0,0,1,3.115-6.55,19.092,19.092,0,0,1,6.55-5.135,24.6,24.6,0,0,1,10.151-2.345,1.394,1.394,0,0,1,.565-.08,9.937,9.937,0,0,0-2.83-1.7,11.806,11.806,0,0,0-3.154-.728,22.234,22.234,0,0,0-3.194-.082q-1.5.084-2.668.242t-1.5.242a4.264,4.264,0,0,1,.688-2.87,11.335,11.335,0,0,1,2.751-3.154,15.957,15.957,0,0,1,4.448-2.507,16.449,16.449,0,0,1,5.945-1.012,15.826,15.826,0,0,1,6.558,1.213,11.259,11.259,0,0,1,4.317,3.316,12.929,12.929,0,0,1,2.339,5.056,27.59,27.59,0,0,1,.7,6.349v16.338a20.438,20.438,0,0,0,.2,3.234,7.431,7.431,0,0,0,.526,1.9,2.049,2.049,0,0,0,.648.89,1.062,1.062,0,0,0,.486.2v.733Zm-15.69-27.014a22.444,22.444,0,0,0-6.107.81,14.164,14.164,0,0,0-5.016,2.507,12.106,12.106,0,0,0-3.4,4.286,13.77,13.77,0,0,0-1.253,6.067,16.233,16.233,0,0,0,.364,3.4,10.658,10.658,0,0,0,1.213,3.154,9.054,9.054,0,0,0,2.143,2.507,6.726,6.726,0,0,0,3.154,1.375,6.882,6.882,0,0,0,3.64-.162,11.081,11.081,0,0,0,3.154-1.657,11.816,11.816,0,0,0,2.549-2.629,15.292,15.292,0,0,0,1.739-3.154,18.534,18.534,0,0,0,1.012-4.166,18.878,18.878,0,0,0,.04-4.447,16.1,16.1,0,0,0-1.052-4.246A13.215,13.215,0,0,0,805.181,119.967Z" transform="translate(-679.9 -88.585)" fill="#fff"/>
      <path id="Path_4245" data-name="Path 4245" d="M947.493,93.966h-9.381v-.728a1.084,1.084,0,0,0,.486-.2,1.857,1.857,0,0,0,.605-.889,10.682,10.682,0,0,0,.526-1.9,17.189,17.189,0,0,0,.242-3.234V42.527a6.383,6.383,0,0,0-.85-2.751c-.35-.43-.635-.648-.85-.648l-.242-.728,7.6-2.83V87.009a20.44,20.44,0,0,0,.2,3.234,7.431,7.431,0,0,0,.526,1.9,2.049,2.049,0,0,0,.648.889,1.062,1.062,0,0,0,.486.2Z" transform="translate(-793.095 -35.57)" fill="#fff"/>
      <path id="Path_4246" data-name="Path 4246" d="M988.89,72.452l7.684-2.913v32.027a20.448,20.448,0,0,0,.2,3.234,7.434,7.434,0,0,0,.526,1.9,2.048,2.048,0,0,0,.648.889,1.062,1.062,0,0,0,.486.2v.728h-9.463v-.728a1.1,1.1,0,0,0,.566-.2,1.857,1.857,0,0,0,.605-.889,10.677,10.677,0,0,0,.526-1.9,17.189,17.189,0,0,0,.242-3.234V76.576a6.112,6.112,0,0,0-.889-2.83c-.377-.43-.674-.648-.89-.648Zm4.248-9.463A3.735,3.735,0,0,1,990.4,61.9a3.873,3.873,0,0,1,0-5.417,3.979,3.979,0,0,1,5.475,0,3.873,3.873,0,0,1,0,5.417A3.74,3.74,0,0,1,993.138,62.989Z" transform="translate(-830.451 -50.127)" fill="#fff"/>
      <path id="Path_4247" data-name="Path 4247" d="M1040.609,120.333a19.4,19.4,0,0,1-.486-7.846,20.206,20.206,0,0,1,2.467-7.2,19.857,19.857,0,0,1,4.973-5.743,19.153,19.153,0,0,1,7.036-3.478,18.372,18.372,0,0,1,7.886-.526,21.305,21.305,0,0,1,7.158,2.467l2.669-.728a33.553,33.553,0,0,0,5.581-1.9,12.035,12.035,0,0,0,2.791-1.7,2.642,2.642,0,0,0,.929-1.253q.079-.486.08-.566v-.08l.728-.162.727,2.992.162.728.728,2.992-.728.162a3.212,3.212,0,0,0-1.779-1.051,10.973,10.973,0,0,0-2.87-.364,20.782,20.782,0,0,0-4.731.605l-3.4.81a19.814,19.814,0,0,1,5.175,4.894,20.488,20.488,0,0,1,3.234,6.673,18.489,18.489,0,0,1,.526,7.562,20.685,20.685,0,0,1-2.265,7,19.982,19.982,0,0,1-4.61,5.7A19.076,19.076,0,0,1,1066,134a16.884,16.884,0,0,1-3.76.972q-2.143.323-4.408.648t-4.49.688a16.054,16.054,0,0,0-3.882,1.091,5.968,5.968,0,0,0-2.546,1.981,4.391,4.391,0,0,0-.648,3.194,3.469,3.469,0,0,0,1.861,2.953,6.765,6.765,0,0,0,3.68.4,20.315,20.315,0,0,0,4.649-1.253,52.471,52.471,0,0,0,4.811-2.143q2.306-1.175,4.166-2.265t2.589-1.577q2.589-1.617,5.218-2.953a14.321,14.321,0,0,1,4.732-1.577,4.345,4.345,0,0,1,4.126,1.336,6.358,6.358,0,0,1,1.415,4.084,9.662,9.662,0,0,1-1.293,4.854,8.526,8.526,0,0,1-3.842,3.64,9.791,9.791,0,0,1-4.124.889,15.259,15.259,0,0,1-4.368-.648,19.382,19.382,0,0,1-4.206-1.819,16.831,16.831,0,0,1-3.478-2.629l.4-.4a24.745,24.745,0,0,0,7.119,4.124,5.982,5.982,0,0,0,7.8-2.424,11.184,11.184,0,0,0,1.375-3.115,7.333,7.333,0,0,0,.2-3.115,2.781,2.781,0,0,0-1.415-2.1,5.293,5.293,0,0,0-3.438-.242,18.9,18.9,0,0,0-5.905,2.589q-1.294.809-3.558,2.225t-5.016,2.87a56.47,56.47,0,0,1-5.621,2.589,17.9,17.9,0,0,1-5.337,1.293,7.422,7.422,0,0,1-4.286-.889,5.468,5.468,0,0,1-2.387-3.964,4.318,4.318,0,0,1,1.253-4.286,12.143,12.143,0,0,1,4.368-2.387,26.209,26.209,0,0,1,5.5-1.131q2.872-.283,4.811-.526a18.807,18.807,0,0,1-5.863-1.415,20.263,20.263,0,0,1-5.1-3.075,19.926,19.926,0,0,1-4-4.49A19.226,19.226,0,0,1,1040.609,120.333Zm32.837-8.815a26.721,26.721,0,0,0-2.549-5.985,22.1,22.1,0,0,0-4.166-5.337,16.211,16.211,0,0,0-5.5-3.4,10.186,10.186,0,0,0-6.471-.162,10.417,10.417,0,0,0-5.5,3.4,16.007,16.007,0,0,0-3.072,5.7,21.991,21.991,0,0,0-.929,6.712,25.086,25.086,0,0,0,.85,6.431,27.843,27.843,0,0,0,2.507,5.985,21.264,21.264,0,0,0,4.126,5.337,16.146,16.146,0,0,0,5.5,3.4,10.167,10.167,0,0,0,6.471.162,10.412,10.412,0,0,0,5.5-3.4,15.979,15.979,0,0,0,3.072-5.7,22.941,22.941,0,0,0,.972-6.712A23.994,23.994,0,0,0,1073.446,111.518Z" transform="translate(-867.935 -76.738)" fill="#fff"/>
      <path id="Path_4248" data-name="Path 4248" d="M1221.3,107.784h7.522l-.08,20.947a46.668,46.668,0,0,1,1.336-6.712,39.315,39.315,0,0,1,1.9-5.337,28.712,28.712,0,0,1,1.861-3.316,16.169,16.169,0,0,1,2.467-2.953,12.368,12.368,0,0,1,3.072-2.143,8.28,8.28,0,0,1,3.68-.81,9.543,9.543,0,0,1,5.379,1.375,9.772,9.772,0,0,1,3.234,3.558,15.677,15.677,0,0,1,1.617,4.933,34.623,34.623,0,0,1,.446,5.5v16.985a20.447,20.447,0,0,0,.2,3.234,7.434,7.434,0,0,0,.526,1.9,2.048,2.048,0,0,0,.648.889,1.061,1.061,0,0,0,.486.2v.728h-9.381v-.728a1.084,1.084,0,0,0,.486-.2,1.858,1.858,0,0,0,.605-.889,10.676,10.676,0,0,0,.526-1.9,17.184,17.184,0,0,0,.242-3.234V122.826q0-1.458-.162-3.518a22.514,22.514,0,0,0-.685-4.044,13.18,13.18,0,0,0-1.53-3.6,4.986,4.986,0,0,0-2.7-2.183,4.8,4.8,0,0,0-3.3.04,9.083,9.083,0,0,0-2.939,1.819,15.6,15.6,0,0,0-2.376,2.751,21.168,21.168,0,0,0-1.691,2.913,41.242,41.242,0,0,0-2.82,9.5,73.615,73.615,0,0,0-1.046,13.305,20.445,20.445,0,0,0,.2,3.234,7.424,7.424,0,0,0,.526,1.9,2.047,2.047,0,0,0,.648.889,1.061,1.061,0,0,0,.486.2v.728h-9.381v-.728a1.084,1.084,0,0,0,.486-.2,1.859,1.859,0,0,0,.605-.889,10.688,10.688,0,0,0,.526-1.9,17.194,17.194,0,0,0,.242-3.234V114.738a17.315,17.315,0,0,0-.242-3.194,9.564,9.564,0,0,0-.526-1.9,2.247,2.247,0,0,0-.605-.889.972.972,0,0,0-.486-.242v-.728Z" transform="translate(-1001.151 -88.372)" fill="#fff"/>
    </g>
  </g>
</svg>
