<svg xmlns="http://www.w3.org/2000/svg" xmlns:xlink="http://www.w3.org/1999/xlink" width="341.237" height="71.716" viewBox="0 0 341.237 71.716">
  <defs>
    <linearGradient id="linear-gradient" y1="0.5" x2="1" y2="0.5" gradientUnits="objectBoundingBox">
      <stop offset="0.01" stop-color="#7bc2a6"/>
      <stop offset="0.99" stop-color="#b3fa07"/>
    </linearGradient>
    <linearGradient id="linear-gradient-2" x1="-0.058" y1="0.5" x2="0.806" y2="0.5" gradientUnits="objectBoundingBox">
      <stop offset="0.01" stop-color="#b3fa07"/>
      <stop offset="0.99" stop-color="#7bc2a6"/>
    </linearGradient>
  </defs>
  <g id="LogoDesigns-11" transform="translate(-56.095 -35.57)">
    <g id="Group_30" data-name="Group 30" transform="translate(56.095 51.528)">
      <g id="Group_29" data-name="Group 29" transform="translate(37.545 0)">
        <path id="Path_26" data-name="Path 26" d="M225.136,135.895a16.06,16.06,0,0,1-3.8-.533,6.86,6.86,0,0,1-1.54-.625,20.716,20.716,0,0,1-4.64-3.514,33.74,33.74,0,0,1-5.167-6.614q-5.485-8.973-10.964-17.951c-.076-.124-.15-.248-.237-.364a1.285,1.285,0,0,1-.2-1.268,2.916,2.916,0,0,1,.282-.585q1.447-2.3,2.91-4.6a7.948,7.948,0,0,1,3.338-3.029,7.679,7.679,0,0,1,5.418-.4,11.109,11.109,0,0,1,6.852,5.344c2.212,3.788,4.382,7.6,6.593,11.391,1.384,2.37,2.805,4.716,4.229,7.06.759,1.25,1.582,2.462,2.33,3.717a13.3,13.3,0,0,1,1.611,3.9,6.722,6.722,0,0,1-.208,3.96,5.92,5.92,0,0,1-4.4,3.828,10.558,10.558,0,0,1-1.25.208C225.911,135.879,225.524,135.879,225.136,135.895Z" transform="translate(-198.509 -96.103)" fill="url(#linear-gradient)"/>
      </g>
      <path id="Path_27" data-name="Path 27" d="M116.855,138.52s-7.709-2.106-14.613-13.179-14.03-23.218-14.03-23.218-2.6-4.392-6.274-5.468-5.636.269-5.636.269-2.489,1.144-5.547,5.481-13.6,23.476-13.6,23.476-3.406,7.171,2.017,11.073a12.026,12.026,0,0,0,7.126,2.106l50.955,0a.192.192,0,0,0,.2-.256S117.443,138.67,116.855,138.52Z" transform="translate(-56.095 -96.202)" fill="url(#linear-gradient-2)"/>
    </g>
    <g id="Group_31" data-name="Group 31" transform="translate(144.697 35.57)">
      <path id="Path_28" data-name="Path 28" d="M449.2,122.726v16.864a20.3,20.3,0,0,0,.2,3.211,7.382,7.382,0,0,0,.522,1.888,2.034,2.034,0,0,0,.643.883,1.054,1.054,0,0,0,.482.2v.722h-9.314v-.722a1.076,1.076,0,0,0,.482-.2,1.845,1.845,0,0,0,.6-.883,10.609,10.609,0,0,0,.522-1.888,17.064,17.064,0,0,0,.24-3.211V122.726q0-1.447-.161-3.493a22.579,22.579,0,0,0-.683-4.015,13.017,13.017,0,0,0-1.526-3.575,4.964,4.964,0,0,0-2.689-2.167,4.805,4.805,0,0,0-3.293.04,9.076,9.076,0,0,0-2.932,1.806,15.545,15.545,0,0,0-2.37,2.731,21.109,21.109,0,0,0-1.687,2.892,40.8,40.8,0,0,0-2.81,9.435,72.815,72.815,0,0,0-1.044,13.211,20.3,20.3,0,0,0,.2,3.211,7.378,7.378,0,0,0,.522,1.888,2.034,2.034,0,0,0,.643.883,1.054,1.054,0,0,0,.482.2v.722h-9.314v-.722a1.076,1.076,0,0,0,.482-.2,1.845,1.845,0,0,0,.6-.883,10.608,10.608,0,0,0,.522-1.888,17.061,17.061,0,0,0,.24-3.211V122.726q0-1.447-.161-3.493a22.343,22.343,0,0,0-.68-4.015,13.083,13.083,0,0,0-1.518-3.575,4.951,4.951,0,0,0-2.678-2.167,4.768,4.768,0,0,0-3.28.04,9.019,9.019,0,0,0-2.918,1.806,15.492,15.492,0,0,0-2.359,2.731,21,21,0,0,0-1.679,2.892,40.955,40.955,0,0,0-2.8,9.435,73.1,73.1,0,0,0-1.039,13.211,20.3,20.3,0,0,0,.2,3.211,7.381,7.381,0,0,0,.522,1.888,2.034,2.034,0,0,0,.643.883,1.054,1.054,0,0,0,.482.2v.722H392.18v-.722a1.076,1.076,0,0,0,.482-.2,1.844,1.844,0,0,0,.6-.883,10.606,10.606,0,0,0,.522-1.888,17.064,17.064,0,0,0,.24-3.211V114.7a17.181,17.181,0,0,0-.24-3.171,9.489,9.489,0,0,0-.522-1.888,2.231,2.231,0,0,0-.6-.883.964.964,0,0,0-.482-.24v-.722h7.469l-.079,20.8a60.546,60.546,0,0,1,1.366-6.665,35.568,35.568,0,0,1,1.848-5.3,28.48,28.48,0,0,1,1.848-3.293,16.052,16.052,0,0,1,2.449-2.932,12.283,12.283,0,0,1,3.05-2.128,8.221,8.221,0,0,1,3.654-.8,9.084,9.084,0,0,1,8.634,4.9,14.886,14.886,0,0,1,1.566,4.9,37.7,37.7,0,0,1,.4,5.46v5.863a50.963,50.963,0,0,1,1.284-6.665,30.365,30.365,0,0,1,1.927-5.3,20.091,20.091,0,0,1,1.806-3.293,18.5,18.5,0,0,1,2.449-2.932,11.387,11.387,0,0,1,3.05-2.128,8.475,8.475,0,0,1,3.693-.8,9.475,9.475,0,0,1,5.341,1.366,9.7,9.7,0,0,1,3.211,3.533,15.563,15.563,0,0,1,1.606,4.9A34.041,34.041,0,0,1,449.2,122.726Z" transform="translate(-392.18 -88.515)" fill="#13124c"/>
      <path id="Path_29" data-name="Path 29" d="M661.853,114.153a18.333,18.333,0,0,0-4.577-3.854,15.18,15.18,0,0,0-5.542-1.927,13.219,13.219,0,0,0-6.143.6,10.246,10.246,0,0,0-5.42,3.332,15.816,15.816,0,0,0-3.011,5.621,21.691,21.691,0,0,0-.923,6.625,28.646,28.646,0,0,0,.762,6.425l.24.722a21.329,21.329,0,0,0,3.976,7.79,16.35,16.35,0,0,0,5.581,4.376,14.828,14.828,0,0,0,6.264,1.405,15.573,15.573,0,0,0,6.024-1.165,13.541,13.541,0,0,0,4.819-3.332,10.776,10.776,0,0,0,2.649-5.059h.562a11.733,11.733,0,0,1-3.253,6.143,16.342,16.342,0,0,1-6.064,3.815,21.414,21.414,0,0,1-7.587,1.244,19.707,19.707,0,0,1-7.748-1.645,20.3,20.3,0,0,1-6.665-4.737,18.046,18.046,0,0,1-4.255-8.112,19.264,19.264,0,0,1-.482-7.79,19.454,19.454,0,0,1,7.429-12.77,19.4,19.4,0,0,1,7.026-3.454,21.483,21.483,0,0,1,7.187-.683,32.014,32.014,0,0,1,6.385,1.123,29.5,29.5,0,0,1,4.9,1.848q2,1,2.649,1.405h.322l-1.123,7.387-.722-.161A20.083,20.083,0,0,0,661.853,114.153Z" transform="translate(-567.94 -88.654)" fill="#13124c"/>
      <path id="Path_30" data-name="Path 30" d="M820.607,146.7h-7.469V123.573q0-2.167-.2-4.819a19.875,19.875,0,0,0-1-4.98,9.589,9.589,0,0,0-2.449-3.894,6.314,6.314,0,0,0-4.537-1.566,13.605,13.605,0,0,0-5.02.844,11.712,11.712,0,0,0-3.414,1.967,5.661,5.661,0,0,0-1.687,2.249,1.674,1.674,0,0,0,.161,1.766,1.97,1.97,0,0,0,1.083.6q.763.2,1.727.361c.643.108,1.326.214,2.048.322a8.7,8.7,0,0,1,2.048.562,8.96,8.96,0,0,1,4.215,3.332,14.813,14.813,0,0,1,2.209,5.1,20.9,20.9,0,0,1,.482,5.781,15.34,15.34,0,0,1-1.123,5.22,19.1,19.1,0,0,1-5.46,7.709,11.26,11.26,0,0,1-7.869,2.892,10.6,10.6,0,0,1-6.5-2.209,10.375,10.375,0,0,1-3.414-5.059,12.925,12.925,0,0,1-.2-6.5,15.524,15.524,0,0,1,3.092-6.5,18.957,18.957,0,0,1,6.5-5.1,24.426,24.426,0,0,1,10.079-2.328,1.384,1.384,0,0,1,.562-.079,9.868,9.868,0,0,0-2.81-1.687,11.723,11.723,0,0,0-3.132-.722,22.075,22.075,0,0,0-3.172-.082q-1.487.083-2.649.24t-1.487.24a4.234,4.234,0,0,1,.683-2.85,11.253,11.253,0,0,1,2.731-3.132,15.843,15.843,0,0,1,4.416-2.489,16.333,16.333,0,0,1,5.9-1,15.713,15.713,0,0,1,6.512,1.2,11.179,11.179,0,0,1,4.287,3.293,12.837,12.837,0,0,1,2.323,5.02,27.393,27.393,0,0,1,.693,6.3v16.221a20.3,20.3,0,0,0,.2,3.211,7.382,7.382,0,0,0,.522,1.888,2.034,2.034,0,0,0,.643.883,1.054,1.054,0,0,0,.482.2v.728ZM805.029,119.88a22.284,22.284,0,0,0-6.063.8,14.064,14.064,0,0,0-4.98,2.489,12.019,12.019,0,0,0-3.372,4.255,13.672,13.672,0,0,0-1.244,6.024,16.112,16.112,0,0,0,.361,3.372,10.58,10.58,0,0,0,1.2,3.132,8.989,8.989,0,0,0,2.128,2.489,6.679,6.679,0,0,0,3.132,1.366,6.833,6.833,0,0,0,3.614-.161A11,11,0,0,0,802.941,142a11.733,11.733,0,0,0,2.531-2.61,15.182,15.182,0,0,0,1.727-3.132,18.4,18.4,0,0,0,1-4.136,18.744,18.744,0,0,0,.04-4.416,15.987,15.987,0,0,0-1.044-4.215A13.122,13.122,0,0,0,805.029,119.88Z" transform="translate(-680.64 -88.721)"/>
      <path id="Path_31" data-name="Path 31" d="M947.426,93.55h-9.314v-.722a1.076,1.076,0,0,0,.482-.2,1.844,1.844,0,0,0,.6-.883,10.606,10.606,0,0,0,.522-1.888,17.062,17.062,0,0,0,.24-3.211V42.477a6.338,6.338,0,0,0-.844-2.731c-.348-.427-.63-.643-.844-.643l-.24-.722,7.548-2.81V86.643a20.3,20.3,0,0,0,.2,3.211,7.382,7.382,0,0,0,.522,1.888,2.034,2.034,0,0,0,.643.883,1.054,1.054,0,0,0,.482.2Z" transform="translate(-794.127 -35.57)"/>
      <path id="Path_32" data-name="Path 32" d="M988.89,72.331l7.63-2.892v31.8a20.3,20.3,0,0,0,.2,3.211,7.382,7.382,0,0,0,.522,1.888,2.035,2.035,0,0,0,.643.883,1.054,1.054,0,0,0,.482.2v.722h-9.4v-.722a1.094,1.094,0,0,0,.562-.2,1.845,1.845,0,0,0,.6-.883,10.611,10.611,0,0,0,.522-1.888,17.067,17.067,0,0,0,.24-3.211V76.425a6.069,6.069,0,0,0-.883-2.81c-.374-.427-.67-.643-.883-.643Zm4.218-9.4a3.709,3.709,0,0,1-2.718-1.084,3.845,3.845,0,0,1,0-5.378,3.951,3.951,0,0,1,5.436,0,3.845,3.845,0,0,1,0,5.378A3.713,3.713,0,0,1,993.108,62.935Z" transform="translate(-831.579 -50.165)"/>
      <path id="Path_33" data-name="Path 33" d="M1040.6,120.129a19.265,19.265,0,0,1-.482-7.79,20.065,20.065,0,0,1,2.449-7.147,19.713,19.713,0,0,1,4.938-5.7,19.017,19.017,0,0,1,6.986-3.454,18.242,18.242,0,0,1,7.83-.522,21.153,21.153,0,0,1,7.107,2.449l2.65-.722a33.312,33.312,0,0,0,5.542-1.888,11.951,11.951,0,0,0,2.771-1.687,2.622,2.622,0,0,0,.923-1.244q.079-.482.079-.562v-.079l.722-.161.722,2.971.161.722.722,2.971-.722.161a3.19,3.19,0,0,0-1.766-1.044,10.892,10.892,0,0,0-2.85-.361,20.636,20.636,0,0,0-4.7.6l-3.372.8a19.673,19.673,0,0,1,5.138,4.859,20.337,20.337,0,0,1,3.211,6.625,18.355,18.355,0,0,1,.522,7.508,20.535,20.535,0,0,1-2.249,6.947,19.835,19.835,0,0,1-4.577,5.663,18.941,18.941,0,0,1-6.546,3.654,16.763,16.763,0,0,1-3.733.965q-2.128.32-4.376.643t-4.458.683a15.937,15.937,0,0,0-3.854,1.084,5.924,5.924,0,0,0-2.528,1.967,4.36,4.36,0,0,0-.643,3.171,3.445,3.445,0,0,0,1.848,2.932,6.717,6.717,0,0,0,3.654.4,20.171,20.171,0,0,0,4.616-1.244,52.082,52.082,0,0,0,4.777-2.128q2.29-1.167,4.136-2.249t2.57-1.566q2.57-1.605,5.18-2.932a14.219,14.219,0,0,1,4.7-1.566,4.314,4.314,0,0,1,4.1,1.326,6.313,6.313,0,0,1,1.405,4.055,9.594,9.594,0,0,1-1.284,4.819,8.466,8.466,0,0,1-3.815,3.614,9.722,9.722,0,0,1-4.094.883,15.15,15.15,0,0,1-4.337-.643,19.237,19.237,0,0,1-4.176-1.806,16.711,16.711,0,0,1-3.454-2.61l.4-.4a24.567,24.567,0,0,0,7.068,4.094,5.939,5.939,0,0,0,7.748-2.407,11.1,11.1,0,0,0,1.366-3.092,7.282,7.282,0,0,0,.2-3.092,2.762,2.762,0,0,0-1.405-2.088,5.256,5.256,0,0,0-3.414-.24,18.762,18.762,0,0,0-5.863,2.57q-1.285.8-3.533,2.209t-4.98,2.85a56.045,56.045,0,0,1-5.581,2.57,17.766,17.766,0,0,1-5.3,1.284,7.369,7.369,0,0,1-4.255-.883,5.429,5.429,0,0,1-2.37-3.936,4.287,4.287,0,0,1,1.244-4.255,12.057,12.057,0,0,1,4.337-2.37,26.023,26.023,0,0,1,5.46-1.123q2.851-.281,4.777-.522a18.675,18.675,0,0,1-5.821-1.405,20.125,20.125,0,0,1-5.059-3.053,19.788,19.788,0,0,1-3.975-4.458A19.091,19.091,0,0,1,1040.6,120.129Zm32.6-8.753a26.531,26.531,0,0,0-2.531-5.942,21.941,21.941,0,0,0-4.136-5.3,16.1,16.1,0,0,0-5.46-3.372,10.114,10.114,0,0,0-6.425-.161,10.344,10.344,0,0,0-5.46,3.372,15.9,15.9,0,0,0-3.05,5.663,21.832,21.832,0,0,0-.923,6.665,24.9,24.9,0,0,0,.844,6.385,27.64,27.64,0,0,0,2.489,5.942,21.111,21.111,0,0,0,4.1,5.3,16.03,16.03,0,0,0,5.46,3.372,10.1,10.1,0,0,0,6.425.161,10.337,10.337,0,0,0,5.46-3.372,15.861,15.861,0,0,0,3.05-5.66,22.779,22.779,0,0,0,.965-6.665A23.827,23.827,0,0,0,1073.207,111.377Z" transform="translate(-869.159 -76.843)"/>
      <path id="Path_34" data-name="Path 34" d="M1221.3,107.782h7.469l-.079,20.8a46.332,46.332,0,0,1,1.326-6.665,39.021,39.021,0,0,1,1.888-5.3,28.479,28.479,0,0,1,1.848-3.293,16.053,16.053,0,0,1,2.449-2.932,12.284,12.284,0,0,1,3.05-2.128,8.22,8.22,0,0,1,3.654-.8,9.475,9.475,0,0,1,5.341,1.366,9.7,9.7,0,0,1,3.211,3.533,15.559,15.559,0,0,1,1.605,4.9,34.36,34.36,0,0,1,.443,5.46v16.864a20.3,20.3,0,0,0,.2,3.211,7.382,7.382,0,0,0,.522,1.888,2.035,2.035,0,0,0,.643.883,1.054,1.054,0,0,0,.482.2v.722h-9.314v-.722a1.076,1.076,0,0,0,.482-.2,1.845,1.845,0,0,0,.6-.883,10.606,10.606,0,0,0,.522-1.888,17.067,17.067,0,0,0,.24-3.211V122.716q0-1.447-.161-3.493a22.34,22.34,0,0,0-.68-4.015,13.083,13.083,0,0,0-1.518-3.575,4.952,4.952,0,0,0-2.678-2.167,4.768,4.768,0,0,0-3.28.04,9.018,9.018,0,0,0-2.918,1.806,15.493,15.493,0,0,0-2.359,2.731,21,21,0,0,0-1.679,2.892,40.959,40.959,0,0,0-2.8,9.435,73.1,73.1,0,0,0-1.039,13.211,20.289,20.289,0,0,0,.2,3.211,7.377,7.377,0,0,0,.522,1.888,2.035,2.035,0,0,0,.643.883,1.055,1.055,0,0,0,.482.2v.722h-9.314v-.722a1.076,1.076,0,0,0,.482-.2,1.845,1.845,0,0,0,.6-.883,10.616,10.616,0,0,0,.522-1.888,17.067,17.067,0,0,0,.24-3.211V114.686a17.187,17.187,0,0,0-.24-3.171,9.5,9.5,0,0,0-.522-1.888,2.232,2.232,0,0,0-.6-.883.965.965,0,0,0-.482-.24v-.722Z" transform="translate(-1002.718 -88.508)"/>
    </g>
  </g>
</svg>
