<svg xmlns="http://www.w3.org/2000/svg" xmlns:xlink="http://www.w3.org/1999/xlink" width="99.387" height="99.388" viewBox="0 0 99.387 99.388">
  <defs>
    <linearGradient id="linear-gradient" x1="0.5" x2="0.5" y2="1" gradientUnits="objectBoundingBox">
      <stop offset="0" stop-color="#a504fe"/>
      <stop offset="0.548" stop-color="#5650ec"/>
      <stop offset="1" stop-color="#01a2d7"/>
    </linearGradient>
  </defs>
  <g id="noun-revenue-2757523" transform="translate(-1.169)">
    <path id="Path_4558" data-name="Path 4558" d="M199,330.248a3.252,3.252,0,0,1,3.249,3.249H205.5a6.491,6.491,0,0,0-4.874-6.268v-3.48h-3.249V327H192.5v6.5A6.505,6.505,0,0,0,199,340a3.252,3.252,0,0,1,3.249,3.249v3.249H199a3.252,3.252,0,0,1-3.249-3.249H192.5a6.491,6.491,0,0,0,4.874,6.268v3.48h3.249v-3.249H205.5v-6.5a6.505,6.505,0,0,0-6.5-6.5,3.252,3.252,0,0,1-3.249-3.249v-3.249Z" transform="translate(-170.211 -266.601)" fill="url(#linear-gradient)"/>
    <path id="Path_4559" data-name="Path 4559" d="M150.031,19.952l6.023,6.023L118.9,63.129a27.366,27.366,0,0,0-6.141-2.261l31.977-31.977-29.021,2.234,6.224,6.222-24.11,24.11a27.609,27.609,0,1,0,34.788,34.788l24.11-24.11,6.222,6.222,2.234-29.019L133.2,81.314a27.39,27.39,0,0,0-2.261-6.139L168.1,38.02l6.022,6.023,4.016-28.106Zm-25.8,67.756a17.87,17.87,0,1,1-17.87-17.87A17.891,17.891,0,0,1,124.235,87.707ZM104.74,66.672a21,21,0,0,0-12.1,5.017l-2.3-2.3a24.227,24.227,0,0,1,14.4-5.969Zm-14.4,7.314a21,21,0,0,0-5.017,12.1H82.079a24.237,24.237,0,0,1,5.969-14.4ZM85.328,89.333a21,21,0,0,0,5.017,12.1l-2.3,2.3a24.223,24.223,0,0,1-5.969-14.395Zm7.314,14.4a21.006,21.006,0,0,0,12.1,5.017v3.249a24.237,24.237,0,0,1-14.4-5.969Zm15.347,5.017a21,21,0,0,0,12.1-5.017l2.3,2.3a24.227,24.227,0,0,1-14.4,5.969Zm14.4-7.314a21.006,21.006,0,0,0,5.017-12.1h3.249a24.237,24.237,0,0,1-5.969,14.4ZM127.4,86.084a21,21,0,0,0-5.017-12.1l2.3-2.3a24.228,24.228,0,0,1,5.969,14.4Zm-7.314-14.4a21.006,21.006,0,0,0-12.1-5.017V63.423a24.237,24.237,0,0,1,14.4,5.969Zm6.445-34.34-3.524-3.525,13.219-1.015L108.816,60.215c-.809-.071-1.623-.123-2.451-.123-.916,0-1.821.05-2.715.138Zm34.736,20.5-1.015,13.219-3.525-3.525L133.845,90.424c.088-.894.138-1.8.138-2.715,0-.828-.052-1.643-.123-2.451Zm10.556-20.7L168.1,33.427,129.254,72.271a27.846,27.846,0,0,0-7.45-7.45l38.844-38.844-3.725-3.725,17.383-2.482Z" transform="translate(-77.578 -15.937)" fill="url(#linear-gradient)"/>
    <path id="Path_4560" data-name="Path 4560" d="M343.81,259.562l3.248-3.248,2.3,2.3-3.248,3.248Z" transform="translate(-293.429 -211.685)" fill="url(#linear-gradient)"/>
    <path id="Path_4561" data-name="Path 4561" d="M370.06,162.055l19.495-19.495,2.3,2.3-19.495,19.495Z" transform="translate(-314.805 -119.051)" fill="url(#linear-gradient)"/>
    <path id="Path_4562" data-name="Path 4562" d="M396.31,372.055,415.8,352.56l2.3,2.3-19.495,19.495Z" transform="translate(-336.182 -290.062)" fill="url(#linear-gradient)"/>
    <path id="Path_4563" data-name="Path 4563" d="M370.06,469.562l3.248-3.248,2.3,2.3-3.248,3.248Z" transform="translate(-314.805 -382.696)" fill="url(#linear-gradient)"/>
    <path id="Path_4564" data-name="Path 4564" d="M160.06,135.8l19.495-19.495,2.3,2.3L162.358,138.1Z" transform="translate(-143.794 -97.675)" fill="url(#linear-gradient)"/>
    <path id="Path_4565" data-name="Path 4565" d="M133.81,233.312l3.248-3.248,2.3,2.3-3.248,3.248Z" transform="translate(-122.418 -190.309)" fill="url(#linear-gradient)"/>
  </g>
</svg>
