<svg id="noun-channels-2063722" xmlns="http://www.w3.org/2000/svg" xmlns:xlink="http://www.w3.org/1999/xlink" width="130.216" height="122.166" viewBox="0 0 130.216 122.166">
  <defs>
    <linearGradient id="linear-gradient" x1="0.5" x2="0.5" y2="1" gradientUnits="objectBoundingBox">
      <stop offset="0" stop-color="#a504fe"/>
      <stop offset="0.506" stop-color="#5650ec"/>
      <stop offset="1" stop-color="#01a2d7"/>
    </linearGradient>
  </defs>
  <path id="Path_4508" data-name="Path 4508" d="M542.327,740.794l3.7-18.362a1.316,1.316,0,0,0-.959-1.233,1.2,1.2,0,0,0-1.233.822l-3.7,18.5A13.973,13.973,0,0,0,525.2,753.538a13.241,13.241,0,0,0,2.192,8.5A13.988,13.988,0,1,0,550.96,746.96a13.692,13.692,0,0,0-8.633-6.166Zm8.5,16.17a12.02,12.02,0,0,1-5.207,7.4,11.766,11.766,0,1,1,3.7-16.17,12.715,12.715,0,0,1,1.508,8.77Z" transform="translate(-468.584 -646.377)" fill="url(#linear-gradient)"/>
  <path id="Path_4509" data-name="Path 4509" d="M71.5,465.277a14.054,14.054,0,0,0,16.718-10.551l16.17-.274a1.1,1.1,0,0,0,0-2.193l-15.759.274A13.973,13.973,0,0,0,75.61,437.6a13.242,13.242,0,0,0-8.5,2.192,13.857,13.857,0,0,0-4.248,19.321,13.689,13.689,0,0,0,8.633,6.167Zm-8.633-16.17a11.844,11.844,0,0,1,11.511-9.318,16.8,16.8,0,0,1,2.6.274,11.719,11.719,0,0,1,3.837,21.376,11.67,11.67,0,0,1-16.307-3.7,11.959,11.959,0,0,1-1.645-8.633Z" transform="translate(-57.09 -395.113)" fill="url(#linear-gradient)"/>
  <path id="Path_4510" data-name="Path 4510" d="M258.37,87.484a10.452,10.452,0,0,0,5.755-1.644l.548-.411a.713.713,0,0,0,.274.548L279.2,101.05a1.007,1.007,0,0,0,.822.274,1.948,1.948,0,0,0,.822-.274,1.075,1.075,0,0,0,0-1.507L266.454,84.47c-.137-.137-.274-.274-.411-.274a10.731,10.731,0,1,0-18.225-9.729,10.526,10.526,0,0,0,1.507,8.085,10.419,10.419,0,0,0,9.044,4.933Zm-8.5-12.744a7.91,7.91,0,0,1,3.7-5.344,8.069,8.069,0,0,1,4.659-1.37,4.668,4.668,0,0,1,1.919.274A7.91,7.91,0,0,1,265.5,72a8.629,8.629,0,0,1-14.525,9.318,8.459,8.459,0,0,1-1.1-6.577Z" transform="translate(-222.721 -65.967)" fill="url(#linear-gradient)"/>
  <path id="Path_4511" data-name="Path 4511" d="M948.368,670.357a10.636,10.636,0,0,0-8.085,1.507,9.446,9.446,0,0,0-1.782,1.507l-6.989-6.166a1.075,1.075,0,0,0-1.507,0,1.247,1.247,0,0,0,0,1.644l6.988,6.3a9.04,9.04,0,0,0-1.644,3.7,10.809,10.809,0,1,0,13.018-8.5Zm6.03,12.47a7.91,7.91,0,0,1-3.7,5.344,8.629,8.629,0,1,1-9.318-14.525,9.156,9.156,0,0,1,4.522-1.37,4.668,4.668,0,0,1,1.919.274,8.708,8.708,0,0,1,6.577,10.277Z" transform="translate(-826.939 -598.275)" fill="url(#linear-gradient)"/>
  <path id="Path_4512" data-name="Path 4512" d="M603.966,166.465c7.537,0,13.566-7.263,13.566-16.033S611.366,134.4,603.966,134.4,590.4,141.663,590.4,150.433,596.429,166.465,603.966,166.465Zm0-29.873c6.3,0,11.374,6.166,11.374,13.84s-5.07,13.84-11.374,13.84-11.374-6.166-11.374-13.84,5.07-13.84,11.374-13.84Z" transform="translate(-526.386 -126.585)" fill="url(#linear-gradient)"/>
  <path id="Path_4513" data-name="Path 4513" d="M547.73,447.6a35.028,35.028,0,0,1-8.085-4.248,1.083,1.083,0,1,0-1.233,1.781c.274.137,5.755,3.837,8.77,4.522,1.507.274,4.111,1.233,4.522,3.563a40.006,40.006,0,0,1,.411,8.085c-.137.411-1.37,1.644-5.207,3.152a53.018,53.018,0,0,1-15.347,2.6,67.635,67.635,0,0,1-15.758-2.6c-3.837-1.37-5.07-2.741-5.207-3.014a41.359,41.359,0,0,1,.411-8.222c.411-2.329,3.014-3.289,4.522-3.563,2.877-.685,8.5-4.385,8.77-4.522a1.083,1.083,0,1,0-1.233-1.781,34.983,34.983,0,0,1-8.085,4.248c-3.426.822-5.618,2.741-6.166,5.344a49.989,49.989,0,0,0-.411,9.044c.411,1.644,2.741,3.289,6.578,4.659a67.835,67.835,0,0,0,16.581,2.878,58.813,58.813,0,0,0,16.17-2.741c3.837-1.37,6.3-3.152,6.578-4.659a49.989,49.989,0,0,0-.411-9.044c-.549-2.741-2.741-4.659-6.167-5.482Z" transform="translate(-453.706 -400.044)" fill="url(#linear-gradient)"/>
  <path id="Path_4514" data-name="Path 4514" d="M864.235,125.128a1.047,1.047,0,0,0,.685-.274l21.514-18.636a7.252,7.252,0,0,0,4.111,1.233h.548a7.678,7.678,0,0,0,4.385-13.429A7.208,7.208,0,0,0,890,92.24a7.626,7.626,0,0,0-6.989,8.085,7.35,7.35,0,0,0,1.782,4.385l-21.377,18.636a1.085,1.085,0,0,0-.137,1.507,1.157,1.157,0,0,0,.959.274ZM890,94.433h.548a5.351,5.351,0,1,1-5.618,5.07A5.344,5.344,0,0,1,890,94.433Z" transform="translate(-767.882 -89.222)" fill="url(#linear-gradient)"/>
  <path id="Path_4515" data-name="Path 4515" d="M86.3,693.011a1.085,1.085,0,0,0-1.507-.137L42.994,726.035l-.685-.685a7.387,7.387,0,0,0-5.481-1.782,7.662,7.662,0,0,0-5.207,2.6,7.208,7.208,0,0,0-1.782,5.481,7.5,7.5,0,0,0,7.537,6.988h.548a7.626,7.626,0,0,0,6.988-8.085,5.666,5.666,0,0,0-.685-2.6l41.931-33.435a1.084,1.084,0,0,0,.137-1.507ZM41.487,734.668a5.45,5.45,0,0,1-3.7,1.919,5.388,5.388,0,0,1-1.37-10.689h.959a5.351,5.351,0,0,1,5.344,5.344,5.263,5.263,0,0,1-1.233,3.426Z" transform="translate(-29.818 -621.066)" fill="url(#linear-gradient)"/>
</svg>
