<svg xmlns="http://www.w3.org/2000/svg" xmlns:xlink="http://www.w3.org/1999/xlink" width="93.249" height="93.257" viewBox="0 0 93.249 93.257">
  <defs>
    <linearGradient id="linear-gradient" x1="0.5" x2="0.5" y2="1" gradientUnits="objectBoundingBox">
      <stop offset="0" stop-color="#a504fe"/>
      <stop offset="0.502" stop-color="#5650ec"/>
      <stop offset="1" stop-color="#01a2d7"/>
    </linearGradient>
  </defs>
  <g id="noun-budget-4066315" transform="translate(-2.723)">
    <path id="Path_4488" data-name="Path 4488" d="M308.153,314.6h-.171v-7.77h4.492a1.554,1.554,0,1,0,0-3.108h-4.492v-4.662a1.554,1.554,0,1,0-3.108,0v4.662H304.7a7.024,7.024,0,1,0,0,13.987h.171v7.77h-4.492a1.554,1.554,0,1,0,0,3.108h4.492v4.662a1.554,1.554,0,1,0,3.108,0v-4.662h.171a7.024,7.024,0,1,0,0-13.987Zm-3.45,0h0a3.9,3.9,0,1,1,0-7.77h.171v7.77Zm3.45,10.879h-.171V317.7h.171a3.932,3.932,0,1,1,0,7.77Z" transform="translate(-257.083 -247.758)" fill="url(#linear-gradient)"/>
    <path id="Path_4489" data-name="Path 4489" d="M178.151,44.974l-25.269-1.1a1.554,1.554,0,0,0-1.166,2.657l3.31,3.295-6.916,6.916V37.654h4.662a1.563,1.563,0,0,0,1.057-2.7l-18.649-17.1a1.555,1.555,0,0,0-2.113,0l-18.649,17.1a1.563,1.563,0,0,0,1.057,2.7h4.662V56.738l-6.916-6.916,3.31-3.295A1.56,1.56,0,0,0,115.3,43.87l-25.269,1.1h0a1.554,1.554,0,0,0-1.554,1.554L87.5,71.736A1.554,1.554,0,0,0,90.159,72.9l3.295-3.31,15.805,15.836v.4a24.866,24.866,0,0,0,49.731,0v-.4L174.8,69.591l3.295,3.31a1.554,1.554,0,0,0,2.657-1.166l-1.1-25.269a1.555,1.555,0,0,0-1.492-1.492ZM119.468,34.546l14.655-13.428,14.655,13.428h-2.222A1.554,1.554,0,0,0,145,36.1V63.5a24.877,24.877,0,0,0-4.662-1.71V36.1a1.554,1.554,0,0,0-3.108,0V61.183a22.317,22.317,0,0,0-6.216,0V36.1a1.554,1.554,0,0,0-3.108,0v25.69a24.877,24.877,0,0,0-4.662,1.71V36.1a1.554,1.554,0,0,0-1.554-1.554ZM94.6,66.3a1.555,1.555,0,0,0-2.207,0L90.842,67.85,91.712,48l19.846-.87L110,48.688a1.555,1.555,0,0,0,0,2.207L120.137,61.12v4.165a24.866,24.866,0,0,0-10.459,16.131Zm39.52,41.293a21.757,21.757,0,1,1,15.385-6.372A21.758,21.758,0,0,1,134.123,107.588ZM175.9,66.3a1.555,1.555,0,0,0-2.207,0L158.569,81.417A24.865,24.865,0,0,0,148.11,65.285V61.121l10.21-10.194a1.555,1.555,0,0,0,0-2.207l-1.554-1.554,19.846.87.87,19.846Z" transform="translate(-84.778 -17.44)" fill="url(#linear-gradient)"/>
  </g>
</svg>
