<svg xmlns="http://www.w3.org/2000/svg" xmlns:xlink="http://www.w3.org/1999/xlink" width="122.101" height="93.257" viewBox="0 0 122.101 93.257">
  <defs>
    <linearGradient id="linear-gradient" x1="0.5" x2="0.5" y2="1" gradientUnits="objectBoundingBox">
      <stop offset="0" stop-color="#a504fe"/>
      <stop offset="0.527" stop-color="#5650ec"/>
      <stop offset="1" stop-color="#01a2d7"/>
    </linearGradient>
  </defs>
  <g id="noun-dashboard-1562539" transform="translate(-6.7)">
    <path id="Path_4516" data-name="Path 4516" d="M220.188,51.961H112.137a7.032,7.032,0,0,0-7.023,7.023V138.16a7.03,7.03,0,0,0,7.023,7.022h41.992c8.583.074,14.071.011,24.07,0h41.992a7.03,7.03,0,0,0,7.023-7.022V58.984a7.034,7.034,0,0,0-7.026-7.023Zm4.806,86.2a4.811,4.811,0,0,1-4.806,4.8H112.135a4.809,4.809,0,0,1-4.8-4.8V58.983a4.808,4.808,0,0,1,4.8-4.8H220.186a4.809,4.809,0,0,1,4.806,4.8v79.176Z" transform="translate(-98.414 -51.961)" fill="url(#linear-gradient)"/>
    <path id="Path_4517" data-name="Path 4517" d="M238.816,78.793H131.035a1.11,1.11,0,0,0-1.11,1.11v72.406a1.111,1.111,0,0,0,1.11,1.11H238.816a1.109,1.109,0,0,0,1.11-1.11V79.9A1.11,1.11,0,0,0,238.816,78.793ZM237.705,151.2H132.147V81.013H237.705Z" transform="translate(-117.178 -72.254)" fill="url(#linear-gradient)"/>
    <path id="Path_4518" data-name="Path 4518" d="M336.485,400.03H321.577a1.11,1.11,0,1,0,0,2.22h14.908a1.11,1.11,0,1,0,0-2.22Z" transform="translate(-261.282 -315.2)" fill="url(#linear-gradient)"/>
    <path id="Path_4519" data-name="Path 4519" d="M169.569,196.065a1.111,1.111,0,0,0,1.11,1.11h87.9a1.11,1.11,0,1,0,0-2.22h-1.24a27.93,27.93,0,0,0-25.567-39.144c-.532,0-1.061.019-1.587.049a28.242,28.242,0,0,0-31.113,0c-.525-.029-1.055-.049-1.586-.049a27.928,27.928,0,0,0-25.566,39.144h-1.24a1.109,1.109,0,0,0-1.112,1.11Zm24.126-1.112a25.737,25.737,0,0,1-5.088-14.387h4.882a21.156,21.156,0,0,0,6.717,14.387Zm35.358,0a21.159,21.159,0,0,0,6.717-14.387h4.883a25.757,25.757,0,0,1-5.09,14.387Zm28.417-11.221a25.414,25.414,0,0,1-2.575,11.224H238.267a27.95,27.95,0,0,0,4.628-15.5,28.253,28.253,0,0,0-9.793-21.392,25.731,25.731,0,0,1,24.368,25.666Zm-41.729-30.294a25.849,25.849,0,0,1,13.517,4.47l.048.031a26.045,26.045,0,0,1,11.344,20.409h-4.878a21.2,21.2,0,0,0-20.031-20.032Zm17.839,26.019a18.944,18.944,0,0,1-8.046,15.5H203.727a18.95,18.95,0,1,1,29.853-15.5Zm-33.623-21.518.047-.029a25.829,25.829,0,0,1,13.519-4.47v4.878a21.2,21.2,0,0,0-20.031,20.032h-4.878a26.038,26.038,0,0,1,11.344-20.412Zm-28.169,25.795a25.731,25.731,0,0,1,24.367-25.666,28.255,28.255,0,0,0-9.794,21.392,27.96,27.96,0,0,0,4.627,15.5H174.359a25.475,25.475,0,0,1-2.571-11.224Z" transform="translate(-147.159 -127.006)" fill="url(#linear-gradient)"/>
    <path id="Path_4520" data-name="Path 4520" d="M339.564,218.213a3.63,3.63,0,0,0,7.259,0,.271.271,0,0,1,0-.029c0-.009,0-.018,0-.026,0-.031-.009-.063-.01-.1s0-.06-.007-.09l-.142-.841a.052.052,0,0,0,0-.016.021.021,0,0,1,0-.009c0-.009,0-.015,0-.022l-2.37-13.8a.292.292,0,0,0-.009-.03c-.009-.041-.021-.079-.032-.119s-.019-.063-.03-.092-.032-.066-.051-.1-.031-.062-.05-.09-.045-.059-.07-.089a.945.945,0,0,0-.066-.073c-.029-.029-.063-.054-.094-.082s-.042-.035-.067-.051a.726.726,0,0,0-.113-.064.621.621,0,0,0-.075-.038.764.764,0,0,0-.114-.038c-.031-.01-.064-.021-.1-.029a.24.24,0,0,1-.035-.01c-.028,0-.054,0-.081-.006l-.1-.009a1.065,1.065,0,0,0-.124.009c-.023,0-.045,0-.07,0-.009,0-.019.007-.029.009-.04.009-.078.021-.114.031s-.069.021-.1.034a.993.993,0,0,0-.09.045,1.155,1.155,0,0,0-.1.057c-.028.018-.05.04-.075.059s-.06.049-.088.076a.963.963,0,0,0-.066.076c-.025.029-.048.056-.069.086s-.034.06-.051.09a.991.991,0,0,0-.051.1c-.012.03-.022.062-.031.092a1.041,1.041,0,0,0-.032.119c0,.01-.007.019-.009.029l-2.376,13.837c0,.009,0,.015,0,.025l-.142.823a.787.787,0,0,0-.006.094c0,.031-.009.063-.009.094v.023a.292.292,0,0,0,0,.032Zm2.346-.708c0-.009,0-.018,0-.025l1.28-7.445,1.281,7.467a.212.212,0,0,0,.009.047l.116.671a1.408,1.408,0,0,1-2.813,0Z" transform="translate(-275.723 -165.712)" fill="url(#linear-gradient)"/>
  </g>
</svg>
