<svg xmlns="http://www.w3.org/2000/svg" width="127.116" height="48.712" viewBox="0 0 127.116 48.712">
  <g id="header-bd-logo" transform="translate(0)">
    <path id="Path_1011" data-name="Path 1011" d="M48.732,24.356a24.355,24.355,0,1,1-1.854-9.321A24.356,24.356,0,0,1,48.732,24.356Z" transform="translate(0.02)"/>
    <path id="Path_1012" data-name="Path 1012" d="M48.13,39.429H34.686a2.89,2.89,0,0,1-2.89-2.986V6.079A2.842,2.842,0,0,1,34.686,3.2H47.254C54.162,3.2,58.3,7.218,58.3,12.435S55.073,19.63,53.946,20c1.739.444,6.476,2.4,6.476,9.054C60.422,34.716,55.853,39.429,48.13,39.429ZM47,8.525H37.625v9.138H47c3.718,0,5.468-2.063,5.468-4.569S50.828,8.525,47,8.525Zm1.331,14.391H37.625V34.045H48.334c4.293,0,6.26-2.782,6.26-5.552s-1.943-5.552-6.26-5.552ZM77.115,39.405H68.253a2.878,2.878,0,0,1-2.938-2.962V6.079A2.878,2.878,0,0,1,68.253,3.2h8.922C89.263,3.2,96,11.26,96,21.309s-6.812,18.12-18.828,18.12Zm-.3-30.88H71.191V34.045h5.624c8.562,0,13.335-5.061,13.335-12.784S85.437,8.525,76.815,8.525Z" transform="translate(31.114 3.132)" fill="#fff"/>
    <path id="Path_1013" data-name="Path 1013" d="M13.959,23.074.24,27.763A24.622,24.622,0,0,1,0,24.357a24.224,24.224,0,0,1,2.135-9.965l11.872,8.394c.072.06.108.108.108.156s-.072.132-.156.156ZM24.2.073A24.116,24.116,0,0,0,11.213,3.887L21.178,14.44c.072.072.12.108.18.108s.12,0,.144-.156C21.586,13.72,24.2.073,24.2.073ZM16.549,17.582a.288.288,0,0,0,0-.12L11.057,3.983a24.416,24.416,0,0,0-8.85,10.229L16.3,17.7h.12a.12.12,0,0,0,.132-.12Zm18.06,5.492L48.34,27.763a24.6,24.6,0,0,0,.228-3.406,24.226,24.226,0,0,0-2.123-9.965L34.562,22.786c-.072.06-.108.108-.108.156S34.538,23.05,34.609,23.074Zm-7.543-8.682a.149.149,0,0,0,.156.156c.06,0,.108,0,.168-.108L37.368,3.887A24.177,24.177,0,0,0,24.38.073S26.946,13.72,27.066,14.392Zm5.085,3.322h.12l14.091-3.49a24.414,24.414,0,0,0-8.85-10.229s-5.432,13.419-5.468,13.479a1.009,1.009,0,0,0,0,.12.12.12,0,0,0,.108.12Z" transform="translate(0 0.072)" fill="#fff"/>
    <path id="Path_1014" data-name="Path 1014" d="M24.149,35.071A24.309,24.309,0,0,0,48.133,14.432L39.079,15.7a.228.228,0,0,0-.228.192A15.59,15.59,0,0,1,26.919,26.125a6.416,6.416,0,1,0-5.612,0A15.589,15.589,0,0,1,9.458,15.9.24.24,0,0,0,9.23,15.7L.14,14.432A24.3,24.3,0,0,0,24.124,35.071" transform="translate(0.137 13.641)" fill="#fff"/>
  </g>
</svg>
