<svg xmlns="http://www.w3.org/2000/svg" width="280.517" height="37.154" viewBox="0 0 280.517 37.154">
  <path id="Shape_2_copy_2" data-name="Shape 2 copy 2" d="M27.593,8.4a13.5,13.5,0,0,0-8.954-3.417c-7.6,0-13.409,6.515-13.409,14.232,0,7.622,5.76,14.141,13.317,14.141a13.387,13.387,0,0,0,9.046-3.6L29.735,33.1A17.352,17.352,0,0,1,18.686,37.33C9.014,37.632,1,29.426,1,19.353A18.073,18.073,0,0,1,19.043,1.007,14.417,14.417,0,0,1,29.737,5.145ZM64.26,19.168a17.778,17.778,0,1,1-35.547,0A18.066,18.066,0,0,1,46.488,1.007,18.064,18.064,0,0,1,64.262,19.168Zm-4.233,0c0-7.67-5.579-14.095-13.541-14.095S32.942,11.5,32.942,19.168a13.818,13.818,0,0,0,13.546,14.1,13.814,13.814,0,0,0,13.541-14.1ZM157.955,9.4a4.669,4.669,0,0,0-4.936-4.331c-2.7,0-5.669,1.9-5.669,4.947,0,2.725,2.609,4.159,4.725,4.99l2.429.97c4.816,1.94,8.417,4.666,8.417,10.49a10.6,10.6,0,0,1-10.846,10.86c-5.491,0-9.967-3.95-10.484-10.59l4.276-.084a6.437,6.437,0,0,0,6.567,6.608c3.643,0,6.257-3.141,6.257-6.793,0-3.743-2.924-5.36-5.85-6.608L150.5,18.845c-3.869-1.711-7.381-3.973-7.381-8.825,0-5.64,4.861-9.013,9.99-9.013,3.782,0,8.111,2.313,8.729,8.414ZM234.744,36.59h-4.225V1.746h4.854c10.441,0,13.681,3.7,13.681,10.074,0,7.348-5.441,10.168-11.88,10.168h-2.429v14.6Zm0-18.485H236.1c4.317,0,9-.833,9-6.377,0-5.451-5.039-6.1-9.223-6.1h-1.129ZM252.071,1.746h18.224V5.72H256.3v9.751h13.589v3.974H256.3V32.615h13.994V36.59H252.071ZM191.2,8.4a13.49,13.49,0,0,0-8.954-3.417c-7.606,0-13.411,6.516-13.411,14.234,0,7.622,5.761,14.141,13.32,14.141a13.377,13.377,0,0,0,9.046-3.6l2.147,3.346a17.36,17.36,0,0,1-11.056,4.23c-9.667.3-17.685-7.9-17.685-17.977A18.074,18.074,0,0,1,182.653,1.007a14.425,14.425,0,0,1,10.7,4.139ZM96.809,36.584h4.267L98.969,1.842H93.4l-6.025,16.8c-1.506,4.383-2.709,8.2-3.563,11.7h-.151c-.851-3.609-2.006-7.422-3.413-11.7l-5.772-16.8H68.9L66.546,36.583h4.167l.9-14.9c.3-5.208.552-11.032.652-15.362h.1c.956,4.124,2.31,8.608,3.916,13.506l5.471,16.542h3.313l5.971-16.85c1.707-4.744,3.113-9.125,4.266-13.2h.149c-.048,4.33.251,10.154.5,15Zm38.178,0h4.267L137.146,1.842h-5.57l-6.023,16.8c-1.508,4.383-2.709,8.2-3.564,11.7h-.15c-.852-3.609-2.008-7.422-3.413-11.7l-5.773-16.8h-5.57l-2.357,34.741h4.165l.905-14.9c.3-5.208.551-11.032.652-15.362h.1c.953,4.124,2.309,8.608,3.916,13.506l5.469,16.542h3.308l5.973-16.851c1.707-4.744,3.111-9.125,4.265-13.2h.152c-.051,4.33.251,10.154.5,15Zm141.67-30.7h.449a.73.73,0,0,1,.853.67,3.443,3.443,0,0,0,.324,1.005h1.029a2.786,2.786,0,0,1-.3-1.031c-.126-.564-.352-.9-.752-1.029v-.05a1.082,1.082,0,0,0,.85-1.005,1.166,1.166,0,0,0-.4-.9,2.289,2.289,0,0,0-1.428-.335,7.617,7.617,0,0,0-1.579.155V7.561h.954V5.886Zm.023-1.9a2.275,2.275,0,0,1,.527-.052c.6,0,.874.258.874.643,0,.44-.424.618-.95.618h-.452V3.984Zm.626-2.831a4.24,4.24,0,1,0,.028,0Zm0,.848a3.222,3.222,0,0,1,3.16,3.372,3.186,3.186,0,0,1-3.132,3.37,3.231,3.231,0,0,1-3.211-3.37A3.238,3.238,0,0,1,277.282,2h.023Zm-59.943.419c-5.563-2.043-12.932.7-13.7,6.277-.727,5.329,2.484,8.337,9.252,9.674,7.021,1.384,6.216,7.507,4.451,9.567-2.83,3.3-7.168,3.625-10.619,2.436A14.669,14.669,0,0,1,195.9,13.5C197.289,4.961,204.3.749,211.527.766a18.6,18.6,0,1,0,5.836,1.652Z" transform="translate(-1 -0.647)" fill="#fff" fill-rule="evenodd"/>
</svg>
