<svg xmlns="http://www.w3.org/2000/svg" width="255.821" height="44.776" viewBox="0 0 255.821 44.776">
  <path id="cyient-logo-vector" d="M29.7,291.545a13.122,13.122,0,0,1,13.134-13.177A13.924,13.924,0,0,1,54,283.912l6.738-6.311a23.028,23.028,0,0,0-17.91-8.4,22.391,22.391,0,0,0-.512,44.776,23.042,23.042,0,0,0,18.721-8.827l-6.823-6.226a14.144,14.144,0,0,1-11.386,5.842A13.158,13.158,0,0,1,29.7,291.545m63.369,3.8,17.313-24.989H99.76L88.545,287.2,77.33,270.351H66.541L83.9,295.426V312.91h9.168V295.341Zm26.226,17.527H128.5V270.309h-9.211v42.559Zm25.373,0h30.959v-8.7H153.662V279.051h21.962v-8.7H144.664Zm21.407-15.394a5.991,5.991,0,1,0-5.97-6.013,6.033,6.033,0,0,0,5.97,6.013m52.836,15.394h8.145V270.309h-9v27.079l-20.213-27.079h-8.785v42.559h9V284.936Zm57.313-33.817v-8.7H238.992v8.7h14.03v33.817h9.211V279.051Z" transform="translate(-20.4 -269.2)" fill="#fff"/>
</svg>
