<svg xmlns="http://www.w3.org/2000/svg" width="240.245" height="64.426" viewBox="0 0 240.245 64.426">
  <g id="zoominfo-logo-vector-2022" transform="translate(0)">
    <path id="svg_1" d="M227.9,314.709v-3.644l13.534-12.693h-9.49v2.483h-3.8v-5.966h18.379v3.644l-13.414,12.613h9.81v-2.522h3.8v6.086Zm30.711.4a10.359,10.359,0,0,1-4-.8,10.223,10.223,0,0,1-5.486-5.486,10.41,10.41,0,0,1,0-8.008,10.223,10.223,0,0,1,5.486-5.486,10.663,10.663,0,0,1,4-.8,10.509,10.509,0,0,1,4,.8,10.223,10.223,0,0,1,5.486,5.486,10.411,10.411,0,0,1,0,8.008,10.223,10.223,0,0,1-5.486,5.486A10.663,10.663,0,0,1,258.611,315.11Zm0-3.8a6.14,6.14,0,0,0,4.485-1.882,6.885,6.885,0,0,0,1.321-2.042,6.487,6.487,0,0,0,0-5.045,6.885,6.885,0,0,0-1.321-2.042,5.844,5.844,0,0,0-2-1.4,6.361,6.361,0,0,0-2.443-.521,5.7,5.7,0,0,0-2.442.521,6.286,6.286,0,0,0-3.283,3.444,6.861,6.861,0,0,0,0,5.045,6.425,6.425,0,0,0,3.283,3.444A5.72,5.72,0,0,0,258.611,311.306Zm22.223,3.8a10.359,10.359,0,0,1-4-.8,10.223,10.223,0,0,1-5.486-5.486,10.411,10.411,0,0,1,0-8.008,10.223,10.223,0,0,1,5.486-5.486,10.663,10.663,0,0,1,4-.8,10.509,10.509,0,0,1,4,.8,10.223,10.223,0,0,1,5.486,5.486,10.411,10.411,0,0,1,0,8.008,10.223,10.223,0,0,1-5.486,5.486A10.359,10.359,0,0,1,280.834,315.11Zm0-3.8a6.14,6.14,0,0,0,4.485-1.882,6.885,6.885,0,0,0,1.321-2.042,6.487,6.487,0,0,0,0-5.045,6.884,6.884,0,0,0-1.321-2.042,5.844,5.844,0,0,0-2-1.4,6.362,6.362,0,0,0-2.443-.521,5.7,5.7,0,0,0-2.443.521,6.286,6.286,0,0,0-3.283,3.444,6.861,6.861,0,0,0,0,5.045,6.425,6.425,0,0,0,3.283,3.444A5.988,5.988,0,0,0,280.834,311.306Zm12.693-16.377h3.924v2.282a6.483,6.483,0,0,1,2.322-1.962,6.831,6.831,0,0,1,3.323-.721,7.845,7.845,0,0,1,3.964.921,5.849,5.849,0,0,1,2.362,2.563,7.148,7.148,0,0,1,2.6-2.523,8.048,8.048,0,0,1,3.844-.961,8.834,8.834,0,0,1,3.524.6,6.656,6.656,0,0,1,2.523,1.682,7.5,7.5,0,0,1,1.482,2.643,12.544,12.544,0,0,1,.48,3.444v11.812h-4.084V303.1a5.841,5.841,0,0,0-1.081-3.684,4.048,4.048,0,0,0-3.4-1.4,4.407,4.407,0,0,0-3.4,1.361,5.873,5.873,0,0,0-1.281,4.084v11.251h-4V302.817a5.633,5.633,0,0,0-1.041-3.564,4.058,4.058,0,0,0-3.323-1.281,4.493,4.493,0,0,0-3.484,1.4,6.251,6.251,0,0,0-1.281,4.244v11.091h-3.964v-19.78ZM326.24,289a2.477,2.477,0,0,1,.2-1.081,2.669,2.669,0,0,1,1.522-1.522,3.432,3.432,0,0,1,1.081-.2,2.77,2.77,0,0,1,1.121.2,2.454,2.454,0,0,1,.921.6,3.311,3.311,0,0,1,.6.921,3.433,3.433,0,0,1,.2,1.081,2.476,2.476,0,0,1-.2,1.081,2.054,2.054,0,0,1-.6.921,2.608,2.608,0,0,1-.921.6,3.473,3.473,0,0,1-1.121.2,2.8,2.8,0,0,1-2-.8,4.545,4.545,0,0,1-.6-.921,2.588,2.588,0,0,1-.2-1.081Zm.8,5.926h4v19.78h-4Zm7.448,0h3.884v2.723a7.566,7.566,0,0,1,6.326-3.163,9.83,9.83,0,0,1,3.4.6,6.9,6.9,0,0,1,2.563,1.722,7.368,7.368,0,0,1,1.6,2.763,10.207,10.207,0,0,1,.561,3.644v11.492h-4V303.538a6.118,6.118,0,0,0-1.281-4.044,4.815,4.815,0,0,0-3.764-1.522,5.549,5.549,0,0,0-2.122.4,4.876,4.876,0,0,0-1.682,1.161,5.425,5.425,0,0,0-1.121,1.842,6.881,6.881,0,0,0-.4,2.4v10.931h-3.964v-19.78Zm18.9,0h3.444v-1.121a15.686,15.686,0,0,1,.4-3.844,5.149,5.149,0,0,1,1.281-2.442,5.284,5.284,0,0,1,2.4-1.321,17.65,17.65,0,0,1,3.844-.4h.961v3.644h-.681a14.589,14.589,0,0,0-2.282.16,2.174,2.174,0,0,0-1.321.641,2.667,2.667,0,0,0-.6,1.321,13.753,13.753,0,0,0-.16,2.242v1.081h4.645v3.564h-4.645v16.257h-3.884V298.493h-3.444v-3.564ZM375.25,315.11a10.711,10.711,0,0,1-4.044-.8,10.42,10.42,0,0,1-5.486-5.446,10.662,10.662,0,0,1-.8-4,10.509,10.509,0,0,1,.8-4,10.223,10.223,0,0,1,5.486-5.486,10.611,10.611,0,0,1,8.088,0,10.223,10.223,0,0,1,5.486,5.486,10.663,10.663,0,0,1,.8,4,10.51,10.51,0,0,1-.8,4,10.152,10.152,0,0,1-5.486,5.446,10.711,10.711,0,0,1-4.044.8Zm0-3.684a6.06,6.06,0,0,0,2.523-.521,5.845,5.845,0,0,0,2-1.4,6.462,6.462,0,0,0,1.361-2.082,6.963,6.963,0,0,0,.4-3.844,6.774,6.774,0,0,0-1.762-3.444,6,6,0,0,0-2.042-1.4,6.765,6.765,0,0,0-2.523-.521,6.06,6.06,0,0,0-2.523.521,5.844,5.844,0,0,0-2,1.4,6.346,6.346,0,0,0-1.321,2.082,7.181,7.181,0,0,0,0,5.165,7.077,7.077,0,0,0,1.321,2.082,5.845,5.845,0,0,0,2,1.4,5.934,5.934,0,0,0,2.563.561Z" transform="translate(-145.336 -267.662)" fill="#fff"/>
    <path id="svg_2" d="M21.7,248.068a7.587,7.587,0,0,1,7.568-7.568h49.29a7.587,7.587,0,0,1,7.568,7.568v49.29a7.587,7.587,0,0,1-7.568,7.568H29.268a7.587,7.587,0,0,1-7.568-7.568v-49.29Z" transform="translate(-21.7 -240.5)" fill="#fff"/>
    <path id="svg_3" d="M87.122,284.4h7.207a.53.53,0,0,1,.521.521v6.927a.53.53,0,0,1-.521.521H92.287a.53.53,0,0,1-.521-.521v-2.162L70.1,310.587h4.445a.53.53,0,0,1,.521.52v2.042a.53.53,0,0,1-.521.521H66.021a.53.53,0,0,1-.521-.521v-2.563l24.024-23.144H87.082a.53.53,0,0,1-.521-.521V284.88A.6.6,0,0,1,87.122,284.4Zm-18.539,3H82.237a.53.53,0,0,0,.521-.521v-1.962a.53.53,0,0,0-.521-.521H66.021a.53.53,0,0,0-.521.521v7.047a.53.53,0,0,0,.521.521h2.042a.53.53,0,0,0,.521-.521Zm23.184,23.224H79.394a.53.53,0,0,0-.521.521v2.042a.53.53,0,0,0,.521.521h14.9a.53.53,0,0,0,.521-.521v-7.247a.53.53,0,0,0-.521-.521H92.247a.53.53,0,0,0-.521.521v4.685Z" transform="translate(-47.962 -266.822)" fill="#13124c"/>
  </g>
</svg>
