<svg xmlns="http://www.w3.org/2000/svg" xmlns:xlink="http://www.w3.org/1999/xlink" width="99.259" height="99.258" viewBox="0 0 99.259 99.258">
  <defs>
    <linearGradient id="linear-gradient" x1="0.5" x2="0.5" y2="1" gradientUnits="objectBoundingBox">
      <stop offset="0" stop-color="#a504fe"/>
      <stop offset="0.54" stop-color="#5650ec"/>
      <stop offset="1" stop-color="#01a2d7"/>
    </linearGradient>
  </defs>
  <g id="noun-performance-5306856" transform="translate(-2.587)">
    <path id="Path_4638" data-name="Path 4638" d="M307.109,279.57h-5.715a1.372,1.372,0,0,0-1.37,1.37v12.4a1.372,1.372,0,0,0,1.37,1.37h5.715a1.372,1.372,0,0,0,1.37-1.37v-12.4A1.362,1.362,0,0,0,307.109,279.57Zm-1.354,12.4h-2.99V282.3h2.989Z" transform="translate(-256.979 -230.019)" fill="url(#linear-gradient)"/>
    <path id="Path_4639" data-name="Path 4639" d="M360.99,319.71h-5.715a1.372,1.372,0,0,0-1.37,1.37v5.03a1.372,1.372,0,0,0,1.37,1.37h5.715a1.372,1.372,0,0,0,1.37-1.37v-5.03A1.382,1.382,0,0,0,360.99,319.71Zm-1.37,5.029h-2.99v-2.3h2.99Z" transform="translate(-300.97 -262.792)" fill="url(#linear-gradient)"/>
    <path id="Path_4640" data-name="Path 4640" d="M253.319,304.61H247.6a1.372,1.372,0,0,0-1.37,1.37v7.8a1.372,1.372,0,0,0,1.37,1.37h5.715a1.372,1.372,0,0,0,1.37-1.37v-7.8A1.382,1.382,0,0,0,253.319,304.61Zm-1.37,7.8h-2.99v-5.076h2.99Z" transform="translate(-213.061 -250.463)" fill="url(#linear-gradient)"/>
    <path id="Path_4641" data-name="Path 4641" d="M409.065,255.32a1.372,1.372,0,0,0-1.37,1.37v16.834a1.372,1.372,0,0,0,1.37,1.37h5.715a1.372,1.372,0,0,0,1.37-1.37V256.675a1.372,1.372,0,0,0-1.37-1.37h-5.715Zm4.36,16.833h-2.99V258.045h2.99Z" transform="translate(-344.889 -210.207)" fill="url(#linear-gradient)"/>
    <path id="Path_4642" data-name="Path 4642" d="M277.851,206.25a1.32,1.32,0,0,0,.966-.405l11.663-11.663v2.211a1.37,1.37,0,0,0,2.74,0v-5.5c0-.016-.016-.031-.016-.047a1.194,1.194,0,0,0-.093-.467,1.137,1.137,0,0,0-.25-.358.357.357,0,0,0-.047-.078c-.031-.031-.062-.031-.093-.062a1.674,1.674,0,0,0-.343-.234,1.529,1.529,0,0,0-.53-.109h-5.5a1.37,1.37,0,0,0,0,2.74h2.211l-10.7,10.7-8.549-8.565a1.371,1.371,0,0,0-1.931,0l-8.082,8.082a1.365,1.365,0,1,0,1.931,1.931l7.132-7.132,8.549,8.565a1.244,1.244,0,0,0,.936.392Z" transform="translate(-223.408 -156.512)" fill="url(#linear-gradient)"/>
    <path id="Path_4643" data-name="Path 4643" d="M177.713,50.162l-9-1.589a40.392,40.392,0,0,0-4.049-9.779l5.248-7.49a1.37,1.37,0,0,0-.156-1.744l-10.9-10.9a1.368,1.368,0,0,0-1.744-.156l-7.49,5.248a40.409,40.409,0,0,0-9.779-4.049l-1.589-9a1.354,1.354,0,0,0-1.339-1.121H121.5a1.354,1.354,0,0,0-1.339,1.121l-1.589,9a40.392,40.392,0,0,0-9.779,4.049L101.3,18.5a1.37,1.37,0,0,0-1.744.156l-10.9,10.9A1.368,1.368,0,0,0,88.5,31.3l5.248,7.49A40.409,40.409,0,0,0,89.7,48.573l-9,1.589A1.354,1.354,0,0,0,79.575,51.5V66.917A1.369,1.369,0,0,0,80.7,68.257l9,1.589a40.392,40.392,0,0,0,4.049,9.779L88.5,87.115a1.37,1.37,0,0,0,.156,1.744l10.9,10.9a1.368,1.368,0,0,0,1.744.156l7.49-5.248a40.409,40.409,0,0,0,9.779,4.049l1.589,9a1.354,1.354,0,0,0,1.339,1.121h15.416a1.354,1.354,0,0,0,1.339-1.121l1.589-9a40.392,40.392,0,0,0,9.779-4.049l7.49,5.248a1.37,1.37,0,0,0,1.744-.156l10.9-10.9a1.368,1.368,0,0,0,.156-1.744l-5.248-7.49a40.409,40.409,0,0,0,4.049-9.779l9-1.589a1.354,1.354,0,0,0,1.121-1.339V51.5a1.342,1.342,0,0,0-1.121-1.339Zm-1.6,15.619-8.751,1.541a1.371,1.371,0,0,0-1.09,1.012,37.573,37.573,0,0,1-4.407,10.651,1.371,1.371,0,0,0,.047,1.495L167,87.752l-9.281,9.281-7.272-5.092a1.37,1.37,0,0,0-1.495-.047A37.567,37.567,0,0,1,138.3,96.3a1.351,1.351,0,0,0-1.012,1.09l-1.541,8.751H122.619l-1.541-8.751a1.371,1.371,0,0,0-1.012-1.09,37.946,37.946,0,0,1-10.651-4.407,1.371,1.371,0,0,0-1.495.047l-7.272,5.092-9.281-9.281,5.092-7.272a1.37,1.37,0,0,0,.047-1.495A37.567,37.567,0,0,1,92.1,68.334a1.351,1.351,0,0,0-1.09-1.012L82.257,65.78V52.637L91.008,51.1a1.371,1.371,0,0,0,1.09-1.012A37.763,37.763,0,0,1,96.5,39.433a1.371,1.371,0,0,0-.047-1.495l-5.092-7.272,9.281-9.281,7.272,5.092a1.371,1.371,0,0,0,1.495.047,37.94,37.94,0,0,1,10.651-4.407,1.351,1.351,0,0,0,1.012-1.09l1.541-8.751h13.127l1.541,8.751a1.371,1.371,0,0,0,1.012,1.09,37.573,37.573,0,0,1,10.651,4.407,1.372,1.372,0,0,0,1.495-.047l7.272-5.092L167,30.666l-5.092,7.272a1.37,1.37,0,0,0-.047,1.495,37.94,37.94,0,0,1,4.407,10.651,1.351,1.351,0,0,0,1.09,1.012l8.751,1.541Z" transform="translate(-76.989 -9.58)" fill="url(#linear-gradient)"/>
    <path id="Path_4644" data-name="Path 4644" d="M205.647,135.647a28.013,28.013,0,1,0,39.617,0,28.056,28.056,0,0,0-39.617,0Zm37.684,37.684a25.264,25.264,0,1,1,7.412-17.877A25.1,25.1,0,0,1,243.331,173.331Z" transform="translate(-173.238 -105.826)" fill="url(#linear-gradient)"/>
  </g>
</svg>
