<svg xmlns="http://www.w3.org/2000/svg" xmlns:xlink="http://www.w3.org/1999/xlink" width="99.266" height="99.259" viewBox="0 0 99.266 99.259">
  <defs>
    <linearGradient id="linear-gradient" x1="0.5" x2="0.5" y2="1" gradientUnits="objectBoundingBox">
      <stop offset="0" stop-color="#a504fe"/>
      <stop offset="0.49" stop-color="#5650ec"/>
      <stop offset="1" stop-color="#01a2d7"/>
    </linearGradient>
  </defs>
  <g id="noun-productivity-5308609" transform="translate(-8.149)">
    <path id="Path_4673" data-name="Path 4673" d="M115.825,112.674a1.1,1.1,0,1,1-1.478,1.632l-1.1-1.1a1.1,1.1,0,0,1,1.533-1.577Zm31.916-84.679a49.628,49.628,0,0,0-38.28,81.181,1.1,1.1,0,1,0,1.7-1.4,47.43,47.43,0,1,1,8.417,7.974,1.1,1.1,0,0,0-1.312,1.776,49.63,49.63,0,1,0,29.481-89.532ZM105.832,78.209v-.143h0a41.8,41.8,0,0,1,41.8-42.284h.22a41.8,41.8,0,0,1,41.734,42.284v.143h0a1.089,1.089,0,0,1,0,.188,41.643,41.643,0,0,1-12.242,28.828,1.08,1.08,0,0,1-1.556,0l-8.073-8.073a1.1,1.1,0,0,1,0-1.556,28.3,28.3,0,0,0,8.238-19.355v-.078a28.146,28.146,0,0,0-1.379-9.363c-9.352,5.36-24.628,13.367-24.8,13.422a5.029,5.029,0,1,1-4.059-9.2c.143-.066,24.882-9.253,32.458-11.337h0a2.206,2.206,0,0,1,1.776,3.96c-.872.562-2.051,1.269-3.43,2.073a30.358,30.358,0,0,1,1.665,9.385h9.2a39.539,39.539,0,0,0-10.83-26.733L170.032,56.9c.618.672,1.224,1.356,1.776,2.073a1.1,1.1,0,0,1-1.742,1.356,27.872,27.872,0,0,0-2.206-2.58.336.336,0,0,1-.11-.078.125.125,0,0,0-.088-.11A28.113,28.113,0,0,0,147.877,49.4h-.155a28.116,28.116,0,0,0-19.83,8.161.125.125,0,0,1-.088.11c-.088.033-.077.055-.11.088a28.236,28.236,0,0,0,.088,39.791,1.1,1.1,0,0,1,0,1.556l-8.073,8.073h0a1.1,1.1,0,0,1-1.555,0,41.639,41.639,0,0,1-12.242-28.785,1.108,1.108,0,0,1-.078-.188Zm72.91-14.414c-7.092,1.985-31.333,10.929-32.192,11.271h0a2.824,2.824,0,0,0,2.294,5.14c.827-.375,23.712-12.4,29.9-16.411ZM125.452,98.358a30.264,30.264,0,0,1-8.084-19.047h-9.232a39.463,39.463,0,0,0,10.787,25.565Zm0-41.468-6.518-6.518A39.54,39.54,0,0,0,108.1,77.1h9.209a30.385,30.385,0,0,1,8.139-20.216Zm43.012-1.555,6.518-6.518h0a39.495,39.495,0,0,0-26.138-10.808v9.209a30.385,30.385,0,0,1,19.631,8.117ZM146.639,38.008a39.489,39.489,0,0,0-26.148,10.808l6.518,6.518h0a30.385,30.385,0,0,1,19.631-8.117Zm40.708,41.3h-9.209a30.473,30.473,0,0,1-8.106,19.047l6.529,6.518h0A39.464,39.464,0,0,0,187.347,79.31Z" transform="translate(-89.991 -27.993)" fill="url(#linear-gradient)"/>
  </g>
</svg>
