<svg id="noun-satisfaction-4421259" xmlns="http://www.w3.org/2000/svg" xmlns:xlink="http://www.w3.org/1999/xlink" width="112.876" height="99.259" viewBox="0 0 112.876 99.259">
  <defs>
    <linearGradient id="linear-gradient" x1="0.5" x2="0.5" y2="1" gradientUnits="objectBoundingBox">
      <stop offset="0" stop-color="#a504fe"/>
      <stop offset="0.49" stop-color="#5650ec"/>
      <stop offset="1" stop-color="#01a2d7"/>
    </linearGradient>
  </defs>
  <path id="Path_4711" data-name="Path 4711" d="M467.626,304.986a13.68,13.68,0,1,0-15.476,0c-.906.24-1.71.5-2.667.821h0a1.71,1.71,0,1,0,1.163,3.215,27.362,27.362,0,0,1,30.182,8.123,1.711,1.711,0,0,0,2.616-2.206,30.781,30.781,0,0,0-15.818-9.953ZM449.636,293.7a10.259,10.259,0,1,1,3,7.255A10.262,10.262,0,0,1,449.636,293.7Z" transform="translate(-370.97 -237.192)" fill="url(#linear-gradient)"/>
  <path id="Path_4712" data-name="Path 4712" d="M124.51,268.131a17.1,17.1,0,1,0-16.93,0,32.336,32.336,0,0,0-10.79,5.233,1.685,1.685,0,0,0,.3-1.86,1.712,1.712,0,0,0-.963-.893,30.807,30.807,0,0,0-2.992-.923,13.68,13.68,0,1,0-15.39,0,30.782,30.782,0,0,0-16.109,10.072,1.712,1.712,0,0,0,2.634,2.189,27.362,27.362,0,0,1,30.576-8.139,1.709,1.709,0,0,0,1.368-.086,32.488,32.488,0,0,0-12.74,25.736,1.71,1.71,0,0,0,3.42,0,29.071,29.071,0,0,1,58.142,0,1.71,1.71,0,0,0,3.42,0A32.492,32.492,0,0,0,124.51,268.13Zm-49.49-9.713a10.26,10.26,0,1,1,3.006,7.255A10.26,10.26,0,0,1,75.02,258.418Zm27.259-5.13a13.681,13.681,0,1,1,4.007,9.673A13.678,13.678,0,0,1,102.279,253.288Z" transform="translate(-61.235 -201.911)" fill="url(#linear-gradient)"/>
  <path id="Path_4713" data-name="Path 4713" d="M461.466,131.46a1.711,1.711,0,0,0-1.385-1.163l-6.207-.906-2.839-5.626a1.71,1.71,0,0,0-3.061,0l-2.771,5.626L439,130.3h0a1.711,1.711,0,0,0-.941,2.925l4.481,4.377-1.06,6.173h0a1.71,1.71,0,0,0,2.48,1.8l5.541-2.925,5.541,2.907a1.71,1.71,0,0,0,2.48-1.8l-1.06-6.173,4.481-4.377h0a1.708,1.708,0,0,0,.53-1.744Zm-8.037,4.292a1.711,1.711,0,0,0-.5,1.5l.633,3.642-3.266-1.71a1.712,1.712,0,0,0-1.59,0l-3.266,1.71.632-3.625a1.71,1.71,0,0,0-.5-1.505l-2.651-2.582,3.66-.53a1.71,1.71,0,0,0,1.283-.941l1.71-3.318,1.71,3.318a1.71,1.71,0,0,0,1.283.941l3.66.53Z" transform="translate(-363.99 -110.71)" fill="url(#linear-gradient)"/>
  <path id="Path_4714" data-name="Path 4714" d="M287.977,73.234a1.711,1.711,0,0,0-1.385-1.163l-9.747-1.419-4.429-8.841a1.711,1.711,0,0,0-3.061,0l-4.361,8.823-9.747,1.419h0a1.71,1.71,0,0,0-.941,2.924l7.046,6.84-1.71,9.713h0a1.71,1.71,0,0,0,2.514,1.9l8.721-4.652,8.721,4.652a1.71,1.71,0,0,0,2.48-1.8l-1.71-9.713,7.046-6.84a1.71,1.71,0,0,0,.564-1.847Zm-10.517,6.84a1.711,1.711,0,0,0-.5,1.5l1.231,7.182-6.447-3.42a1.708,1.708,0,0,0-1.59,0l-6.447,3.42,1.231-7.182a1.711,1.711,0,0,0-.5-1.5l-5.13-5.13,7.2-1.043h0a1.708,1.708,0,0,0,1.283-.941l3.078-6.533,3.215,6.481a1.711,1.711,0,0,0,1.283.941l7.2,1.043Z" transform="translate(-216.152 -60.863)" fill="url(#linear-gradient)"/>
  <path id="Path_4715" data-name="Path 4715" d="M314.317,112.4a1.71,1.71,0,0,0-2.292.77l-1.095,2.223-2.5.36a1.714,1.714,0,0,0,.24,3.42h.257l3.42-.479h0a1.71,1.71,0,0,0,1.214-1.043l1.488-3.027a1.71,1.71,0,0,0-.735-2.223Z" transform="translate(-258.84 -102.187)" fill="url(#linear-gradient)"/>
  <path id="Path_4716" data-name="Path 4716" d="M132.89,123.687l-2.77,5.626-6.207.906h0a1.71,1.71,0,0,0-.941,2.925l4.481,4.377-1.06,6.173h0a1.71,1.71,0,0,0,2.48,1.8l5.558-2.925,5.541,2.907a1.71,1.71,0,0,0,2.48-1.8l-1.06-6.173,4.481-4.377h0a1.71,1.71,0,0,0-.941-2.924l-6.207-.906-2.754-5.609a1.71,1.71,0,0,0-3.078,0Zm3.249,7.952a1.71,1.71,0,0,0,1.283.941l3.66.53-2.719,2.565a1.711,1.711,0,0,0-.5,1.5l.633,3.642-3.266-1.71a1.712,1.712,0,0,0-1.59,0l-3.266,1.71.632-3.625a1.71,1.71,0,0,0-.5-1.505l-2.667-2.6,3.66-.53h0a1.711,1.711,0,0,0,1.283-.941l1.71-3.318Z" transform="translate(-110.484 -110.633)" fill="url(#linear-gradient)"/>
</svg>
