<svg xmlns="http://www.w3.org/2000/svg" xmlns:xlink="http://www.w3.org/1999/xlink" width="179.353" height="75.823" viewBox="0 0 179.353 75.823">
  <defs>
    <linearGradient id="linear-gradient" x1="0.5" x2="0.5" y2="1" gradientUnits="objectBoundingBox">
      <stop offset="0" stop-color="#a504fe"/>
      <stop offset="0.577" stop-color="#5650ec"/>
      <stop offset="1" stop-color="#01a2d7"/>
    </linearGradient>
  </defs>
  <g id="noun-flexible-3883955" transform="translate(183.27 74.323) rotate(180)">
    <path id="Path_4589" data-name="Path 4589" d="M108.778,292.887a1.61,1.61,0,0,0-2.454,0l-9.057,9.057-4.907-4.718a1.872,1.872,0,0,0-3.208.944L83.869,323.08a1.931,1.931,0,0,0,2.264,2.264l24.72-5.284a1.872,1.872,0,0,0,.944-3.208l-4.718-4.718,9.057-9.057a1.61,1.61,0,0,0,0-2.453Z" transform="translate(-79.886 -251.042)" fill="url(#linear-gradient)"/>
    <path id="Path_4590" data-name="Path 4590" d="M551.4,323.451l-5.284-24.72a1.872,1.872,0,0,0-3.208-.944l-4.717,4.718-9.057-9.057a1.61,1.61,0,0,0-2.453,0L519.129,301a1.61,1.61,0,0,0,0,2.453l9.057,9.057-4.718,4.718a1.872,1.872,0,0,0,.944,3.208l24.719,5.284A2,2,0,0,0,551.4,323.451Z" transform="translate(-368.146 -251.414)" fill="url(#linear-gradient)"/>
    <path id="Path_4591" data-name="Path 4591" d="M289.259,193.737a89.86,89.86,0,0,0-122.09,0,3.3,3.3,0,0,0,0,4.718l17.172,17.172a3.441,3.441,0,0,0,4.529.188c22.077-20.192,56.422-20.192,78.688,0a3.254,3.254,0,0,0,4.529-.188l17.172-17.172a3.3,3.3,0,0,0,0-4.718Z" transform="translate(-134.503 -169.819)" fill="none" stroke="#5650ec" stroke-width="3"/>
  </g>
</svg>
