<svg xmlns="http://www.w3.org/2000/svg" xmlns:xlink="http://www.w3.org/1999/xlink" width="145.598" height="152.517" viewBox="0 0 145.598 152.517">
  <defs>
    <linearGradient id="linear-gradient" x1="0.5" x2="0.5" y2="1" gradientUnits="objectBoundingBox">
      <stop offset="0" stop-color="#a504fe"/>
      <stop offset="0.531" stop-color="#5650ec"/>
      <stop offset="1" stop-color="#01a2d7"/>
    </linearGradient>
  </defs>
  <g id="Group_323" data-name="Group 323" transform="translate(-2095.01 -2546)">
    <g id="noun-advisory-4475026" transform="translate(2095.01 2546)">
      <path id="Path_839" data-name="Path 839" d="M488.369,165.079a14.747,14.747,0,1,0-14.747-14.747A14.765,14.765,0,0,0,488.369,165.079Zm0-25.891a11.145,11.145,0,1,1-11.145,11.145A11.152,11.152,0,0,1,488.369,139.188Z" transform="translate(-365.829 -100.206)" fill="url(#linear-gradient)"/>
      <path id="Path_840" data-name="Path 840" d="M238.579,130.459a14.747,14.747,0,1,0-14.747-14.747A14.765,14.765,0,0,0,238.579,130.459Zm0-25.868a11.145,11.145,0,1,1-11.145,11.145A11.152,11.152,0,0,1,238.579,104.591Z" transform="translate(-186.747 -75.386)" fill="url(#linear-gradient)"/>
      <path id="Path_841" data-name="Path 841" d="M195.57,328.8a.4.4,0,0,0,.144-.144,1.808,1.808,0,0,0,.793-1.441V315.829a1.814,1.814,0,0,0-1.8-1.8H94.623a1.814,1.814,0,0,0-1.8,1.8v11.385a1.749,1.749,0,0,0,.865,1.489,1.142,1.142,0,0,0,.072.1L112.8,339.15v39.7a1.8,1.8,0,0,0,3.6,0V339.869H172.9V378.85a1.8,1.8,0,0,0,3.6,0v-39.7ZM96.425,317.629h96.5v7.782h-96.5Zm18.638,18.638-13.354-7.254h85.912l-13.378,7.254Z" transform="translate(-92.822 -228.137)" fill="url(#linear-gradient)"/>
      <path id="Path_842" data-name="Path 842" d="M325.1,41.925h22.288l7.469,5.139a1.781,1.781,0,0,0,1.008.312,1.754,1.754,0,0,0,.84-.216,1.794,1.794,0,0,0,.961-1.586V26.265a15.677,15.677,0,0,0-15.659-15.659H325.1a15.66,15.66,0,0,0,0,31.32Zm0-27.718h16.909a12.064,12.064,0,0,1,12.057,12.057V42.141l-5.116-3.506a1.726,1.726,0,0,0-1.008-.312H325.1a12.058,12.058,0,0,1,0-24.115Z" transform="translate(-248.123 -10.605)" fill="url(#linear-gradient)"/>
      <path id="Path_843" data-name="Path 843" d="M229.77,264.828v7.229a1.8,1.8,0,1,0,3.6,0v-7.229a1.8,1.8,0,1,0-3.6,0Z" transform="translate(-191.004 -191.574)" fill="url(#linear-gradient)"/>
      <path id="Path_844" data-name="Path 844" d="M309.44,264.828v7.229a1.8,1.8,0,0,0,3.6,0v-7.229a1.8,1.8,0,0,0-3.6,0Z" transform="translate(-248.122 -191.574)" fill="url(#linear-gradient)"/>
      <path id="Path_845" data-name="Path 845" d="M353.415,47.724h19.935a1.8,1.8,0,1,0,0-3.6H353.414a1.8,1.8,0,1,0,0,3.6Z" transform="translate(-278.357 -34.634)" fill="url(#linear-gradient)"/>
      <path id="Path_846" data-name="Path 846" d="M353.418,78.61H363.77a1.8,1.8,0,1,0,0-3.6H353.418a1.8,1.8,0,1,0,0,3.6Z" transform="translate(-278.36 -56.777)" fill="url(#linear-gradient)"/>
      <path id="Path_847" data-name="Path 847" d="M184.628,241.381a1.814,1.814,0,0,0,1.8-1.8v-7.4a10.173,10.173,0,0,1,.072-1.2c.553-5.4,5.5-9.631,11.289-9.631h22.866c5.788,0,10.736,4.227,11.289,9.607a9.948,9.948,0,0,1,.048,1.2v7.4a1.8,1.8,0,0,0,3.6,0v-7.4c0-.529-.024-1.033-.072-1.561-.721-7.2-7.254-12.874-14.867-12.874H197.789c-7.614,0-14.147,5.644-14.867,12.85-.048.5-.072,1.033-.072,1.561v7.4a1.76,1.76,0,0,0,1.777,1.85Z" transform="translate(-157.366 -159.094)" fill="url(#linear-gradient)"/>
      <path id="Path_848" data-name="Path 848" d="M434.345,238.509a1.754,1.754,0,0,0-.84.216l-15.8,8.286-35.522,5.139a1.8,1.8,0,1,0,.529,3.554l35.834-5.188a1.635,1.635,0,0,0,.576-.192l15.659-8.215a6.838,6.838,0,0,1,6.413,6.821v38.718a8.467,8.467,0,0,1-8.454,8.454H413.928a4.154,4.154,0,0,0-3,1.25,4.255,4.255,0,0,0-1.249,3l.05,24.356a1.8,1.8,0,1,0,3.6,0l-.072-24.354a.657.657,0,0,1,.649-.649h18.807a12.064,12.064,0,0,0,12.057-12.057V248.933a10.415,10.415,0,0,0-10.424-10.424Z" transform="translate(-299.172 -173.996)" fill="url(#linear-gradient)"/>
      <path id="Path_849" data-name="Path 849" d="M465.493,336.283V315.915a1.814,1.814,0,0,0-1.8-1.8h-12.8a1.8,1.8,0,0,0,0,3.6h11v17.173l-18.518,4.588a4.242,4.242,0,0,0-3.219,4.131l-.048,35.307a1.8,1.8,0,0,0,3.6,0l.048-35.33a.62.62,0,0,1,.5-.625l19.887-4.924a1.822,1.822,0,0,0,1.346-1.753Z" transform="translate(-341.8 -228.2)" fill="url(#linear-gradient)"/>
    </g>
  </g>
</svg>
