<svg xmlns="http://www.w3.org/2000/svg" xmlns:xlink="http://www.w3.org/1999/xlink" width="136.424" height="152.517" viewBox="0 0 136.424 152.517">
  <defs>
    <linearGradient id="linear-gradient" x1="0.5" x2="0.5" y2="1" gradientUnits="objectBoundingBox">
      <stop offset="0" stop-color="#a504fe"/>
      <stop offset="0.49" stop-color="#5650ec"/>
      <stop offset="1" stop-color="#01a2d7"/>
    </linearGradient>
  </defs>
  <g id="noun-implementation-5117836" transform="translate(-107.427 -8.783)">
    <path id="Path_878" data-name="Path 878" d="M185.327,101.6H168.719v16.608h16.608Zm-2.387,14.221H171.105V103.986H182.94ZM168.022,81.346a1.189,1.189,0,0,1,1.194-1.194h21.016a1.194,1.194,0,0,1,0,2.388H169.216A1.2,1.2,0,0,1,168.022,81.346Zm0,7.508a1.189,1.189,0,0,1,1.194-1.194h39.845a1.194,1.194,0,0,1,0,2.388H169.216A1.2,1.2,0,0,1,168.022,88.854Zm55.692,7.525a1.189,1.189,0,0,1-1.194,1.194h-53.3a1.194,1.194,0,0,1,0-2.388h53.3A1.19,1.19,0,0,1,223.714,96.379Zm0,9.464a1.189,1.189,0,0,1-1.194,1.194H191.808a1.194,1.194,0,0,1,0-2.388H222.52A1.19,1.19,0,0,1,223.714,105.843Zm0,8.784a1.189,1.189,0,0,1-1.194,1.194H191.808a1.194,1.194,0,0,1,0-2.388H222.52A1.19,1.19,0,0,1,223.714,114.628Zm0,10.143a1.189,1.189,0,0,1-1.194,1.194h-53.3a1.194,1.194,0,0,1,0-2.388h53.3A1.211,1.211,0,0,1,223.714,124.771Zm0,7.226a1.189,1.189,0,0,1-1.194,1.194h-53.3a1.194,1.194,0,0,1,0-2.388h53.3A1.19,1.19,0,0,1,223.714,132Zm20.1-73.872H166.681v8.553h-7.955V92.93H133.135V73.9a6.067,6.067,0,0,0,4.74-4.724H139.7a2.016,2.016,0,0,0,2.022-2.006V62.334a2,2,0,0,0-1.575-1.923V58.356a2.828,2.828,0,0,1,1.707-2.635,24.522,24.522,0,1,0-19.806,0,2.8,2.8,0,0,1,1.707,2.635v2.055a1.957,1.957,0,0,0-1.559,1.923v4.839a2,2,0,0,0,2.006,2.006h1.84a6.069,6.069,0,0,0,4.724,4.724v20.2a1.189,1.189,0,0,0,1.194,1.194h26.8v66h77.137v-8.553h7.955l0-94.623ZM123.01,53.533a22.135,22.135,0,1,1,17.884,0,5.2,5.2,0,0,0-3.133,4.806v1.973H135.44V42.03h3.647a6.017,6.017,0,1,0-6.033-6.017v3.63H130.8v-3.63a6.008,6.008,0,1,0-6,6.017h3.63v18.3h-2.287V58.356a5.2,5.2,0,0,0-3.133-4.823Zm5.419-13.889H124.8a3.63,3.63,0,1,1,3.63-3.63Zm2.387,2.387h2.254v18.3h-2.254Zm4.624-2.387v-3.63a3.638,3.638,0,1,1,3.646,3.63ZM124.567,62.7h14.751v4.094H124.567Zm3.929,6.5h6.912a3.661,3.661,0,0,1-6.912,0Zm105,89.733H161.131V69.063h52.225V87.991h20.154v70.94ZM215.726,70.621,231.671,85.6H215.726Zm25.723,79.757H235.88V86.285L215.013,66.678H169.07V60.512h72.362v89.865Zm-17.734-11.171a1.189,1.189,0,0,1-1.194,1.194h-53.3a1.194,1.194,0,1,1,0-2.388h53.3A1.212,1.212,0,0,1,223.715,139.207Zm0,7.226a1.189,1.189,0,0,1-1.194,1.194h-53.3a1.194,1.194,0,0,1,0-2.388h53.3A1.19,1.19,0,0,1,223.715,146.433Z" transform="translate(0 0)" fill="url(#linear-gradient)"/>
  </g>
</svg>
