<svg xmlns="http://www.w3.org/2000/svg" xmlns:xlink="http://www.w3.org/1999/xlink" width="152.515" height="152.517" viewBox="0 0 152.515 152.517">
  <defs>
    <linearGradient id="linear-gradient" x1="0.5" x2="0.5" y2="1" gradientUnits="objectBoundingBox">
      <stop offset="0" stop-color="#a504fe"/>
      <stop offset="0.54" stop-color="#5650ec"/>
      <stop offset="1" stop-color="#01a2d7"/>
    </linearGradient>
  </defs>
  <g id="noun-web-hosting-4822737" transform="translate(-78.422 -8.422)">
    <path id="Path_972" data-name="Path 972" d="M79.862,547.37h-.849a.591.591,0,0,0,0,1.182h.85a.591.591,0,1,0,0-1.182Z" transform="translate(0 -387.613)" fill="url(#linear-gradient)"/>
    <path id="Path_973" data-name="Path 973" d="M237,159.757h-5.109a5.073,5.073,0,0,0,1.882-3.927V151.5a.591.591,0,0,0-.591-.591H227.1V75.884a5.073,5.073,0,0,0-5.072-5.061H181.607V61.241l15.31-.018a12.429,12.429,0,0,0,12.414-12.409h0v0A12.448,12.448,0,0,0,198.414,36.49c-.047-.005-.092-.016-.139-.021a16.656,16.656,0,0,0,.545-4.248A16.825,16.825,0,0,0,172.88,18.1a21.994,21.994,0,0,0-40.168,10.815,16.583,16.583,0,0,0,5.278,32.3h11.147v9.5h-1.069a2.252,2.252,0,0,0-.641.1H108.717a5.066,5.066,0,0,0-5.061,5.061v75.023h-6.09a.591.591,0,0,0-.591.591v4.332a5.073,5.073,0,0,0,1.882,3.927H93.88a.591.591,0,0,0,0,1.182H237a.591.591,0,1,0,0-1.182Zm-57.555-7.667a4.366,4.366,0,0,1-4.318,3.767h-19.5a4.364,4.364,0,0,1-4.318-3.767ZM152.965,84.684a2.217,2.217,0,0,0,3.733,0l4.309-6.718h9.219v6.908a2.219,2.219,0,0,0,2.217,2.217h6.95a2.219,2.219,0,0,0,2.217-2.217V77.966h38.343v66.978H110.8V77.965h37.857Zm7.558-23.46,9.7.018v9.582h-7.992a2.253,2.253,0,0,0-.641-.1h-1.069Zm3.065,10.782h6.638v4.777h-8.461l1.695-2.642a2.181,2.181,0,0,0,.128-2.134ZM181.017,60.06a.591.591,0,0,0-.591.591V84.873a1.035,1.035,0,0,1-1.034,1.034h-6.95a1.035,1.035,0,0,1-1.034-1.034V60.651a.591.591,0,0,0-.591-.591h-1.661a1.034,1.034,0,0,1-.871-1.594l6.761-10.544a1.061,1.061,0,0,1,1.741,0l6.761,10.544a1.035,1.035,0,0,1-.871,1.594Zm-43.024-.018A15.394,15.394,0,0,1,132.667,30.2c0,.07-.008.138-.008.208a21.768,21.768,0,0,0,1.77,8.663.591.591,0,0,0,1.086-.467,20.606,20.606,0,0,1-1.673-8.2c0-.423.022-.842.047-1.261a21.25,21.25,0,0,1,2.392-8.516s0-.008.005-.011a20.809,20.809,0,0,1,35.62-1.829,16.907,16.907,0,0,0-4.235,4.677.592.592,0,0,0,.2.813.581.581,0,0,0,.308.087.592.592,0,0,0,.5-.283,15.629,15.629,0,0,1,13.332-7.477l.013,0A15.641,15.641,0,0,1,197.64,32.222a15.38,15.38,0,0,1-.58,4.177c-.052,0-.1-.008-.151-.008a12.4,12.4,0,0,0-8.5,3.365.591.591,0,0,0,.808.863,11.238,11.238,0,1,1,7.705,19.423H184.641a2.182,2.182,0,0,0-.1-2.213l-6.761-10.544a2.216,2.216,0,0,0-3.732,0l-6.761,10.544a2.182,2.182,0,0,0-.1,2.213h-6.67V47.095a2.219,2.219,0,0,0-2.217-2.217h-6.95a2.219,2.219,0,0,0-2.217,2.217V60.042Zm11.739,11.867a.591.591,0,0,0,.591-.591V47.095a1.035,1.035,0,0,1,1.034-1.034h6.95a1.035,1.035,0,0,1,1.034,1.034V71.318a.591.591,0,0,0,.591.591h1.661a1.034,1.034,0,0,1,.871,1.593L155.7,84.046a1.062,1.062,0,0,1-1.742,0L147.2,73.5a1.029,1.029,0,0,1,.554-1.54l.02-.009a1.065,1.065,0,0,1,.3-.045Zm-44.891,3.976a3.883,3.883,0,0,1,3.878-3.878h37.357a2.178,2.178,0,0,0,.128,2.133l1.695,2.642H110.208a.591.591,0,0,0-.591.591v68.16a.591.591,0,0,0,.591.591H220.541a.591.591,0,0,0,.591-.591V77.374a.591.591,0,0,0-.591-.591H181.61V72.006h40.423a3.888,3.888,0,0,1,3.89,3.878V150.9H104.844Zm-6.682,79.945v-3.74h51.984a5.53,5.53,0,0,0,5.482,4.949h19.5a5.53,5.53,0,0,0,5.482-4.949h51.984v3.74a3.928,3.928,0,0,1-3.924,3.924H102.08a3.928,3.928,0,0,1-3.924-3.924Z" transform="translate(-10.692)" fill="url(#linear-gradient)"/>
    <path id="Path_974" data-name="Path 974" d="M615.18,547.37H614.1a.591.591,0,1,0,0,1.182h1.084a.591.591,0,0,0,0-1.182Z" transform="translate(-384.834 -387.613)" fill="url(#linear-gradient)"/>
    <path id="Path_975" data-name="Path 975" d="M265.341,34.751a18.446,18.446,0,0,0-2.412,2.234.591.591,0,0,0,.878.792,17.105,17.105,0,0,1,2.257-2.091.591.591,0,0,0-.723-.936Z" transform="translate(-132.589 -18.847)" fill="url(#linear-gradient)"/>
    <path id="Path_976" data-name="Path 976" d="M250.223,51.153a.593.593,0,0,0-.815.186,18.308,18.308,0,0,0-2.767,8.833.592.592,0,0,0,.562.62h.029a.591.591,0,0,0,.59-.563,17.139,17.139,0,0,1,2.59-8.263.591.591,0,0,0-.188-.815Z" transform="translate(-120.983 -30.667)" fill="url(#linear-gradient)"/>
    <path id="Path_977" data-name="Path 977" d="M240.422,335.906a3.282,3.282,0,1,0-3.283-3.283A3.291,3.291,0,0,0,240.422,335.906Zm0-5.382a2.1,2.1,0,1,1-2.1,2.1A2.107,2.107,0,0,1,240.422,330.523Z" transform="translate(-114.15 -230.806)" fill="url(#linear-gradient)"/>
    <path id="Path_978" data-name="Path 978" d="M280.124,335.906a3.282,3.282,0,1,0-3.282-3.283A3.292,3.292,0,0,0,280.124,335.906Zm0-5.382a2.1,2.1,0,1,1-2.1,2.1A2.108,2.108,0,0,1,280.124,330.523Z" transform="translate(-142.704 -230.806)" fill="url(#linear-gradient)"/>
    <path id="Path_979" data-name="Path 979" d="M319.822,335.906a3.282,3.282,0,1,0-3.283-3.283A3.292,3.292,0,0,0,319.822,335.906Zm0-5.382a2.1,2.1,0,1,1-2.1,2.1A2.108,2.108,0,0,1,319.822,330.523Z" transform="translate(-171.255 -230.806)" fill="url(#linear-gradient)"/>
    <path id="Path_980" data-name="Path 980" d="M387.387,337.953h16.692a1.775,1.775,0,0,0,1.774-1.774V332.7a1.775,1.775,0,0,0-1.774-1.774H387.387a1.775,1.775,0,0,0-1.774,1.774v3.479A1.775,1.775,0,0,0,387.387,337.953ZM386.8,332.7a.592.592,0,0,1,.591-.591h16.692a.592.592,0,0,1,.591.591v3.479a.592.592,0,0,1-.591.591H387.387a.592.592,0,0,1-.591-.591Z" transform="translate(-220.933 -231.946)" fill="url(#linear-gradient)"/>
    <path id="Path_981" data-name="Path 981" d="M209.95,347.419h73.395A3.656,3.656,0,0,0,287,343.767V327.552a3.631,3.631,0,0,0-1.676-3.053A3.644,3.644,0,0,0,287,321.437V305.223a3.651,3.651,0,0,0-3.651-3.641H209.95a3.649,3.649,0,0,0-3.65,3.641v16.215a3.646,3.646,0,0,0,1.676,3.062,3.631,3.631,0,0,0-1.676,3.053v16.215A3.655,3.655,0,0,0,209.95,347.419Zm-2.469-42.2a2.466,2.466,0,0,1,2.469-2.458h73.395a2.467,2.467,0,0,1,2.47,2.458v16.215a2.473,2.473,0,0,1-2.47,2.469H209.949a2.472,2.472,0,0,1-2.469-2.469Zm0,22.33a2.466,2.466,0,0,1,2.469-2.458h73.395a2.467,2.467,0,0,1,2.47,2.458v16.215a2.473,2.473,0,0,1-2.47,2.47H209.95a2.472,2.472,0,0,1-2.469-2.47Z" transform="translate(-91.97 -210.842)" fill="url(#linear-gradient)"/>
    <path id="Path_982" data-name="Path 982" d="M240.422,415.426a3.282,3.282,0,1,0-3.283-3.282A3.291,3.291,0,0,0,240.422,415.426Zm0-5.382a2.1,2.1,0,1,1-2.1,2.1A2.108,2.108,0,0,1,240.422,410.043Z" transform="translate(-114.15 -287.997)" fill="url(#linear-gradient)"/>
    <path id="Path_983" data-name="Path 983" d="M280.124,415.426a3.282,3.282,0,1,0-3.282-3.282A3.291,3.291,0,0,0,280.124,415.426Zm0-5.382a2.1,2.1,0,1,1-2.1,2.1A2.108,2.108,0,0,1,280.124,410.043Z" transform="translate(-142.704 -287.997)" fill="url(#linear-gradient)"/>
    <path id="Path_984" data-name="Path 984" d="M319.822,415.426a3.282,3.282,0,1,0-3.283-3.282A3.291,3.291,0,0,0,319.822,415.426Zm0-5.382a2.1,2.1,0,1,1-2.1,2.1A2.108,2.108,0,0,1,319.822,410.043Z" transform="translate(-171.255 -287.997)" fill="url(#linear-gradient)"/>
    <path id="Path_985" data-name="Path 985" d="M387.387,417.473h16.692a1.775,1.775,0,0,0,1.774-1.774V412.22a1.775,1.775,0,0,0-1.774-1.774H387.387a1.775,1.775,0,0,0-1.774,1.774V415.7A1.776,1.776,0,0,0,387.387,417.473Zm-.591-5.253a.592.592,0,0,1,.591-.591h16.692a.592.592,0,0,1,.591.591V415.7a.592.592,0,0,1-.591.591H387.387a.592.592,0,0,1-.591-.591Z" transform="translate(-220.933 -289.137)" fill="url(#linear-gradient)"/>
  </g>
</svg>
